<?xml version="1.0" encoding="utf-8"?>
<!-- Generator: Adobe Illustrator 16.0.0, SVG Export Plug-In . SVG Version: 6.00 Build 0)  -->
<!DOCTYPE svg PUBLIC "-//W3C//DTD SVG 1.1//EN" "http://www.w3.org/Graphics/SVG/1.1/DTD/svg11.dtd">
<svg version="1.1" id="Layer_1" xmlns="http://www.w3.org/2000/svg" xmlns:xlink="http://www.w3.org/1999/xlink" x="0px" y="0px"
	 width="332.637px" height="332.636px" viewBox="85.811 85.81 332.637 332.636"
	 enable-background="new 85.811 85.81 332.637 332.636" xml:space="preserve">
<g>
	<path fill="none" d="M299.102,209.186c-15.907,0-28.846-12.939-28.846-28.844c0-15.904,12.938-28.843,28.846-28.843
		c0.799,0,1.588,0.042,2.37,0.105c-14.896-7.341-31.646-11.474-49.343-11.474c-10.909,0-21.456,1.574-31.433,4.496
		c6.048,5.291,9.879,13.057,9.879,21.705c0,15.904-12.938,28.843-28.843,28.843c-13.817,0-25.391-9.768-28.192-22.76
		c-20.611,20.324-33.409,48.55-33.409,79.714c0,61.756,50.242,111.998,111.998,111.998c61.757,0,111.999-50.242,111.999-111.998
		c0-34.168-15.386-64.806-39.586-85.366c2.171,4.049,3.406,8.673,3.406,13.58C327.947,196.247,315.008,209.186,299.102,209.186z
		 M355.723,243.988c0.47,0.16,0.81,0.605,0.81,1.13v7.948c0,0.658-0.534,1.192-1.192,1.192s-1.192-0.534-1.192-1.192
		c0-2.501-0.22-5.077-0.625-7.662c0.145,2.224,0.228,4.464,0.228,6.724c0,25.196-9.129,48.258-24.254,66.068
		c-2.025,5.193-5.111,10.275-9.812,14.49c-0.228,0.204-0.512,0.304-0.795,0.304c-0.328,0-0.653-0.134-0.89-0.396
		c-0.439-0.489-0.397-1.244,0.093-1.683c2.1-1.882,3.852-3.96,5.321-6.152c-18.447,18.239-43.807,29.505-71.799,29.505
		c-26.979,0-51.537-10.467-69.821-27.555c1.147,1.392,2.461,2.799,3.976,4.221c0.48,0.45,0.503,1.206,0.053,1.685
		c-0.45,0.479-1.206,0.504-1.685,0.054c-5.083-4.771-8.087-9.384-9.863-13.758c-15.513-17.905-24.905-41.251-24.905-66.782v-8.255
		c0-24.193,13.504-45.221,29.444-45.221h50.436c9.651,0,18.195,7.195,23.435,18.241c4.717-4.653,10.623-7.433,17.03-7.433h58.901
		C341.757,209.46,352.725,226.691,355.723,243.988z"/>
	<path fill="#133D8D" d="M350.055,147.149c-0.334,0.201-0.65,0.385-0.959,0.559l-3.126,1.671l2.133,2.001l1.453-3.203
		C349.719,147.813,349.887,147.474,350.055,147.149z"/>
	<path fill="#133D8D" d="M195.495,118.205l3.636,9.205c0.322-0.091,0.736-0.238,1.274-0.451c1.602-0.633,2.671-1.55,3.178-2.727
		c0.502-1.167,0.44-2.56-0.184-4.14c-0.55-1.419-1.69-3.108-4-3.108c-0.742,0-1.559,0.175-2.43,0.519
		C196.295,117.77,195.819,118.015,195.495,118.205z"/>
	<path fill="#133D8D" d="M226.977,114.804l-1.73-3.062c-0.197-0.348-0.373-0.683-0.536-1.01c-0.033,0.388-0.071,0.752-0.113,1.105
		l-0.494,3.509L226.977,114.804z"/>
	<path fill="#133D8D" d="M364.49,174.333L364.49,174.333c1.07,0,2.193-0.418,3.34-1.245c1.215-0.865,1.926-1.875,2.112-3.004
		c0.198-1.198-0.2-2.498-1.183-3.863c-0.424-0.586-0.779-0.989-1.045-1.256l-8.025,5.786c0.169,0.292,0.416,0.663,0.749,1.124
		C361.615,173.505,362.978,174.332,364.49,174.333z"/>
	<path fill="#133D8D" d="M396.312,238.501c-0.235-2.531-2.606-3.433-4.748-3.433c-0.257,0-0.515,0.012-0.776,0.036
		c-2.41,0.225-4.893,1.674-4.646,4.324c0.194,2.086,2.056,3.434,4.744,3.434c0.25,0,0.505-0.012,0.762-0.035
		C394.067,242.601,396.56,241.151,396.312,238.501z"/>
	<path fill="#133D8D" d="M396.329,253.105c0.36-0.474,0.543-1.186,0.529-2.059c-0.009-0.538-0.047-0.951-0.09-1.23l-4.554,0.075
		c-0.039,0.279-0.056,0.621-0.05,1.034c0.018,1.09,0.36,2.92,2.454,2.92C395.407,253.833,395.963,253.583,396.329,253.105z"/>
	<path fill="#133D8D" d="M307.041,120.439l-2.357,2.647l2.693,1.143l0.257-3.507c0.029-0.398,0.068-0.775,0.115-1.138
		C307.503,119.891,307.27,120.172,307.041,120.439z"/>
	<path fill="#133D8D" d="M124.374,186.363c-0.342-0.17-0.672-0.257-0.98-0.257c-1.01,0-1.702,0.938-2.103,1.724
		c-0.253,0.509-0.417,0.925-0.506,1.208l3.732,1.857l0.611-1.227C125.847,188.219,125.559,186.952,124.374,186.363z"/>
	<path fill="#133D8D" d="M177.514,133.917l-2.754-2.188c-0.312-0.248-0.601-0.493-0.875-0.735c0.116,0.376,0.217,0.728,0.309,1.066
		l0.86,3.438L177.514,133.917z"/>
	<path fill="#133D8D" d="M120.526,299.925l-2.716,2.232c-0.307,0.253-0.608,0.483-0.902,0.701c0.388-0.034,0.752-0.059,1.107-0.078
		l3.541-0.118L120.526,299.925z"/>
	<path fill="#133D8D" d="M266.367,387.732c-0.127-1.426-1.056-2.148-2.759-2.148c-0.163,0-0.329,0.006-0.5,0.019
		c-0.662,0.061-1.172,0.152-1.498,0.236l0.421,4.739l1.577-0.141C265.444,390.274,266.5,389.239,266.367,387.732z"/>
	<path fill="#133D8D" d="M119.48,205.157c0.799,0.311,1.634,0.474,2.413,0.474c1.777,0,3.117-0.828,3.677-2.271
		c0.422-1.089,0.302-2.194-0.348-3.194c-0.625-0.962-1.713-1.782-3.064-2.305c-0.803-0.311-1.648-0.476-2.445-0.476
		c-1.041,0-2.9,0.294-3.663,2.266C115.078,202.161,117.073,204.225,119.48,205.157z"/>
	<path fill="#133D8D" d="M156.101,142.802l6.359,7.581c0.346-0.235,0.741-0.558,1.068-0.831c2.62-2.199,2.856-4.849,0.666-7.459
		c-1.965-2.372-4.415-2.522-6.917-0.423C156.723,142.134,156.347,142.518,156.101,142.802z"/>
	<path fill="#133D8D" d="M305.993,385.332c0.577-1.313,0.518-2.888-0.174-4.673c-1.23-3.234-3.825-4.295-7.243-2.975
		c-0.782,0.304-1.332,0.584-1.698,0.8l4.034,10.413c0.478-0.129,1.053-0.345,1.477-0.51
		C304.2,387.686,305.412,386.658,305.993,385.332z"/>
	<path fill="#133D8D" d="M109.386,265.522l3.446,0.829l-0.264-2.914l-3.215,1.431c-0.365,0.161-0.716,0.304-1.057,0.436
		C108.684,265.375,109.043,265.447,109.386,265.522z"/>
	<path fill="#133D8D" d="M377.187,188.979c1.318-0.697,2.155-1.606,2.488-2.701c0.354-1.161,0.13-2.501-0.666-3.984
		c-0.342-0.638-0.642-1.083-0.869-1.382l-8.715,4.681c0.165,0.398,0.409,0.866,0.596,1.214
		C371.631,189.806,374.205,190.579,377.187,188.979z"/>
	<path fill="#133D8D" d="M252.129,88.195c-90.394,0-163.934,73.54-163.934,163.934c0,90.393,73.54,163.933,163.934,163.933
		c90.393,0,163.934-73.54,163.934-163.933C416.062,161.735,342.521,88.195,252.129,88.195z M398.704,247.591
		c0.191,1.048,0.299,2.186,0.317,3.379c0.03,1.772-0.355,3.133-1.147,4.042c-0.711,0.85-1.805,1.334-3.075,1.354l-0.108,0.001
		c-1.249,0-2.274-0.369-3.049-1.095c-1.039-0.944-1.632-2.491-1.664-4.353c-0.004-0.329-0.003-0.669,0.029-0.993l-5.289,0.088
		l-0.043-2.523l13.967-0.231L398.704,247.591z M391.969,245.431c-0.349,0.033-0.688,0.049-1.017,0.049
		c-3.926,0-6.679-2.334-7.016-5.945c-0.351-3.762,2.35-6.664,6.566-7.058c4.395-0.411,7.655,2.064,8.014,5.899
		C398.873,242.197,396.241,245.033,391.969,245.431z M396.528,225.464l-11.766,2.062l0.988,5.639l-2.212,0.388l-1.426-8.126
		l13.979-2.45L396.528,225.464z M395.531,220.219l-2.178,0.548l-1.343-5.339l-3.335,0.84l1.271,5.05l-2.159,0.543l-1.271-5.05
		l-3.914,0.984l1.416,5.628l-2.176,0.549l-2.034-8.075l13.762-3.465L395.531,220.219z M390.166,201.855l-5.817,4.259
		c-1.129,0.831-2.129,1.549-3.082,2.186c1.08-0.048,2.184-0.056,3.177-0.056l7.89,0.032l0.863,2.555l-15.063-0.269l-0.792-2.346
		l11.959-8.926L390.166,201.855z M368.056,162.024c0.879,0.9,1.691,1.863,2.413,2.865c1.492,2.07,2.11,3.92,1.891,5.659
		c-0.212,1.799-1.207,3.354-2.96,4.616c-1.509,1.088-3.058,1.639-4.604,1.639c-0.352,0-0.703-0.03-1.046-0.088
		c-1.863-0.301-3.69-1.628-5.282-3.835c-0.686-0.951-1.269-1.852-1.731-2.678l-0.174-0.31l11.253-8.112L368.056,162.024z
		 M360.201,152.522l-2.303,7.915c-0.312,1.065-0.637,2.053-0.983,2.981c0.852-0.827,1.728-1.619,2.703-2.482l4.503-3.969
		l1.604,1.818l-10.644,9.388l-1.567-1.775l2.348-7.898c0.373-1.26,0.725-2.336,1.073-3.279c-0.823,0.78-1.718,1.592-2.837,2.581
		l-4.592,4.05l-1.605-1.819l10.645-9.387L360.201,152.522z M353.391,145.605l-6.177,13.663l-1.962-1.839l1.839-4.052l-3.047-2.858
		l-3.896,2.121l-1.919-1.799l13.225-7.051L353.391,145.605z M335.803,131.183l-3.295,4.536l4.601,3.341l3.293-4.535l2.06,1.494
		l-8.339,11.484l-2.06-1.495l3.691-5.083l-4.601-3.341l-3.691,5.082l-2.042-1.483l8.339-11.484L335.803,131.183z M321.783,125.04
		l1.169-1.94l9.173,5.525l-1.17,1.94l-3.505-2.112l-6.149,10.209l-2.179-1.311l6.149-10.21L321.783,125.04z M318.999,121.09
		l-5.547,10.578l5.068,2.659l-1.043,1.988l-7.304-3.831l6.59-12.565L318.999,121.09z M310.348,116.984l-1.086,14.952l-2.476-1.05
		l0.33-4.437l-3.845-1.632l-2.927,3.334l-2.422-1.028l9.98-11.177L310.348,116.984z M301.776,113.513l-0.703,2.133l-5.229-1.725
		l-1.077,3.266l4.944,1.63l-0.695,2.114l-4.946-1.631l-1.262,3.831l5.511,1.817l-0.704,2.133l-7.907-2.606l4.442-13.477
		L301.776,113.513z M280.371,107.515l2.458,0.58l-1.289,5.456l5.533,1.308l1.289-5.456l2.476,0.585l-3.265,13.813l-2.475-0.585
		l1.443-6.114l-5.533-1.308l-1.445,6.113l-2.456-0.581L280.371,107.515z M265.155,105.399l1.553,4.11
		c0.31,0.815,0.548,1.478,0.767,2.125c0.308-0.496,0.64-0.999,1.006-1.554l2.691-4.013l2.883,0.321l-5.661,7.615l-0.663,5.956
		l-2.528-0.281l0.661-5.941l-3.572-8.657L265.155,105.399z M255.192,104.804l2.521,0.121l-0.568,11.934l5.718,0.272l-0.107,2.244
		l-8.239-0.394L255.192,104.804z M251.944,104.793l0.233,14.187l-2.524,0.041l-0.232-14.186L251.944,104.793z M236.081,105.582
		l2.918,6.527c0.525,1.22,0.937,2.231,1.272,3.13c0.194-0.932,0.451-2,0.794-3.298l1.927-6.922l2.848-0.233l2.032,14.071
		l-2.479,0.202l-0.865-6.208c-0.146-1.076-0.311-2.302-0.447-3.469c-0.226,0.939-0.482,1.929-0.774,2.986l-1.902,6.936l-1.869,0.153
		l-2.791-6.443c-0.44-1.025-0.81-1.92-1.126-2.729c0.043,1.107,0.08,2.289,0.104,3.426l0.116,6.127l-2.44,0.2l-0.166-14.223
		L236.081,105.582z M222.82,107.619l2.611-0.492l7.39,13.044l-2.642,0.5l-2.188-3.875l-4.105,0.775l-0.585,4.399l-2.585,0.488
		L222.82,107.619z M218.118,108.572l0.573,2.171l-5.304,1.399l0.934,3.536l4.899-1.294l0.569,2.152l-4.901,1.293l1.546,5.86
		l-2.439,0.645l-3.619-13.719L218.118,108.572z M192.729,117.153c1.088-0.631,2.221-1.182,3.371-1.635
		c2.35-0.928,4.337-1.076,5.951-0.442c1.693,0.648,2.955,1.997,3.748,4.004c0.836,2.116,0.875,4.142,0.114,5.859
		c-0.751,1.733-2.487,3.178-5.018,4.177c-1.082,0.429-2.099,0.771-3.022,1.02l-0.343,0.092l-5.097-12.903L192.729,117.153z
		 M181.589,122.456l7.109,4.165c0.957,0.562,1.834,1.117,2.649,1.679c-0.595-1.029-1.149-2.07-1.744-3.225l-2.751-5.333l2.155-1.111
		l6.504,12.608l-2.103,1.084l-7.084-4.203c-1.13-0.67-2.086-1.271-2.915-1.838c0.554,0.986,1.124,2.052,1.808,3.379l2.806,5.439
		l-2.155,1.111l-6.505-12.61L181.589,122.456z M173.2,127.382l11.746,9.317l-2.261,1.454l-3.482-2.77l-3.514,2.26l1.109,4.295
		l-2.214,1.423l-3.618-14.541L173.2,127.382z M153.145,142.68c0.831-0.943,1.732-1.823,2.68-2.618
		c1.953-1.639,3.76-2.39,5.504-2.302c1.811,0.082,3.434,0.96,4.821,2.613c1.461,1.742,2.139,3.651,1.961,5.52
		c-0.165,1.881-1.353,3.801-3.438,5.549c-0.894,0.75-1.75,1.397-2.543,1.923l-0.295,0.196l-8.918-10.627L153.145,142.68z
		 M146.993,148.406l8.42,8.471l4.06-4.036l1.582,1.594l-5.849,5.814l-10.003-10.064L146.993,148.406z M143.177,152.4l10.522,9.518
		l-1.692,1.872l-10.523-9.519L143.177,152.4z M134.237,163.05l4.396,3.475l3.524-4.458l-4.395-3.476l1.577-1.997l11.129,8.801
		l-1.577,1.994l-4.926-3.894l-3.524,4.457l4.925,3.894l-1.564,1.979l-11.129-8.799L134.237,163.05z M114.021,198.779
		c0.99-2.553,3.125-4.018,5.859-4.018c1.023,0,2.083,0.209,3.151,0.624c2.129,0.825,3.671,2.141,4.458,3.806
		c0.73,1.546,0.766,3.343,0.101,5.059c-0.971,2.508-3.175,4.006-5.895,4.006c-1.019,0-2.073-0.208-3.133-0.62
		c-2.018-0.781-3.519-2.056-4.34-3.688C113.418,202.354,113.348,200.519,114.021,198.779z M111.238,207.121l2.158,0.623l-1.52,5.269
		l3.513,1.013l1.404-4.868l2.138,0.615l-1.404,4.869l5.824,1.68l-0.701,2.424l-13.631-3.932L111.238,207.121z M107.301,222.108
		l2.211,0.394l-0.961,5.419l3.385,0.599l0.909-5.125l2.191,0.388l-0.91,5.127l3.973,0.704l1.013-5.714l2.211,0.393l-1.455,8.198
		l-13.969-2.479L107.301,222.108z M104.937,236.024c0.187-1.968,0.78-3.014,0.958-3.286l0.178-0.275l2.104,0.848l-0.244,0.4
		c-0.396,0.65-0.665,1.527-0.755,2.468c-0.138,1.446,0.202,2.697,0.984,3.615c0.805,0.947,2.071,1.528,3.661,1.68
		c3.112,0.293,5.135-1.295,5.418-4.254c0.093-0.974-0.008-2.002-0.263-2.685l-0.17-0.454l2.196-0.354l0.116,0.301
		c0.264,0.684,0.487,2.03,0.321,3.763c-0.375,3.914-3.007,6.346-6.869,6.346c-0.304,0-0.618-0.016-0.941-0.047
		c-2.152-0.205-3.934-1.089-5.15-2.557C105.266,240.068,104.731,238.163,104.937,236.024z M104.254,254.326l7.032-4.294
		c0.948-0.578,1.853-1.088,2.732-1.539c-1.087,0.035-2.283,0.035-3.666,0.012l-6-0.099l0.04-2.425l14.186,0.233l-0.039,2.365
		l-7.054,4.253c-1.125,0.681-2.107,1.238-2.999,1.7c1.156-0.022,2.357-0.019,3.833,0.005l6.12,0.102l-0.041,2.424l-14.186-0.232
		L104.254,254.326z M104.777,264.239l13.697-6.104l0.243,2.678l-4.068,1.806l0.377,4.161l4.323,1.004l0.237,2.623l-14.569-3.521
		L104.777,264.239z M105.848,273.607l14.021-2.172l0.387,2.492l-14.021,2.175L105.848,273.607z M107.671,283.614l11.686-2.457
		l-1.177-5.6l2.198-0.461l1.696,8.068l-13.883,2.918L107.671,283.614z M110.24,293.68l11.482-3.28l-1.571-5.503l2.158-0.616
		l2.266,7.93l-13.641,3.896L110.24,293.68z M114.168,305.255l-0.936-2.484l11.572-9.527l0.947,2.515l-3.438,2.822l1.471,3.909
		l4.431-0.182l0.928,2.463L114.168,305.255z M134.537,188.511l-0.9,1.807l-0.324,0.017c-0.475,0-1.428-0.185-3.286-0.639
		c-1.69-0.432-2.396-0.212-3.083,1.046l-0.542,1.09l5.196,2.585l-1.125,2.26l-12.479-6.209l0.083-0.314
		c0.229-0.86,0.699-2.046,1.258-3.171c0.87-1.746,1.769-2.726,2.916-3.176c0.918-0.374,2.053-0.301,3.069,0.206
		c1.361,0.677,2.147,1.914,2.195,3.396c0.782-0.412,1.783-0.472,3.007-0.177c1.626,0.384,3.021,0.703,3.603,0.703h0.643
		L134.537,188.511z M135.365,181.693c-1.396,0-2.811-0.46-4.205-1.368c-3.667-2.388-4.57-6.603-2.194-10.25
		c1.081-1.66,2.089-2.309,2.373-2.468l0.285-0.161l1.471,1.725l-0.4,0.241c-0.655,0.395-1.299,1.048-1.813,1.838
		c-1.649,2.534-1.028,5.092,1.663,6.844c2.58,1.68,5.16,1.214,6.771-1.259c0.534-0.819,0.922-1.777,1.013-2.5l0.061-0.48l2.11,0.704
		l-0.037,0.32c-0.083,0.729-0.511,2.027-1.458,3.483C139.602,180.51,137.6,181.693,135.365,181.693z M202.071,391.035
		c-0.775,0-1.592-0.159-2.431-0.474c-2.022-0.758-5.105-2.858-3.026-8.404l3.241-8.645l2.578,0.967l-3.256,8.688
		c-0.993,2.649-0.509,4.493,1.359,5.194c2.01,0.752,3.569-0.251,4.586-2.967l3.257-8.686l2.578,0.966l-3.209,8.562
		C206.26,390.203,203.84,391.035,202.071,391.035z M222.886,383.927l-0.356-0.306c-0.655-0.56-1.584-1.016-2.614-1.284
		c-0.578-0.151-1.145-0.228-1.684-0.228c-2.477,0-4.319,1.624-5.057,4.455c-0.434,1.662-0.323,3.162,0.32,4.343
		c0.649,1.193,1.843,2.046,3.452,2.465c1.045,0.273,2.25,0.348,3.038,0.189l0.476-0.095v2.395l-0.314,0.066
		c-0.322,0.068-0.73,0.104-1.179,0.104c-0.643,0-1.688-0.073-3.019-0.418c-4.591-1.198-6.766-5.006-5.543-9.701
		c1.006-3.857,3.939-6.252,7.656-6.252c0.782,0,1.59,0.107,2.399,0.318c2.135,0.556,3.177,1.392,3.445,1.634l0.242,0.22
		L222.886,383.927z M244.233,399.755l-2.676-0.279l0.324-6.967c0.065-1.293,0.141-2.783,0.241-4.179
		c-0.471,1.06-0.992,2.176-1.576,3.37l-3.51,7.215l-2.021-0.211l-1.736-7.634c-0.301-1.339-0.54-2.487-0.73-3.516
		c-0.19,1.313-0.409,2.728-0.631,4.074l-1.128,6.726l-2.633-0.274l2.731-15.598l3.106,0.323l1.86,7.757
		c0.343,1.517,0.594,2.76,0.781,3.866c0.418-1.023,0.938-2.188,1.616-3.617l3.531-7.194l3.106,0.321L244.233,399.755z
		 M248.158,399.777l-0.259-15.796l8.896-0.145l0.04,2.419l-6.165,0.102l0.064,3.946l5.832-0.096l0.039,2.397l-5.831,0.096
		l0.075,4.614l6.499-0.106l0.039,2.42L248.158,399.777z M267.99,398.847l-0.131-0.187c-0.281-0.398-0.678-1.438-1.368-3.588
		c-0.577-1.861-1.317-2.439-2.853-2.365l-1.408,0.125l0.574,6.475l-2.722,0.242l-1.37-15.464l0.311-0.094
		c0.957-0.285,2.36-0.53,3.755-0.653c2.177-0.191,3.61,0.087,4.706,0.915c0.906,0.668,1.47,1.74,1.583,3.017
		c0.149,1.704-0.589,3.183-2.004,4.083c0.872,0.49,1.535,1.422,1.976,2.78c0.624,1.895,1.129,3.387,1.47,3.902l0.366,0.557
		L267.99,398.847z M284.19,395.682c-0.651,0.49-2.026,1.139-3.937,1.491c-0.586,0.107-1.169,0.162-1.732,0.162
		c-3.869,0-6.634-2.469-7.396-6.606c-0.88-4.793,1.834-8.754,6.601-9.631c0.713-0.131,1.397-0.197,2.034-0.197
		c0.925,0,1.512,0.139,1.78,0.222l0.312,0.097l-0.256,2.43l-0.451-0.124c-0.82-0.226-1.872-0.25-2.914-0.059
		c-3.361,0.618-4.976,3.117-4.319,6.683c0.632,3.44,3.019,5.177,6.299,4.571c1.083-0.198,2.169-0.625,2.832-1.113l0.391-0.287
		l1.014,2.169L284.19,395.682z M287.321,395.422l-4.243-15.221l8.572-2.391l0.648,2.333l-5.939,1.656l1.06,3.802l5.619-1.566
		l0.644,2.31l-5.618,1.567l1.241,4.445l6.261-1.747l0.649,2.332L287.321,395.422z M308.51,386.1
		c-0.849,1.924-2.795,3.521-5.622,4.617c-1.217,0.473-2.356,0.849-3.388,1.118l-0.343,0.091l-5.583-14.41l0.296-0.169
		c1.221-0.699,2.494-1.306,3.781-1.805c2.626-1.018,4.843-1.169,6.633-0.45c1.878,0.733,3.272,2.241,4.141,4.484
		C309.341,381.939,309.37,384.195,308.51,386.1z M252.129,366.51c-63.071,0-114.383-51.312-114.383-114.382
		c0-32.433,13.569-61.752,35.326-82.587c-0.117-1.055-0.183-2.124-0.183-3.21c0-15.904,12.939-28.843,28.844-28.843
		c6.21,0,11.964,1.979,16.677,5.332c10.664-3.296,21.987-5.075,33.72-5.075c21.468,0,41.569,5.949,58.752,16.278
		c2.821,1.268,5.406,2.969,7.66,5.03c29.021,20.767,47.972,54.749,47.972,93.076C366.512,315.199,315.2,366.51,252.129,366.51z
		 M367.935,187.542c-0.557-1.038-1.015-2.006-1.365-2.882l-0.131-0.33l12.219-6.561l0.206,0.273c0.75,1.003,1.43,2.065,2.015,3.156
		c1.207,2.246,1.576,4.161,1.131,5.858c-0.446,1.755-1.639,3.165-3.539,4.186c-1.328,0.714-2.649,1.075-3.927,1.075
		c-0.645,0-1.275-0.094-1.876-0.28C370.859,191.494,369.223,189.939,367.935,187.542z M385.525,190.535l3.171,7.375l-2.064,0.887
		l-2.173-5.057l-3.158,1.357l2.056,4.783l-2.044,0.879l-2.056-4.783l-3.706,1.593l2.291,5.331l-2.062,0.888l-3.29-7.65
		L385.525,190.535z M387.352,309.708l-2.115-0.809l1.462-3.824l-11.136-4.256l0.908-2.376l11.137,4.257l1.454-3.804l2.115,0.81
		L387.352,309.708z M394.103,289.8l-7.905,2.335c-1.064,0.313-2.069,0.573-3.038,0.783c1.159,0.27,2.299,0.579,3.546,0.936
		l5.775,1.645l-0.665,2.332l-13.648-3.89l0.647-2.275l7.915-2.29c1.263-0.367,2.357-0.65,3.337-0.867
		c-1.103-0.272-2.269-0.587-3.703-0.996l-5.888-1.676l0.664-2.333l13.649,3.889L394.103,289.8z M395.44,284.452l-2.205-0.426
		l1.044-5.407l-3.376-0.652l-0.988,5.114l-2.186-0.424l0.988-5.112l-3.961-0.766l-1.103,5.699l-2.205-0.427l1.58-8.178l13.935,2.694
		L395.44,284.452z M398.595,262.75l-6.938,1.735c-1.289,0.303-2.355,0.531-3.303,0.704c0.888,0.356,1.893,0.795,3.107,1.357
		l6.48,3.105l-0.269,2.844l-14.208-0.454l0.233-2.475l6.264,0.229c1.08,0.045,2.317,0.095,3.492,0.166
		c-0.879-0.385-1.808-0.81-2.802-1.282l-6.499-3.085l0.176-1.866l6.833-1.623c1.085-0.256,2.031-0.464,2.883-0.634
		c-1.095-0.149-2.265-0.32-3.391-0.494l-6.055-0.954l0.23-2.438l14.033,2.319L398.595,262.75z"/>
	<path fill="#FFFFFF" d="M220.696,144.626c9.977-2.922,20.523-4.496,31.433-4.496c17.698,0,34.447,4.133,49.343,11.474
		c3.327,0.272,6.494,1.11,9.408,2.419c-17.184-10.329-37.285-16.278-58.751-16.278c-11.733,0-23.057,1.778-33.721,5.075
		C219.201,143.384,219.966,143.987,220.696,144.626z"/>
	<path fill="#FFFFFF" d="M252.129,85.81c-91.708,0-166.318,74.61-166.318,166.318c0,91.707,74.61,166.317,166.318,166.317
		c91.707,0,166.318-74.608,166.318-166.317C418.447,160.419,343.836,85.81,252.129,85.81z M252.129,416.061
		c-90.394,0-163.934-73.54-163.934-163.933c0-90.394,73.54-163.934,163.934-163.934c90.393,0,163.934,73.54,163.934,163.934
		C416.062,342.521,342.521,416.061,252.129,416.061z"/>
	<path fill="#FFFFFF" d="M318.541,159.053c2.411,2.203,4.445,4.809,6.001,7.71c24.2,20.56,39.585,51.198,39.585,85.366
		c0,61.756-50.242,111.997-111.998,111.997c-61.756,0-111.999-50.241-111.999-111.997c0-31.164,12.798-59.391,33.409-79.714
		c-0.203-0.942-0.36-1.9-0.468-2.874c-21.757,20.835-35.326,50.155-35.326,82.587c0,63.07,51.312,114.382,114.383,114.382
		s114.383-51.312,114.383-114.382C366.512,213.801,347.562,179.819,318.541,159.053z"/>
	<path fill="#FFFFFF" d="M123.243,303.308l-1.874-4.98l3.438-2.823l-0.355-0.942l-10.274,8.46l0.535,1.42l13.296-0.432l-0.333-0.886
		L123.243,303.308z M118.05,303.575c-0.73,0.039-1.52,0.109-2.475,0.22l-0.312,0.036l-0.212-0.581l0.38-0.313
		c0.602-0.422,1.225-0.858,1.874-1.394l3.575-2.938l1.811,4.814L118.05,303.575z"/>
	<path fill="#FFFFFF" d="M123.785,302.49l-1.472-3.909l3.438-2.822l-0.947-2.515l-11.572,9.527l0.936,2.484l14.975-0.485
		l-0.928-2.463L123.785,302.49z M114.712,304.443l-0.535-1.421l10.274-8.459l0.355,0.943l-3.438,2.821l1.874,4.981l4.432-0.183
		l0.333,0.885L114.712,304.443z"/>
	<path fill="#FFFFFF" d="M117.305,301.542c-0.648,0.535-1.272,0.972-1.874,1.394l-0.38,0.313l0.212,0.581l0.312-0.036
		c0.955-0.112,1.744-0.182,2.475-0.22l4.642-0.155l-1.811-4.814L117.305,301.542z M116.908,302.859
		c0.294-0.217,0.595-0.447,0.902-0.701l2.716-2.232l1.03,2.735l-3.541,0.119C117.661,302.798,117.296,302.825,116.908,302.859z"/>
	<polygon fill="#FFFFFF" points="123.592,291.664 121.764,285.264 121.134,285.442 122.706,290.946 111.223,294.226 111.48,295.124 
			"/>
	<path fill="#FFFFFF" d="M122.31,284.28l-2.158,0.616l1.571,5.502l-11.482,3.281l0.694,2.427l13.64-3.896L122.31,284.28z
		 M122.706,290.946l-1.572-5.504l0.63-0.18l1.828,6.399l-12.111,3.462l-0.257-0.897L122.706,290.946z"/>
	<polygon fill="#FFFFFF" points="121.132,282.549 119.763,276.037 119.121,276.171 120.298,281.772 108.613,284.228 
		108.804,285.141 	"/>
	<path fill="#FFFFFF" d="M120.377,275.096l-2.198,0.461l1.177,5.6l-11.686,2.457l0.519,2.469l13.883-2.918L120.377,275.096z
		 M120.298,281.772l-1.177-5.601l0.642-0.135l1.369,6.513l-12.328,2.592l-0.191-0.913L120.298,281.772z"/>
	
		<rect x="112.585" y="267.46" transform="matrix(-0.1535 -0.9881 0.9881 -0.1535 -140.1008 427.5058)" fill="#FFFFFF" width="0.935" height="12.598"/>
	<path fill="#FFFFFF" d="M119.868,271.433l-14.021,2.174l0.386,2.493l14.021-2.174L119.868,271.433z M119.205,272.34l0.144,0.924
		l-12.451,1.931l-0.143-0.924L119.205,272.34z"/>
	<path fill="#FFFFFF" d="M118.695,269.372l-0.085-0.943l-4.323-1.006l-0.481-5.3l4.068-1.806l-0.091-1.005l-12.163,5.422
		l0.138,1.511L118.695,269.372z M106.802,265c0.708-0.251,1.44-0.511,2.229-0.861l4.229-1.879l0.464,5.122l-4.517-1.085
		c-0.701-0.154-1.48-0.298-2.445-0.448l-0.305-0.047l-0.061-0.617L106.802,265z"/>
	<path fill="#FFFFFF" d="M119.349,267.783l-4.323-1.004l-0.377-4.161l4.068-1.806l-0.243-2.678l-13.696,6.104l0.24,2.646
		l14.569,3.521L119.349,267.783z M117.784,259.313l0.091,1.004l-4.068,1.806l0.481,5.3l4.323,1.006l0.085,0.943l-12.937-3.126
		l-0.138-1.512L117.784,259.313z"/>
	<path fill="#FFFFFF" d="M106.762,265.849c0.965,0.15,1.745,0.294,2.445,0.448l4.517,1.085l-0.464-5.122l-4.229,1.879
		c-0.788,0.351-1.521,0.61-2.229,0.861l-0.403,0.185l0.061,0.615L106.762,265.849z M112.569,263.437l0.264,2.914l-3.446-0.829
		c-0.344-0.075-0.702-0.148-1.09-0.219c0.341-0.132,0.692-0.274,1.057-0.436L112.569,263.437z"/>
	<path fill="#FFFFFF" d="M106.804,255.381l-0.309,0.014l-0.189-0.631l0.301-0.203c1.259-0.562,2.68-1.326,4.468-2.407l6.677-4.026
		l0.018-1.13l-12.596-0.208l-0.014,0.835l5.206,0.086c2.174,0.035,3.824,0.012,5.472-0.107l0.273-0.02l0.287,0.615l-0.352,0.205
		c-1.384,0.613-2.806,1.368-4.345,2.307l-6.659,4.066l-0.021,1.271l12.597,0.208l0.014-0.834l-5.325-0.088
		C110.11,255.295,108.506,255.308,106.804,255.381z"/>
	<path fill="#FFFFFF" d="M118.439,254.639l-6.12-0.102c-1.476-0.023-2.677-0.027-3.833-0.005c0.892-0.462,1.874-1.02,2.999-1.7
		l7.054-4.253l0.039-2.365l-14.186-0.233l-0.04,2.425l6,0.099c1.383,0.023,2.579,0.023,3.666-0.012
		c-0.879,0.451-1.784,0.961-2.732,1.539l-7.032,4.294l-0.042,2.505l14.186,0.232L118.439,254.639z M117.617,256.256l-12.597-0.209
		l0.021-1.271l6.659-4.066c1.54-0.938,2.961-1.692,4.346-2.307l0.351-0.205l-0.287-0.615l-0.274,0.02
		c-1.648,0.12-3.298,0.143-5.472,0.107l-5.206-0.085l0.014-0.835l12.596,0.207l-0.019,1.131l-6.677,4.026
		c-1.789,1.08-3.208,1.845-4.467,2.405l-0.301,0.204l0.19,0.63l0.309-0.013c1.703-0.073,3.306-0.085,5.501-0.048l5.325,0.087
		L117.617,256.256z"/>
	<path fill="#FFFFFF" d="M111.706,243.3c3.921,0.374,6.583-1.829,6.943-5.585c0.13-1.354,0.001-2.447-0.174-3.097l-0.612,0.1
		c0.188,0.745,0.253,1.688,0.167,2.579c-0.301,3.137-2.353,5.009-5.491,5.009c-0.258,0-0.522-0.013-0.794-0.039
		c-1.8-0.172-3.249-0.849-4.191-1.956c-0.924-1.086-1.328-2.54-1.168-4.206c0.084-0.877,0.31-1.711,0.646-2.398l-0.629-0.254
		c-0.216,0.431-0.544,1.283-0.675,2.648c-0.184,1.923,0.288,3.626,1.365,4.926C108.171,242.329,109.767,243.114,111.706,243.3z"/>
	<path fill="#FFFFFF" d="M111.63,244.091c0.323,0.031,0.637,0.046,0.941,0.046c3.862,0,6.494-2.432,6.869-6.346
		c0.166-1.731-0.058-3.079-0.321-3.763l-0.116-0.3l-2.196,0.354l0.17,0.453c0.254,0.683,0.355,1.711,0.263,2.685
		c-0.284,2.959-2.306,4.547-5.418,4.255c-1.59-0.152-2.856-0.733-3.661-1.68c-0.782-0.919-1.122-2.17-0.984-3.615
		c0.091-0.942,0.36-1.818,0.755-2.469l0.244-0.399l-2.104-0.849l-0.178,0.275c-0.178,0.273-0.771,1.319-0.958,3.287
		c-0.206,2.139,0.329,4.043,1.543,5.509C107.697,243.001,109.477,243.885,111.63,244.091z M105.728,236.101
		c0.13-1.365,0.458-2.218,0.675-2.648l0.628,0.254c-0.334,0.687-0.561,1.521-0.646,2.398c-0.159,1.665,0.245,3.12,1.169,4.206
		c0.942,1.108,2.391,1.784,4.191,1.956c0.271,0.026,0.536,0.039,0.794,0.039c3.138,0,5.191-1.872,5.492-5.009
		c0.085-0.891,0.021-1.834-0.167-2.579l0.612-0.1c0.177,0.649,0.304,1.743,0.174,3.097c-0.36,3.756-3.022,5.96-6.943,5.585
		c-1.939-0.186-3.535-0.972-4.615-2.273C106.015,239.727,105.543,238.024,105.728,236.101z"/>
	<polygon fill="#FFFFFF" points="119.756,224.822 118.743,230.535 113.205,229.553 114.115,224.427 113.489,224.316 112.58,229.442 
		107.63,228.565 108.591,223.145 107.945,223.03 106.822,229.369 119.226,231.569 120.403,224.937 	"/>
	<path fill="#FFFFFF" d="M121.324,224.292l-2.211-0.393l-1.013,5.713l-3.973-0.704l0.91-5.126l-2.191-0.388l-0.909,5.125l-3.385-0.6
		l0.961-5.419l-2.211-0.393l-1.401,7.904l13.968,2.478L121.324,224.292z M106.822,229.369l1.124-6.339l0.646,0.115l-0.961,5.42
		l4.95,0.877l0.91-5.126l0.626,0.111l-0.91,5.126l5.537,0.981l1.014-5.713l0.646,0.115l-1.176,6.633L106.822,229.369z"/>
	<polygon fill="#FFFFFF" points="117.947,210.317 117.337,210.141 115.933,215.01 110.892,213.556 112.412,208.287 111.782,208.105 
		110.003,214.272 122.108,217.763 122.367,216.866 116.543,215.186 	"/>
	<path fill="#FFFFFF" d="M123.351,216.323l-5.824-1.68l1.404-4.869l-2.138-0.615l-1.404,4.868l-3.513-1.013l1.52-5.27l-2.158-0.623
		l-2.219,7.695l13.631,3.931L123.351,216.323z M122.108,217.763l-12.104-3.491l1.779-6.167l0.629,0.182l-1.52,5.27l5.041,1.454
		l1.404-4.869l0.61,0.176l-1.403,4.869l5.823,1.68L122.108,217.763z"/>
	<path fill="#FFFFFF" d="M114.932,203.59c0.732,1.453,2.087,2.596,3.918,3.304c0.968,0.375,1.926,0.565,2.847,0.565
		c2.378,0,4.305-1.308,5.153-3.499c0.585-1.511,0.558-3.085-0.079-4.432c-0.698-1.476-2.09-2.654-4.025-3.403
		c-0.977-0.378-1.94-0.571-2.864-0.571c-2.388,0-4.253,1.28-5.118,3.511C114.171,200.593,114.23,202.201,114.932,203.59z
		 M115.309,199.363c0.683-1.762,2.288-2.773,4.405-2.773c0.894,0,1.838,0.183,2.732,0.53c1.506,0.583,2.729,1.511,3.445,2.614
		c0.794,1.223,0.939,2.577,0.421,3.914c-0.685,1.767-2.295,2.779-4.418,2.779c-0.876,0-1.81-0.182-2.7-0.527
		C116.417,204.823,114.139,202.385,115.309,199.363z"/>
	<path fill="#FFFFFF" d="M118.563,207.636c1.06,0.411,2.114,0.62,3.133,0.62c2.719,0,4.923-1.498,5.895-4.006
		c0.665-1.716,0.629-3.513-0.101-5.059c-0.787-1.665-2.329-2.98-4.457-3.806c-1.068-0.414-2.129-0.624-3.151-0.624
		c-2.734,0-4.87,1.464-5.859,4.018c-0.674,1.739-0.603,3.576,0.201,5.169C115.044,205.58,116.545,206.855,118.563,207.636z
		 M119.88,195.556c0.924,0,1.888,0.192,2.864,0.57c1.936,0.75,3.328,1.927,4.025,3.403c0.637,1.347,0.665,2.921,0.079,4.433
		c-0.848,2.191-2.774,3.499-5.153,3.499c-0.92,0-1.877-0.19-2.847-0.565c-1.831-0.709-3.186-1.853-3.918-3.305
		c-0.701-1.391-0.761-2.997-0.169-4.524C115.627,196.836,117.492,195.556,119.88,195.556z"/>
	<path fill="#FFFFFF" d="M119.193,205.898c0.89,0.345,1.823,0.527,2.7,0.527c2.123,0,3.733-1.013,4.418-2.779
		c0.518-1.337,0.373-2.69-0.421-3.914c-0.715-1.103-1.938-2.03-3.445-2.614c-0.894-0.347-1.838-0.529-2.732-0.529
		c-2.117,0-3.722,1.01-4.405,2.773C114.139,202.385,116.417,204.823,119.193,205.898z M116.05,199.65
		c0.763-1.97,2.623-2.266,3.663-2.266c0.796,0,1.642,0.165,2.445,0.476c1.351,0.523,2.439,1.342,3.064,2.305
		c0.649,1,0.77,2.105,0.347,3.194c-0.56,1.443-1.9,2.271-3.676,2.271c-0.779,0-1.614-0.164-2.413-0.474
		C117.073,204.225,115.078,202.161,116.05,199.65z"/>
	<path fill="#FFFFFF" d="M130.337,188.008c-1.329-0.322-2.285-0.175-2.927,0.454l-0.205,0.201l-0.506-0.258l-0.015-0.307
		c0.202-1.475-0.441-2.736-1.719-3.372c-0.813-0.406-1.7-0.472-2.42-0.179c-0.954,0.375-1.724,1.235-2.499,2.791
		c-0.471,0.948-0.875,1.934-1.112,2.71l11.181,5.564l0.417-0.836l-5.195-2.585l0.903-1.815c0.63-1.154,1.409-1.662,2.535-1.662
		c0.414,0,0.887,0.069,1.445,0.212c0.977,0.238,2.299,0.549,2.922,0.605l0.422-0.849
		C132.794,188.582,131.703,188.331,130.337,188.008z M125.838,190.022l-0.966,1.939l-5.001-2.488l0.054-0.294
		c0.071-0.389,0.315-1.026,0.653-1.706c1.004-1.964,2.523-2.632,4.147-1.822C126.303,186.434,126.75,188.191,125.838,190.022z"/>
	<path fill="#FFFFFF" d="M130.522,187.235c-1.224-0.296-2.224-0.235-3.006,0.176c-0.049-1.482-0.834-2.72-2.195-3.396
		c-1.016-0.507-2.151-0.58-3.07-0.205c-1.147,0.45-2.046,1.429-2.916,3.176c-0.559,1.125-1.029,2.31-1.258,3.171l-0.083,0.314
		l12.48,6.21l1.125-2.26l-5.196-2.585l0.542-1.09c0.687-1.258,1.393-1.478,3.083-1.046c1.858,0.453,2.811,0.638,3.286,0.638
		l0.324-0.017l0.9-1.807l0.229-0.574h-0.642C133.543,187.938,132.148,187.62,130.522,187.235z M130.219,188.926
		c-0.559-0.142-1.031-0.212-1.445-0.212c-1.126,0-1.905,0.509-2.535,1.662l-0.903,1.815l5.195,2.585l-0.417,0.836l-11.181-5.564
		c0.238-0.776,0.642-1.763,1.112-2.71c0.775-1.557,1.545-2.417,2.499-2.791c0.72-0.293,1.606-0.227,2.42,0.179
		c1.278,0.636,1.921,1.896,1.719,3.372l0.015,0.307l0.506,0.258l0.205-0.201c0.642-0.629,1.597-0.777,2.927-0.454
		c1.366,0.322,2.457,0.573,3.228,0.675l-0.422,0.849C132.518,189.476,131.197,189.165,130.219,188.926z"/>
	<path fill="#FFFFFF" d="M124.727,185.65c-1.624-0.809-3.144-0.142-4.147,1.822c-0.337,0.68-0.582,1.317-0.653,1.706l-0.054,0.294
		l5.001,2.488l0.966-1.94C126.75,188.191,126.303,186.434,124.727,185.65z M120.784,189.038c0.089-0.283,0.253-0.699,0.506-1.208
		c0.402-0.787,1.094-1.724,2.104-1.724c0.309,0,0.638,0.085,0.979,0.257c1.186,0.589,1.474,1.856,0.754,3.305l-0.611,1.227
		L120.784,189.038z"/>
	<path fill="#FFFFFF" d="M140.334,177.928c0.742-1.139,1.136-2.168,1.282-2.825l-0.588-0.196c-0.179,0.748-0.56,1.614-1.048,2.364
		c-1.12,1.722-2.643,2.632-4.403,2.632c-1.139,0-2.306-0.384-3.468-1.141c-3.062-1.994-3.787-5.038-1.895-7.945
		c0.479-0.736,1.065-1.372,1.682-1.826l-0.439-0.515c-0.39,0.281-1.076,0.882-1.825,2.034c-2.152,3.307-1.364,6.984,1.963,9.151
		c1.262,0.822,2.53,1.238,3.771,1.238C137.323,180.898,139.087,179.843,140.334,177.928z"/>
	<path fill="#FFFFFF" d="M141.001,178.362c0.948-1.456,1.375-2.754,1.458-3.483l0.037-0.32l-2.11-0.704l-0.06,0.48
		c-0.091,0.724-0.479,1.682-1.013,2.501c-1.611,2.473-4.192,2.939-6.771,1.259c-2.69-1.752-3.312-4.311-1.662-6.844
		c0.514-0.791,1.158-1.443,1.813-1.838l0.401-0.242l-1.472-1.725l-0.284,0.161c-0.283,0.159-1.292,0.809-2.373,2.468
		c-2.375,3.648-1.472,7.863,2.195,10.251c1.393,0.907,2.808,1.367,4.204,1.367C137.6,181.693,139.602,180.51,141.001,178.362z
		 M131.595,179.66c-3.328-2.166-4.116-5.844-1.963-9.15c0.75-1.152,1.435-1.753,1.825-2.034l0.439,0.515
		c-0.617,0.455-1.204,1.089-1.682,1.826c-1.893,2.906-1.167,5.951,1.895,7.945c1.162,0.756,2.329,1.141,3.468,1.141
		c1.76,0,3.283-0.911,4.403-2.632c0.489-0.75,0.869-1.616,1.048-2.363l0.588,0.196c-0.146,0.658-0.54,1.687-1.282,2.825
		c-1.247,1.916-3.012,2.97-4.969,2.97C134.125,180.898,132.857,180.481,131.595,179.66z"/>
	<polygon fill="#FFFFFF" points="139.324,168.084 143.835,162.38 148.76,166.275 149.352,165.527 139.469,157.712 138.878,158.461 
		143.273,161.937 138.762,167.641 134.367,164.166 133.788,164.899 143.671,172.711 144.249,171.979 	"/>
	<path fill="#FFFFFF" d="M145.365,171.849l-4.925-3.895l3.524-4.457l4.926,3.895l1.577-1.995l-11.129-8.801l-1.577,1.996
		l4.395,3.476l-3.524,4.458l-4.396-3.476l-1.565,1.979l11.129,8.799L145.365,171.849z M133.788,164.899l0.58-0.733l4.395,3.476
		l4.511-5.704l-4.396-3.476l0.592-0.748l9.882,7.814l-0.591,0.748l-4.926-3.894l-4.51,5.704l4.925,3.895l-0.579,0.732
		L133.788,164.899z"/>
	
		<rect x="147.121" y="151.799" transform="matrix(-0.6707 0.7418 -0.7418 -0.6707 363.8424 154.656)" fill="#FFFFFF" width="0.934" height="12.599"/>
	<path fill="#FFFFFF" d="M153.699,161.918l-10.522-9.518l-1.693,1.871l10.523,9.519L153.699,161.918z M142.605,154.215l0.626-0.693
		l9.345,8.452l-0.627,0.693L142.605,154.215z"/>
	<polygon fill="#FFFFFF" points="159.932,154.432 159.47,153.967 155.41,158.001 146.99,149.53 146.328,150.188 155.209,159.126 	
		"/>
	<path fill="#FFFFFF" d="M161.056,154.436l-1.582-1.594l-4.061,4.035l-8.42-8.471l-1.789,1.779l10.002,10.064L161.056,154.436z
		 M146.99,149.53l8.42,8.471l4.059-4.035l0.462,0.465l-4.722,4.694l-8.881-8.937L146.99,149.53z"/>
	<path fill="#FFFFFF" d="M153.968,142.95l8.017,9.555c0.685-0.471,1.416-1.033,2.177-1.672c1.919-1.61,3.011-3.344,3.157-5.013
		c0.158-1.656-0.458-3.362-1.779-4.938c-1.256-1.496-2.646-2.257-4.25-2.329c-0.082-0.004-0.161-0.006-0.239-0.006
		c-1.473,0-3.015,0.694-4.716,2.122C155.503,141.368,154.708,142.133,153.968,142.95z M156.766,141.06
		c2.826-2.37,5.818-2.159,8.039,0.522c2.482,2.958,2.203,6.085-0.766,8.577c-0.661,0.553-1.112,0.889-1.463,1.089l-0.288,0.165
		l-7.214-8.599l0.197-0.253C155.516,142.243,155.977,141.722,156.766,141.06z"/>
	<path fill="#FFFFFF" d="M162.13,153.366c0.793-0.526,1.649-1.173,2.543-1.923c2.084-1.749,3.273-3.668,3.437-5.549
		c0.179-1.869-0.5-3.778-1.961-5.52c-1.388-1.653-3.011-2.532-4.821-2.613c-1.743-0.088-3.551,0.662-5.504,2.302
		c-0.948,0.795-1.85,1.675-2.681,2.618l-0.227,0.255l8.917,10.627L162.13,153.366z M161.051,138.548
		c0.079,0,0.157,0.002,0.239,0.007c1.604,0.071,2.994,0.833,4.25,2.329c1.321,1.576,1.937,3.282,1.779,4.938
		c-0.146,1.669-1.238,3.402-3.157,5.012c-0.762,0.64-1.492,1.201-2.177,1.672l-8.017-9.556c0.741-0.816,1.536-1.583,2.367-2.28
		C158.036,139.242,159.579,138.548,161.051,138.548z"/>
	<path fill="#FFFFFF" d="M162.288,151.413l0.288-0.165c0.351-0.2,0.802-0.536,1.463-1.089c2.969-2.492,3.248-5.619,0.766-8.577
		c-2.219-2.682-5.212-2.894-8.039-0.522c-0.789,0.662-1.25,1.181-1.497,1.501l-0.196,0.253L162.288,151.413z M164.194,142.092
		c2.19,2.611,1.954,5.26-0.666,7.459c-0.327,0.273-0.722,0.596-1.068,0.831l-6.359-7.581c0.247-0.284,0.623-0.667,1.176-1.132
		C159.779,139.57,162.229,139.72,164.194,142.092z"/>
	<path fill="#FFFFFF" d="M175.885,141.58l-1.109-4.296l4.476-2.878l3.482,2.77l0.848-0.544l-10.43-8.272l-1.276,0.821l3.212,12.913
		L175.885,141.58z M173.424,132.26c-0.188-0.691-0.421-1.448-0.733-2.374l-0.1-0.294l0.522-0.333l0.357,0.28
		c0.547,0.509,1.113,1.035,1.784,1.568l3.624,2.879l-4.327,2.783L173.424,132.26z"/>
	<path fill="#FFFFFF" d="M176.798,141.938l-1.109-4.296l3.513-2.259l3.482,2.77l2.26-1.454l-11.746-9.317l-2.233,1.437l3.617,14.541
		L176.798,141.938z M173.152,128.359l10.43,8.272l-0.848,0.544l-3.482-2.77l-4.476,2.877l1.109,4.296l-0.795,0.512l-3.212-12.913
		L173.152,128.359z"/>
	<path fill="#FFFFFF" d="M175.254,131.106c-0.67-0.532-1.237-1.059-1.784-1.568l-0.357-0.28l-0.522,0.333l0.1,0.294
		c0.312,0.925,0.546,1.682,0.733,2.374l1.126,4.507l4.327-2.782L175.254,131.106z M173.885,130.994
		c0.274,0.242,0.563,0.487,0.875,0.735l2.754,2.188l-2.46,1.582l-0.86-3.439C174.102,131.721,174.001,131.37,173.885,130.994z"/>
	<path fill="#FFFFFF" d="M186.952,134.76l-2.441-4.734c-1.029-1.997-1.796-3.395-2.645-4.826l-0.153-0.259l0.456-0.477l0.327,0.173
		c1.09,0.844,2.436,1.734,4.234,2.799l6.707,3.979l1.004-0.519l-5.775-11.197l-0.742,0.383l2.386,4.628
		c0.896,1.735,1.694,3.21,2.682,4.77l0.143,0.225l-0.394,0.558l-0.354-0.219c-1.198-0.93-2.536-1.825-4.091-2.737l-6.732-3.944
		l-1.129,0.583l5.776,11.197L186.952,134.76z"/>
	<path fill="#FFFFFF" d="M188.023,135.101l-2.806-5.439c-0.685-1.327-1.253-2.393-1.808-3.379c0.829,0.566,1.785,1.168,2.915,1.838
		l7.084,4.203l2.102-1.084l-6.504-12.61l-2.155,1.11l2.751,5.334c0.595,1.154,1.149,2.195,1.744,3.225
		c-0.815-0.562-1.692-1.118-2.649-1.679l-7.109-4.165l-2.226,1.147l6.505,12.61L188.023,135.101z M181.564,123.362l6.732,3.944
		c1.554,0.911,2.892,1.806,4.091,2.737l0.354,0.219l0.394-0.557l-0.143-0.225c-0.988-1.56-1.787-3.035-2.682-4.77l-2.386-4.628
		l0.742-0.382l5.775,11.196l-1.005,0.519l-6.707-3.979c-1.799-1.064-3.144-1.954-4.235-2.799l-0.327-0.173l-0.456,0.477l0.153,0.259
		c0.848,1.431,1.615,2.829,2.645,4.825l2.441,4.734l-0.742,0.382l-5.776-11.196L181.564,123.362z"/>
	<path fill="#FFFFFF" d="M198.008,129.273c0.802-0.231,1.673-0.532,2.594-0.896c2.331-0.92,3.916-2.219,4.583-3.758
		c0.674-1.52,0.63-3.334-0.125-5.248c-0.718-1.817-1.797-2.98-3.296-3.555c-1.432-0.561-3.22-0.41-5.373,0.439
		c-1.008,0.398-2.005,0.874-2.967,1.415L198.008,129.273z M196.677,116.763c3.433-1.354,6.207-0.202,7.463,3.039
		c0.704,1.781,0.762,3.378,0.174,4.745c-0.594,1.378-1.811,2.438-3.616,3.151c-0.781,0.31-1.332,0.491-1.731,0.57l-0.326,0.065
		l-4.124-10.44l0.266-0.178C195.117,117.491,195.716,117.144,196.677,116.763z"/>
	<path fill="#FFFFFF" d="M197.873,130.136c0.924-0.249,1.94-0.592,3.022-1.02c2.531-0.999,4.267-2.444,5.018-4.177
		c0.761-1.717,0.722-3.743-0.114-5.859c-0.793-2.008-2.055-3.355-3.748-4.004c-1.615-0.633-3.602-0.485-5.951,0.442
		c-1.15,0.454-2.283,1.004-3.371,1.635l-0.296,0.171l5.097,12.903L197.873,130.136z M201.764,115.817
		c1.5,0.575,2.578,1.738,3.296,3.555c0.755,1.914,0.799,3.727,0.125,5.248c-0.667,1.538-2.252,2.837-4.583,3.758
		c-0.921,0.364-1.792,0.666-2.594,0.896l-4.583-11.602c0.962-0.541,1.958-1.016,2.966-1.415
		C198.544,115.407,200.332,115.256,201.764,115.817z"/>
	<path fill="#FFFFFF" d="M198.641,128.333l0.326-0.065c0.399-0.08,0.95-0.261,1.731-0.57c1.805-0.712,3.022-1.773,3.616-3.151
		c0.588-1.367,0.53-2.964-0.174-4.744c-1.256-3.242-4.03-4.394-7.463-3.04c-0.961,0.381-1.56,0.728-1.894,0.952l-0.266,0.178
		L198.641,128.333z M203.4,120.091c0.624,1.58,0.686,2.974,0.184,4.14c-0.507,1.177-1.576,2.094-3.178,2.727
		c-0.538,0.213-0.952,0.359-1.274,0.45l-3.636-9.205c0.324-0.191,0.8-0.436,1.475-0.703c0.871-0.343,1.688-0.519,2.43-0.519
		C201.709,116.984,202.849,118.672,203.4,120.091z"/>
	<polygon fill="#FFFFFF" points="215.464,123.124 213.917,117.264 218.817,115.971 218.655,115.356 213.756,116.649 
		212.417,111.576 217.72,110.177 217.552,109.543 211.347,111.181 214.562,123.363 	"/>
	<path fill="#FFFFFF" d="M216.435,123.69l-1.546-5.86l4.901-1.293l-0.569-2.152l-4.899,1.294l-0.934-3.536l5.304-1.399l-0.573-2.171
		l-7.742,2.043l3.619,13.719L216.435,123.69z M217.552,109.543l0.167,0.633l-5.302,1.399l1.339,5.073l4.899-1.293l0.162,0.615
		l-4.9,1.293l1.547,5.86l-0.902,0.239l-3.215-12.182L217.552,109.543z"/>
	<path fill="#FFFFFF" d="M228.403,115.91l2.188,3.874l0.99-0.187l-6.562-11.583l-1.491,0.281l-1.869,13.176l0.93-0.175l0.585-4.399
		L228.403,115.91z M223.809,111.733c0.087-0.723,0.153-1.512,0.21-2.476l0.019-0.312l0.608-0.11l0.248,0.437
		c0.311,0.664,0.632,1.35,1.045,2.079l2.277,4.029l-5.054,0.954L223.809,111.733z"/>
	<path fill="#FFFFFF" d="M223.887,117.571l4.104-0.775l2.188,3.875l2.643-0.5l-7.39-13.044l-2.611,0.492l-2.104,14.839l2.585-0.487
		L223.887,117.571z M221.66,121.471l1.869-13.177l1.491-0.281l6.562,11.583l-0.99,0.187l-2.188-3.875l-5.229,0.987l-0.585,4.399
		L221.66,121.471z"/>
	<path fill="#FFFFFF" d="M225.938,111.35c-0.413-0.729-0.734-1.415-1.045-2.079l-0.247-0.437l-0.609,0.11l-0.019,0.312
		c-0.056,0.963-0.123,1.753-0.21,2.476l-0.647,4.599l5.055-0.954L225.938,111.35z M224.71,110.731
		c0.164,0.328,0.339,0.662,0.536,1.01l1.73,3.062l-2.875,0.542l0.494-3.509C224.639,111.484,224.676,111.12,224.71,110.731z"/>
	<path fill="#FFFFFF" d="M235.585,106.418l-1.55,0.126l0.148,12.629l0.847-0.069l-0.103-5.38c-0.046-2.059-0.128-4.269-0.223-5.909
		l-0.022-0.389l0.7-0.055l0.137,0.295c0.447,1.375,1.05,2.925,1.955,5.03l2.563,5.92l0.747-0.062l1.755-6.399
		c0.531-1.922,0.944-3.617,1.265-5.183l0.061-0.297l0.698-0.045l0.087,0.391c0.115,1.648,0.419,3.9,0.663,5.711l0.763,5.473
		l0.889-0.072l-1.806-12.494l-1.55,0.126l-1.777,6.384c-0.511,1.938-0.829,3.35-1.03,4.569l-0.051,0.307l-0.621,0.049l-0.157-0.292
		c-0.397-1.199-0.922-2.543-1.701-4.354L235.585,106.418z"/>
	<path fill="#FFFFFF" d="M235.839,119.836l-0.115-6.127c-0.024-1.137-0.062-2.319-0.105-3.426c0.315,0.81,0.687,1.706,1.127,2.729
		l2.791,6.443l1.868-0.153l1.902-6.936c0.292-1.058,0.549-2.047,0.775-2.986c0.135,1.168,0.301,2.393,0.447,3.469l0.865,6.208
		l2.479-0.203l-2.033-14.071l-2.847,0.233l-1.927,6.922c-0.343,1.299-0.6,2.366-0.795,3.298c-0.335-0.899-0.746-1.91-1.271-3.13
		l-2.918-6.527l-2.849,0.232l0.166,14.223L235.839,119.836z M240.13,117.075l0.621-0.049l0.051-0.307
		c0.201-1.22,0.521-2.631,1.03-4.569l1.777-6.384l1.55-0.126l1.806,12.494l-0.889,0.072l-0.763-5.473
		c-0.245-1.81-0.549-4.062-0.663-5.71l-0.087-0.392l-0.698,0.045l-0.061,0.297c-0.32,1.566-0.733,3.261-1.265,5.183l-1.755,6.4
		l-0.747,0.061l-2.563-5.919c-0.905-2.104-1.507-3.656-1.955-5.03l-0.137-0.295l-0.7,0.055l0.022,0.389
		c0.095,1.64,0.178,3.849,0.223,5.909l0.103,5.38l-0.847,0.069l-0.148-12.629l1.55-0.127l2.687,6.01
		c0.779,1.812,1.304,3.155,1.701,4.355L240.13,117.075z"/>
	
		<rect x="244.505" y="111.435" transform="matrix(0.0164 0.9999 -0.9999 0.0164 358.5692 -140.7067)" fill="#FFFFFF" width="12.598" height="0.934"/>
	<path fill="#FFFFFF" d="M252.178,118.979l-0.233-14.187l-2.523,0.042l0.232,14.186L252.178,118.979z M250.436,118.213
		l-0.206-12.597l0.933-0.016l0.208,12.597L250.436,118.213z"/>
	<polygon fill="#FFFFFF" points="256.881,105.681 255.948,105.636 255.349,118.225 262,118.542 262.031,117.886 256.313,117.614 	
		"/>
	<path fill="#FFFFFF" d="M262.863,117.13l-5.718-0.272l0.568-11.934l-2.521-0.121l-0.676,14.177l8.239,0.394L262.863,117.13z
		 M262,118.542l-6.651-0.317l0.6-12.589l0.933,0.045l-0.567,11.933l5.718,0.272L262,118.542z"/>
	<path fill="#FFFFFF" d="M266.08,118.976l0.947,0.105l0.598-5.379l4.964-6.676l-1.027-0.114l-2.418,3.606
		c-0.535,0.811-0.997,1.511-1.405,2.224l-0.132,0.231l-0.514-0.066l-0.116-0.247c-0.291-0.91-0.584-1.741-1.012-2.872l-1.381-3.654
		l-1.046-0.116l3.137,7.603L266.08,118.976z"/>
	<path fill="#FFFFFF" d="M265.202,119.678l2.527,0.281l0.663-5.956l5.66-7.615l-2.881-0.321l-2.691,4.013
		c-0.367,0.554-0.699,1.058-1.006,1.554c-0.219-0.647-0.458-1.31-0.767-2.125l-1.555-4.11l-2.863-0.318l3.571,8.656L265.202,119.678
		z M264.584,106.135l1.381,3.654c0.428,1.131,0.721,1.963,1.012,2.872l0.116,0.247l0.514,0.066l0.132-0.231
		c0.408-0.713,0.87-1.413,1.405-2.224l2.418-3.606l1.027,0.114l-4.964,6.676l-0.598,5.379l-0.947-0.105l0.595-5.354l-3.137-7.603
		L264.584,106.135z"/>
	<polygon fill="#FFFFFF" points="287.499,116.512 286.055,122.625 286.983,122.845 289.882,110.579 288.953,110.359 
		287.665,115.815 280.583,114.142 281.874,108.686 280.964,108.471 278.063,120.737 278.974,120.952 280.419,114.839 	"/>
	<path fill="#FFFFFF" d="M281.009,115.795l5.533,1.308l-1.443,6.114l2.475,0.585l3.265-13.813l-2.476-0.585l-1.289,5.456
		l-5.533-1.308l1.289-5.456l-2.458-0.58l-3.264,13.812l2.456,0.581L281.009,115.795z M278.063,120.737l2.899-12.266l0.911,0.214
		l-1.291,5.456l7.082,1.673l1.288-5.456l0.929,0.22l-2.898,12.267l-0.929-0.22l1.444-6.113l-7.08-1.673l-1.445,6.113
		L278.063,120.737z"/>
	<polygon fill="#FFFFFF" points="297.11,126.076 297.315,125.454 291.804,123.637 293.566,118.296 298.511,119.926 298.71,119.323 
		293.765,117.692 295.339,112.917 300.567,114.642 300.772,114.018 294.657,112.001 290.713,123.968 	"/>
	<path fill="#FFFFFF" d="M297.617,127.081l0.703-2.133l-5.512-1.817l1.264-3.831l4.945,1.63l0.695-2.114l-4.943-1.63l1.076-3.266
		l5.229,1.725l0.704-2.133l-7.627-2.515l-4.442,13.477L297.617,127.081z M300.772,114.018l-0.205,0.623l-5.229-1.724l-1.574,4.775
		l4.945,1.631l-0.199,0.603l-4.944-1.63l-1.762,5.341l5.511,1.817l-0.205,0.622l-6.396-2.109L294.657,112L300.772,114.018z"/>
	<path fill="#FFFFFF" d="M300.126,127.195l2.927-3.333l4.898,2.079l-0.328,4.437l0.927,0.394l0.965-13.276l-1.397-0.593
		l-8.861,9.924L300.126,127.195z M306.442,119.916c0.469-0.544,0.961-1.164,1.548-1.942l0.186-0.246l0.608,0.252l-0.068,0.451
		c-0.111,0.736-0.227,1.497-0.289,2.348l-0.34,4.614l-4.734-2.009L306.442,119.916z"/>
	<path fill="#FFFFFF" d="M300.345,128.151l2.927-3.334l3.845,1.632l-0.33,4.437l2.476,1.05l1.086-14.952l-2.444-1.036l-9.98,11.177
		L300.345,128.151z M309.515,117.494l-0.965,13.276l-0.927-0.394l0.328-4.437l-4.898-2.08l-2.927,3.334l-0.871-0.37l8.862-9.924
		L309.515,117.494z"/>
	<path fill="#FFFFFF" d="M308.427,120.779c0.062-0.852,0.178-1.612,0.289-2.348l0.068-0.451l-0.608-0.252l-0.186,0.246
		c-0.587,0.778-1.079,1.397-1.548,1.942l-3.09,3.469l4.734,2.009L308.427,120.779z M307.377,124.229l-2.693-1.143l2.357-2.647
		c0.229-0.267,0.462-0.548,0.708-0.855c-0.047,0.362-0.085,0.739-0.115,1.138L307.377,124.229z"/>
	<polygon fill="#FFFFFF" points="317.143,135.241 317.448,134.661 312.379,132.001 317.927,121.424 317.1,120.99 311.246,132.148 	
		"/>
	<path fill="#FFFFFF" d="M317.478,136.314l1.044-1.988l-5.068-2.659l5.548-10.578l-2.236-1.172l-6.59,12.565L317.478,136.314z
		 M317.927,121.424l-5.548,10.578l5.069,2.659l-0.306,0.58l-5.896-3.093l5.853-11.158L317.927,121.424z"/>
	<polygon fill="#FFFFFF" points="326.363,126.871 320.214,137.082 321.028,137.573 327.179,127.362 330.685,129.474 
		331.033,128.896 323.223,124.191 322.874,124.769 	"/>
	<path fill="#FFFFFF" d="M321.301,138.663l6.149-10.209l3.505,2.112l1.17-1.94l-9.173-5.525l-1.169,1.94l3.488,2.102l-6.149,10.21
		L321.301,138.663z M331.033,128.896l-0.349,0.578l-3.506-2.112l-6.15,10.211l-0.814-0.491l6.149-10.211l-3.489-2.102l0.349-0.578
		L331.033,128.896z"/>
	<polygon fill="#FFFFFF" points="327.285,141.556 330.978,136.474 336.863,140.749 333.172,145.831 333.944,146.393 341.35,136.194 
		340.578,135.634 337.283,140.169 331.398,135.895 334.691,131.359 333.936,130.81 326.529,141.007 	"/>
	<path fill="#FFFFFF" d="M327.462,142.666l3.691-5.082l4.601,3.341l-3.691,5.083l2.06,1.495l8.339-11.484l-2.06-1.494l-3.293,4.535
		l-4.601-3.341l3.295-4.536l-2.044-1.483l-8.339,11.484L327.462,142.666z M334.691,131.359l-3.294,4.536l5.886,4.274l3.294-4.535
		l0.772,0.561l-7.405,10.198l-0.772-0.562l3.691-5.083l-5.886-4.274l-3.692,5.082l-0.756-0.549l7.406-10.197L334.691,131.359z"/>
	<path fill="#FFFFFF" d="M351.324,144.756l-11.741,6.261l0.689,0.647l3.896-2.121l3.882,3.641l-1.838,4.053l0.734,0.689
		l5.485-12.131L351.324,144.756z M350.279,148.505l-1.911,4.214l-3.751-3.519l4.097-2.19c0.638-0.357,1.314-0.768,2.122-1.289
		l0.259-0.167L351.58,146l-0.221,0.402C351,147.053,350.629,147.728,350.279,148.505z"/>
	<path fill="#FFFFFF" d="M340.148,152.638l3.896-2.121l3.046,2.859l-1.838,4.052l1.962,1.839l6.177-13.663l-1.938-1.817
		l-13.225,7.051L340.148,152.638z M346.213,157.238l1.838-4.053l-3.882-3.641l-3.896,2.121l-0.689-0.647l11.741-6.261l1.108,1.039
		l-5.485,12.131L346.213,157.238z"/>
	<path fill="#FFFFFF" d="M351.095,145.554l-0.259,0.167c-0.808,0.521-1.484,0.932-2.122,1.289l-4.097,2.19l3.751,3.519l1.911-4.214
		c0.35-0.777,0.721-1.451,1.08-2.104L351.58,146L351.095,145.554z M345.97,149.379l3.126-1.671c0.309-0.173,0.625-0.357,0.959-0.559
		c-0.168,0.324-0.336,0.664-0.499,1.027l-1.453,3.203L345.97,149.379z"/>
	<path fill="#FFFFFF" d="M358.475,151.767l-9.451,8.336l0.551,0.627l3.996-3.525c1.683-1.486,2.853-2.57,4.035-3.744l0.217-0.215
		l0.569,0.333l-0.088,0.355c-0.553,1.265-1.086,2.787-1.681,4.792l-2.222,7.476l0.749,0.849l9.451-8.336l-0.552-0.626l-3.906,3.444
		c-1.469,1.296-2.706,2.434-3.973,3.767l-0.187,0.197l-0.63-0.255l0.123-0.391c0.61-1.39,1.151-2.906,1.656-4.635l2.182-7.494
		L358.475,151.767z"/>
	<path fill="#FFFFFF" d="M349.506,161.851l4.592-4.05c1.119-0.989,2.015-1.801,2.837-2.582c-0.349,0.944-0.7,2.019-1.073,3.279
		l-2.348,7.898l1.567,1.775l10.644-9.388l-1.604-1.819l-4.502,3.97c-0.978,0.862-1.852,1.655-2.703,2.482
		c0.348-0.928,0.671-1.916,0.982-2.981l2.303-7.915l-1.656-1.877l-10.644,9.387L349.506,161.851z M355.479,164.849l-0.123,0.391
		l0.63,0.255l0.187-0.197c1.266-1.334,2.503-2.471,3.972-3.767l3.907-3.444l0.552,0.626l-9.452,8.336l-0.748-0.849l2.222-7.476
		c0.594-2.004,1.128-3.526,1.681-4.792l0.087-0.355l-0.568-0.333l-0.217,0.215c-1.184,1.174-2.353,2.258-4.035,3.744l-3.996,3.525
		l-0.551-0.627l9.451-8.336l0.843,0.954l-2.184,7.494C356.63,161.943,356.088,163.459,355.479,164.849z"/>
	<path fill="#FFFFFF" d="M363.88,175.931c1.662,0.284,3.379-0.204,5.056-1.411c1.585-1.143,2.447-2.473,2.633-4.067
		c0.194-1.533-0.377-3.199-1.744-5.099c-0.634-0.878-1.34-1.728-2.102-2.528l-10.118,7.293c0.417,0.715,0.924,1.486,1.507,2.295
		C360.579,174.446,362.227,175.663,363.88,175.931z M358.673,170.502l9.105-6.563l0.238,0.215c0.301,0.27,0.785,0.768,1.387,1.602
		c1.112,1.544,1.558,3.044,1.323,4.457c-0.223,1.346-1.042,2.53-2.435,3.521c-1.281,0.925-2.562,1.394-3.801,1.394h-0.001
		c-1.757,0-3.381-0.964-4.695-2.789c-0.491-0.679-0.802-1.168-0.979-1.538L358.673,170.502z"/>
	<path fill="#FFFFFF" d="M356.737,170.201c0.463,0.826,1.045,1.728,1.731,2.678c1.592,2.208,3.419,3.534,5.282,3.835
		c0.344,0.059,0.694,0.088,1.046,0.088c1.546,0,3.095-0.552,4.604-1.639c1.752-1.262,2.748-2.817,2.96-4.616
		c0.219-1.738-0.398-3.59-1.891-5.659c-0.722-1.002-1.534-1.965-2.414-2.865l-0.238-0.245l-11.254,8.112L356.737,170.201z
		 M367.724,162.825c0.762,0.8,1.468,1.65,2.102,2.528c1.368,1.898,1.938,3.565,1.744,5.099c-0.187,1.594-1.048,2.925-2.633,4.066
		c-1.677,1.208-3.395,1.696-5.056,1.412c-1.653-0.268-3.302-1.484-4.768-3.517c-0.582-0.81-1.089-1.58-1.507-2.295L367.724,162.825z
		"/>
	<path fill="#FFFFFF" d="M364.49,175.127L364.49,175.127c1.241,0,2.521-0.469,3.802-1.393c1.394-0.991,2.212-2.175,2.435-3.521
		c0.234-1.414-0.211-2.914-1.323-4.457c-0.602-0.834-1.086-1.333-1.387-1.603l-0.238-0.214l-9.105,6.563l0.143,0.3
		c0.178,0.369,0.487,0.858,0.979,1.537C361.109,174.164,362.733,175.127,364.49,175.127z M367.715,164.964
		c0.265,0.268,0.621,0.67,1.044,1.256c0.982,1.366,1.381,2.666,1.183,3.863c-0.186,1.128-0.897,2.139-2.112,3.004
		c-1.146,0.827-2.27,1.245-3.339,1.245h-0.001c-1.512,0-2.875-0.828-4.052-2.459c-0.333-0.461-0.58-0.832-0.749-1.124
		L367.715,164.964z"/>
	<path fill="#FFFFFF" d="M372.899,191.277c1.592,0.495,3.386,0.237,5.194-0.735c1.72-0.925,2.75-2.13,3.146-3.685
		c0.392-1.496,0.046-3.223-1.062-5.284c-0.513-0.956-1.103-1.89-1.749-2.78l-10.985,5.9c0.317,0.76,0.719,1.59,1.191,2.471
		C369.82,189.373,371.295,190.795,372.899,191.277z M368.45,185.213l9.886-5.309l0.208,0.243c0.263,0.307,0.678,0.862,1.165,1.771
		c0.899,1.676,1.145,3.221,0.727,4.591c-0.397,1.305-1.365,2.372-2.876,3.17c-1.142,0.614-2.251,0.925-3.291,0.925
		c-2.035,0-3.745-1.184-4.949-3.423c-0.406-0.758-0.643-1.267-0.768-1.654L368.45,185.213z"/>
	<path fill="#FFFFFF" d="M374.542,192.318c1.278,0,2.6-0.361,3.928-1.075c1.9-1.021,3.092-2.431,3.539-4.186
		c0.445-1.697,0.075-3.612-1.131-5.858c-0.586-1.091-1.265-2.153-2.016-3.156l-0.206-0.273l-12.218,6.561l0.13,0.33
		c0.35,0.875,0.81,1.844,1.366,2.882c1.287,2.396,2.925,3.951,4.731,4.496C373.267,192.225,373.898,192.318,374.542,192.318z
		 M378.429,178.795c0.646,0.89,1.236,1.824,1.749,2.781c1.107,2.06,1.453,3.787,1.062,5.283c-0.396,1.556-1.426,2.76-3.146,3.685
		c-1.809,0.972-3.603,1.229-5.194,0.735c-1.604-0.482-3.079-1.904-4.265-4.111c-0.473-0.882-0.874-1.712-1.191-2.471
		L378.429,178.795z"/>
	<path fill="#FFFFFF" d="M374.269,190.605c1.04,0,2.149-0.312,3.291-0.925c1.511-0.799,2.479-1.866,2.876-3.17
		c0.418-1.371,0.173-2.916-0.727-4.591c-0.486-0.909-0.902-1.464-1.165-1.771l-0.208-0.243l-9.886,5.309l0.102,0.315
		c0.125,0.387,0.361,0.896,0.769,1.654C370.523,189.421,372.234,190.605,374.269,190.605z M378.14,180.912
		c0.228,0.299,0.527,0.745,0.869,1.382c0.796,1.483,1.021,2.823,0.666,3.984c-0.333,1.095-1.17,2.004-2.488,2.701
		c-2.98,1.6-5.555,0.827-7.166-2.173c-0.187-0.348-0.431-0.816-0.596-1.214L378.14,180.912z"/>
	<polygon fill="#FFFFFF" points="376.797,202.484 374.505,197.153 379.672,194.932 381.728,199.715 382.312,199.464 
		380.257,194.681 384.875,192.696 387.049,197.752 387.651,197.493 385.108,191.579 373.535,196.554 376.194,202.743 	"/>
	<path fill="#FFFFFF" d="M377.842,202.899l-2.291-5.331l3.706-1.593l2.056,4.783l2.044-0.879l-2.056-4.783l3.158-1.357l2.173,5.057
		l2.064-0.887l-3.171-7.375l-13.035,5.603l3.29,7.65L377.842,202.899z M385.108,191.579l2.542,5.914l-0.603,0.259l-2.173-5.056
		l-4.619,1.985l2.057,4.783l-0.585,0.251l-2.056-4.783l-5.167,2.221l2.292,5.331l-0.603,0.259l-2.66-6.189L385.108,191.579z"/>
	<path fill="#FFFFFF" d="M388.897,200.583l-10.62,7.926l0.429,1.269l13.376,0.238l-0.32-0.946l-7.318-0.029
		c-1.432,0-3.096,0.017-4.569,0.146l-0.314,0.028l-0.193-0.599l0.254-0.202c1.311-0.804,2.651-1.755,4.259-2.938l5.349-3.916
		L388.897,200.583z"/>
	<path fill="#FFFFFF" d="M378.132,210.563l15.063,0.269l-0.862-2.555l-7.89-0.032c-0.994,0-2.097,0.009-3.178,0.056
		c0.953-0.636,1.953-1.355,3.082-2.186l5.817-4.259l-0.866-2.564l-11.96,8.926L378.132,210.563z M379.619,208.412l-0.254,0.202
		l0.193,0.599l0.314-0.027c1.474-0.129,3.138-0.146,4.57-0.146l7.317,0.029l0.32,0.947l-13.376-0.238l-0.429-1.269l10.62-7.925
		l0.329,0.975l-5.349,3.915C382.271,206.656,380.931,207.608,379.619,208.412z"/>
	<polygon fill="#FFFFFF" points="380.774,216.474 382.419,223.007 383.055,222.847 381.638,217.219 387.093,215.846 
		388.364,220.897 388.98,220.742 387.71,215.692 392.586,214.464 393.931,219.803 394.565,219.643 392.993,213.397 	"/>
	<path fill="#FFFFFF" d="M381.843,223.972l2.177-0.548l-1.416-5.629l3.913-0.984l1.271,5.05l2.16-0.543l-1.271-5.05l3.334-0.84
		l1.343,5.339l2.179-0.548l-1.961-7.787l-13.762,3.465L381.843,223.972z M393.931,219.803l-1.345-5.339l-4.876,1.228l1.271,5.05
		l-0.616,0.155l-1.271-5.051l-5.455,1.373l1.417,5.628l-0.637,0.161l-1.644-6.534l12.219-3.076l1.572,6.245L393.931,219.803z"/>
	<polygon fill="#FFFFFF" points="383.034,226.075 384.184,232.633 384.83,232.52 383.842,226.881 395.606,224.818 395.445,223.898 	
		"/>
	<path fill="#FFFFFF" d="M383.539,233.553l2.212-0.388l-0.988-5.639l11.766-2.062l-0.437-2.486l-13.979,2.45L383.539,233.553z
		 M383.842,226.881l0.988,5.639l-0.646,0.113l-1.149-6.559l12.411-2.177l0.161,0.92L383.842,226.881z"/>
	<path fill="#FFFFFF" d="M397.724,238.45c-0.291-3.123-2.815-5.222-6.28-5.222c-0.281,0-0.572,0.013-0.867,0.041
		c-3.811,0.355-6.16,2.845-5.848,6.192c0.325,3.5,3.077,5.562,7.167,5.18C395.694,244.286,398.037,241.798,397.724,238.45z
		 M391.722,243.619c-0.282,0.025-0.562,0.038-0.836,0.038c-3.129,0-5.3-1.631-5.536-4.154c-0.283-3.053,2.483-4.921,5.363-5.189
		c0.286-0.026,0.57-0.04,0.851-0.04c3.131,0,5.305,1.631,5.54,4.154C397.389,241.479,394.61,243.349,391.722,243.619z"/>
	<path fill="#FFFFFF" d="M390.502,232.476c-4.217,0.395-6.917,3.296-6.565,7.058c0.336,3.611,3.089,5.945,7.015,5.945
		c0.329,0,0.668-0.016,1.018-0.049c4.271-0.397,6.903-3.234,6.546-7.056C398.158,234.542,394.897,232.065,390.502,232.476z
		 M384.729,239.46c-0.312-3.348,2.037-5.836,5.848-6.192c0.295-0.027,0.585-0.041,0.867-0.041c3.465,0,5.989,2.099,6.28,5.222
		c0.313,3.349-2.029,5.837-5.829,6.19C387.806,245.022,385.054,242.96,384.729,239.46z"/>
	<path fill="#FFFFFF" d="M397.104,238.427c-0.235-2.523-2.409-4.154-5.54-4.154c-0.281,0-0.564,0.014-0.851,0.04
		c-2.88,0.269-5.646,2.137-5.363,5.189c0.236,2.523,2.407,4.154,5.536,4.154c0.274,0,0.553-0.014,0.836-0.038
		C394.61,243.349,397.389,241.479,397.104,238.427z M386.142,239.429c-0.247-2.65,2.235-4.1,4.646-4.324
		c0.261-0.024,0.519-0.036,0.775-0.036c2.142,0,4.513,0.901,4.749,3.433c0.248,2.649-2.244,4.101-4.665,4.325
		c-0.257,0.023-0.512,0.035-0.761,0.035C388.197,242.862,386.336,241.515,386.142,239.429z"/>
	<path fill="#FFFFFF" d="M398.227,250.984c-0.016-1.026-0.1-2.005-0.248-2.917l-12.494,0.206l0.016,0.935l5.477-0.092l-0.116,0.497
		c-0.088,0.375-0.094,0.845-0.087,1.297c0.028,1.638,0.528,2.98,1.408,3.78c0.626,0.588,1.469,0.884,2.51,0.884l0.094-0.001
		c1.037-0.017,1.918-0.4,2.483-1.075C397.933,253.735,398.253,252.553,398.227,250.984z M394.689,254.639L394.689,254.639
		c-2.067,0-3.281-1.384-3.32-3.702c-0.01-0.651,0.031-1.139,0.128-1.533l0.073-0.298l5.816-0.097l0.083,0.294
		c0.104,0.361,0.17,0.991,0.183,1.729c0.017,1.069-0.216,1.929-0.692,2.554C396.447,254.259,395.663,254.624,394.689,254.639z"/>
	<path fill="#FFFFFF" d="M384.718,250.015l5.289-0.088c-0.032,0.324-0.033,0.664-0.029,0.993c0.032,1.861,0.625,3.408,1.664,4.353
		c0.774,0.726,1.8,1.095,3.049,1.095l0.108-0.001c1.271-0.021,2.364-0.505,3.075-1.354c0.792-0.909,1.178-2.27,1.147-4.042
		c-0.019-1.193-0.126-2.331-0.317-3.379l-0.062-0.331l-13.968,0.23L384.718,250.015z M394.69,255.573
		c-1.041,0-1.883-0.296-2.509-0.884c-0.88-0.8-1.38-2.142-1.408-3.78c-0.007-0.451-0.001-0.921,0.087-1.297l0.116-0.496
		l-5.477,0.091l-0.016-0.934l12.494-0.207c0.149,0.913,0.233,1.892,0.248,2.918c0.026,1.569-0.294,2.75-0.958,3.512
		c-0.565,0.677-1.446,1.06-2.483,1.076L394.69,255.573z"/>
	<path fill="#FFFFFF" d="M397.471,249.303l-0.083-0.293l-5.816,0.096l-0.073,0.299c-0.097,0.395-0.138,0.882-0.128,1.533
		c0.039,2.318,1.253,3.702,3.319,3.702h0.001c0.974-0.017,1.758-0.381,2.271-1.054c0.477-0.625,0.709-1.484,0.692-2.553
		C397.641,250.294,397.575,249.666,397.471,249.303z M392.164,250.925c-0.006-0.413,0.011-0.756,0.05-1.034l4.554-0.075
		c0.044,0.279,0.082,0.693,0.09,1.23c0.014,0.873-0.169,1.585-0.529,2.059c-0.365,0.479-0.921,0.728-1.71,0.74
		C392.525,253.845,392.183,252.015,392.164,250.925z"/>
	<path fill="#FFFFFF" d="M396.633,261.005l0.38,0.044l-0.055,0.7l-0.319,0.083c-1.429,0.199-3.062,0.522-5.294,1.046l-6.276,1.492
		l-0.069,0.744l5.997,2.847c1.814,0.864,3.411,1.567,4.88,2.148l0.272,0.108l-0.053,0.7l-0.413,0.017
		c-1.646-0.176-3.922-0.271-5.747-0.345l-5.515-0.203l-0.082,0.887l12.616,0.403l0.147-1.548l-5.977-2.864
		c-1.811-0.839-3.145-1.398-4.319-1.812l-0.295-0.104l0.063-0.62l0.313-0.104c1.26-0.183,2.673-0.465,4.584-0.913l6.386-1.598
		l0.146-1.547l-12.46-2.059l-0.08,0.845l5.315,0.838C392.823,260.509,395.013,260.813,396.633,261.005z"/>
	<path fill="#FFFFFF" d="M384.601,260.025l6.055,0.953c1.126,0.174,2.296,0.345,3.391,0.494c-0.852,0.17-1.798,0.378-2.883,0.634
		l-6.833,1.623l-0.176,1.866l6.499,3.085c0.994,0.474,1.923,0.897,2.802,1.282c-1.175-0.071-2.411-0.121-3.492-0.166l-6.264-0.229
		l-0.233,2.475l14.207,0.454l0.27-2.844l-6.48-3.105c-1.215-0.562-2.22-1.001-3.107-1.357c0.947-0.173,2.014-0.401,3.303-0.704
		l6.938-1.735l0.269-2.845l-14.032-2.319L384.601,260.025z M385.541,258.509l12.461,2.059l-0.146,1.547l-6.386,1.598
		c-1.909,0.448-3.324,0.73-4.583,0.913l-0.313,0.104l-0.064,0.62l0.296,0.104c1.175,0.413,2.507,0.974,4.319,1.812l5.976,2.864
		l-0.146,1.548l-12.616-0.403l0.082-0.887l5.514,0.203c1.827,0.074,4.102,0.169,5.747,0.345l0.413-0.017l0.053-0.7l-0.271-0.108
		c-1.47-0.581-3.064-1.284-4.881-2.148l-5.997-2.847l0.07-0.744l6.276-1.492c2.232-0.523,3.864-0.847,5.294-1.046l0.318-0.083
		l0.056-0.7l-0.381-0.044c-1.619-0.192-3.809-0.496-5.855-0.813l-5.315-0.837L385.541,258.509z"/>
	<polygon fill="#FFFFFF" points="383.023,281.546 384.126,275.847 389.648,276.914 388.66,282.028 389.285,282.148 390.273,277.035 
		395.211,277.988 394.167,283.395 394.811,283.52 396.032,277.197 383.66,274.805 382.381,281.422 	"/>
	<path fill="#FFFFFF" d="M381.449,282.051l2.205,0.427l1.103-5.699l3.961,0.766l-0.988,5.112l2.186,0.424l0.988-5.114l3.376,0.652
		l-1.044,5.407l2.205,0.426l1.523-7.886l-13.935-2.692L381.449,282.051z M396.032,277.197l-1.222,6.323l-0.645-0.125l1.044-5.407
		l-4.938-0.953l-0.988,5.113l-0.624-0.12l0.988-5.114l-5.523-1.066l-1.102,5.699l-0.644-0.124l1.278-6.617L396.032,277.197z"/>
	<path fill="#FFFFFF" d="M391.91,288.122l0.295,0.067l0.032,0.658l-0.348,0.119c-1.359,0.216-2.93,0.589-4.939,1.173l-7.492,2.167
		l-0.311,1.089l12.12,3.452l0.229-0.804l-5.009-1.427c-1.874-0.534-3.495-0.961-5.315-1.309l-0.265-0.05l-0.129-0.668l0.397-0.109
		c1.5-0.236,3.068-0.6,4.795-1.109l7.486-2.209l0.349-1.224l-12.12-3.452l-0.229,0.803l5.123,1.459
		C388.732,287.361,390.276,287.758,391.91,288.122z"/>
	<path fill="#FFFFFF" d="M380.475,285.835l5.888,1.677c1.435,0.409,2.602,0.723,3.703,0.995c-0.979,0.216-2.074,0.501-3.337,0.868
		l-7.915,2.29l-0.647,2.275l13.648,3.888l0.665-2.332l-5.775-1.644c-1.247-0.355-2.386-0.665-3.546-0.937
		c0.969-0.21,1.975-0.469,3.038-0.782l7.905-2.335l0.686-2.407l-13.648-3.889L380.475,285.835z M381.687,284.487l12.119,3.452
		l-0.349,1.224l-7.485,2.209c-1.727,0.51-3.296,0.873-4.795,1.109l-0.397,0.109l0.128,0.668l0.266,0.05
		c1.819,0.349,3.44,0.776,5.314,1.309l5.009,1.427l-0.228,0.804l-12.12-3.452l0.311-1.089l7.492-2.167
		c2.011-0.583,3.58-0.957,4.939-1.173l0.348-0.119l-0.031-0.658l-0.296-0.067c-1.634-0.363-3.178-0.761-5.329-1.374l-5.123-1.459
		L381.687,284.487z"/>
	<polygon fill="#FFFFFF" points="376.929,299.469 376.589,300.361 387.724,304.617 386.262,308.441 386.893,308.681 
		390.149,300.164 389.519,299.921 388.063,303.726 	"/>
	<path fill="#FFFFFF" d="M387.606,302.7l-11.136-4.257l-0.908,2.376l11.135,4.256l-1.462,3.824l2.115,0.809l3.825-10.002
		l-2.114-0.81L387.606,302.7z M390.149,300.164l-3.257,8.518l-0.631-0.24l1.462-3.824l-11.135-4.256l0.34-0.892l11.135,4.257
		l1.455-3.805L390.149,300.164z"/>
	<path fill="#2F8691" d="M201.732,192.791c14.589,0,26.458-11.869,26.458-26.458c0-14.59-11.869-26.459-26.458-26.459
		c-14.59,0-26.459,11.869-26.459,26.459C175.273,180.921,187.143,192.791,201.732,192.791z"/>
	<path fill="#FFFFFF" d="M173.54,172.415c2.801,12.993,14.375,22.76,28.192,22.76c15.904,0,28.843-12.939,28.843-28.843
		c0-8.648-3.83-16.414-9.879-21.705c-0.73-0.64-1.495-1.242-2.288-1.807c-4.712-3.352-10.466-5.332-16.677-5.332
		c-15.904,0-28.843,12.939-28.843,28.843c0,1.085,0.066,2.155,0.183,3.21C173.18,170.515,173.337,171.473,173.54,172.415z
		 M175.273,166.331c0-14.589,11.869-26.458,26.459-26.458c14.589,0,26.458,11.869,26.458,26.458s-11.869,26.458-26.458,26.458
		C187.143,192.791,175.273,180.92,175.273,166.331z"/>
	<path fill="#2F8691" d="M299.102,153.884c-14.591,0-26.461,11.869-26.461,26.458s11.87,26.459,26.461,26.459
		c14.59,0,26.461-11.87,26.461-26.459S313.691,153.884,299.102,153.884z"/>
	<path fill="#FFFFFF" d="M301.472,151.604c-0.782-0.063-1.572-0.105-2.37-0.105c-15.907,0-28.846,12.939-28.846,28.843
		c0,15.904,12.938,28.844,28.846,28.844c15.906,0,28.846-12.939,28.846-28.844c0-4.907-1.235-9.53-3.405-13.58
		c-1.556-2.901-3.59-5.507-6.001-7.71c-2.254-2.061-4.839-3.762-7.661-5.03C307.966,152.715,304.799,151.876,301.472,151.604z
		 M325.562,180.342c0,14.589-11.871,26.459-26.461,26.459c-14.591,0-26.461-11.87-26.461-26.459s11.87-26.458,26.461-26.458
		C313.691,153.884,325.562,165.753,325.562,180.342z"/>
	<path fill="#2F8691" d="M330.98,280.745c0-7.67-6.241-13.911-13.911-13.911h-49.43c-7.672,0-13.912,6.241-13.912,13.911v9.227
		c0,0.658-0.533,1.192-1.192,1.192s-1.192-0.534-1.192-1.192c0-7.671-6.241-13.911-13.911-13.911h-49.431
		c-7.67,0-13.911,6.24-13.911,13.911v11.7c0,7.095,0.004,15.698,7.703,25.037c18.284,17.088,42.842,27.555,69.821,27.555
		c27.992,0,53.352-11.266,71.799-29.505c7.562-11.261,7.567-25.572,7.567-32.313V280.745z"/>
	<path fill="#2F8691" d="M171.704,289.971c0-8.985,7.311-16.296,16.296-16.296h49.431c1.513,0,2.976,0.211,4.366,0.598v-29.154
		c0-11.478,4.271-21.699,10.886-28.226c-5.239-11.046-13.783-18.241-23.435-18.241h-50.436c-15.939,0-29.444,21.029-29.444,45.221
		v8.255c0,25.532,9.392,48.876,24.905,66.781c-2.566-6.321-2.568-12.147-2.568-17.238L171.704,289.971L171.704,289.971z
		 M212.193,225.993c12.403,0,22.494,10.089,22.494,22.49c0,12.403-10.091,22.492-22.494,22.492S189.7,260.886,189.7,248.483
		C189.7,236.083,199.79,225.993,212.193,225.993z"/>
	<path fill="#2F8691" d="M328.614,211.845h-58.901c-14.078,0-25.531,14.926-25.531,33.272v30.031c2.97,1.358,5.468,3.576,7.16,6.342
		v-0.745c0-8.986,7.312-16.296,16.296-16.296h49.431c8.986,0,16.296,7.31,16.296,16.296v11.7c0,5.495,0,15.83-3.868,25.752
		c15.123-17.811,24.253-40.872,24.253-66.068c0-2.26-0.082-4.5-0.227-6.724C350.928,228.812,340.512,211.845,328.614,211.845z
		 M292.354,261.889c-12.402,0-22.491-10.089-22.491-22.49c0-12.402,10.089-22.492,22.491-22.492s22.492,10.09,22.492,22.492
		C314.846,251.8,304.755,261.889,292.354,261.889z"/>
	<path fill="#2F8691" d="M292.354,219.292c-11.086,0-20.106,9.021-20.106,20.107s9.021,20.106,20.106,20.106
		c11.087,0,20.107-9.02,20.107-20.106C312.461,228.312,303.44,219.292,292.354,219.292z"/>
	<path fill="#FFFFFF" d="M292.354,216.908c-12.402,0-22.491,10.089-22.491,22.492c0,12.401,10.089,22.491,22.491,22.491
		s22.492-10.09,22.492-22.491C314.846,226.997,304.755,216.908,292.354,216.908z M292.354,259.504
		c-11.086,0-20.106-9.019-20.106-20.105s9.021-20.107,20.106-20.107c11.087,0,20.107,9.021,20.107,20.107
		S303.44,259.504,292.354,259.504z"/>
	<path fill="#2F8691" d="M212.193,268.59c11.089,0,20.109-9.021,20.109-20.107s-9.021-20.105-20.109-20.105
		c-11.088,0-20.109,9.019-20.109,20.105S201.105,268.59,212.193,268.59z"/>
	<path fill="#FFFFFF" d="M212.193,270.975c12.403,0,22.494-10.089,22.494-22.492c0-12.401-10.091-22.49-22.494-22.49
		s-22.494,10.089-22.494,22.49C189.7,260.886,199.79,270.975,212.193,270.975z M212.193,228.377
		c11.089,0,20.109,9.019,20.109,20.105s-9.021,20.107-20.109,20.107c-11.088,0-20.109-9.021-20.109-20.107
		S201.105,228.377,212.193,228.377z"/>
	<path fill="#FFFFFF" d="M333.365,280.745c0-8.985-7.31-16.296-16.296-16.296h-49.43c-8.986,0-16.297,7.311-16.297,16.296v0.746
		c-1.692-2.766-4.19-4.984-7.16-6.343v0.176c0,0.658-0.534,1.192-1.192,1.192c-0.659,0-1.192-0.534-1.192-1.192v-1.053
		c-1.391-0.387-2.854-0.596-4.366-0.596h-49.431c-8.986,0-16.296,7.31-16.296,16.296v11.7c0,5.09,0.002,10.916,2.568,17.238
		c1.776,4.375,4.779,8.987,9.863,13.758c0.48,0.45,1.235,0.427,1.685-0.053c0.451-0.479,0.427-1.234-0.053-1.686
		c-1.515-1.421-2.83-2.829-3.976-4.221c-7.699-9.337-7.703-17.941-7.703-25.037v-11.7c0-7.67,6.241-13.911,13.911-13.911h49.431
		c7.67,0,13.911,6.241,13.911,13.911c0,0.658,0.533,1.192,1.192,1.192s1.192-0.534,1.192-1.192v-9.226
		c0-7.67,6.241-13.911,13.912-13.911h49.43c7.67,0,13.911,6.241,13.911,13.911v11.7c0,6.74-0.005,21.052-7.567,32.314
		c-1.471,2.19-3.223,4.269-5.321,6.15c-0.49,0.44-0.532,1.193-0.093,1.685c0.236,0.262,0.562,0.396,0.89,0.396
		c0.283,0,0.567-0.101,0.795-0.305c4.701-4.214,7.787-9.295,9.812-14.49c3.869-9.921,3.869-20.256,3.869-25.751V280.745z"/>
	<path fill="#FFFFFF" d="M209.934,378.14l-1.09-0.409l-2.977,7.942c-1.154,3.079-2.862,3.727-4.091,3.727
		c-0.485,0-0.995-0.1-1.517-0.295c-1.095-0.41-3.466-1.838-1.825-6.219l2.978-7.94l-1.09-0.409l-2.961,7.9
		c-1.38,3.683-0.495,6.234,2.561,7.381c3.149,1.178,5.705-0.186,7.083-3.86L209.934,378.14z"/>
	<path fill="#FFFFFF" d="M208.378,376.708l-3.257,8.686c-1.017,2.716-2.576,3.72-4.586,2.967c-1.869-0.701-2.352-2.545-1.359-5.194
		l3.256-8.688l-2.578-0.967l-3.241,8.645c-2.079,5.547,1.003,7.646,3.026,8.404c0.839,0.314,1.656,0.474,2.431,0.474
		c1.769,0,4.188-0.832,5.675-4.799l3.21-8.562L208.378,376.708z M199.919,389.818c-3.056-1.146-3.941-3.697-2.561-7.381l2.961-7.9
		l1.09,0.409l-2.978,7.94c-1.641,4.382,0.73,5.81,1.825,6.219c0.521,0.195,1.032,0.295,1.518,0.295c1.229,0,2.938-0.646,4.091-3.727
		l2.977-7.942l1.09,0.409l-2.931,7.817C205.625,389.632,203.068,390.998,199.919,389.818z"/>
	<path fill="#FFFFFF" d="M220.261,380.748c-0.744-0.194-1.484-0.292-2.199-0.292c-3.338,0-5.977,2.167-6.887,5.656
		c-1.119,4.294,0.787,7.64,4.974,8.731c1.249,0.324,2.223,0.393,2.818,0.393c0.255,0,0.491-0.013,0.699-0.035v-0.791
		c-0.855,0.085-1.95-0.017-2.919-0.27c-1.826-0.477-3.192-1.461-3.95-2.853c-0.742-1.361-0.877-3.063-0.393-4.925
		c0.837-3.208,2.961-5.048,5.827-5.048c0.606,0,1.24,0.084,1.885,0.253c0.967,0.251,1.859,0.657,2.563,1.162l0.441-0.732
		C222.691,381.683,221.795,381.148,220.261,380.748z"/>
	<path fill="#FFFFFF" d="M220.462,379.979c-0.811-0.213-1.618-0.318-2.4-0.318c-3.717,0-6.65,2.396-7.656,6.251
		c-1.224,4.696,0.952,8.503,5.543,9.701c1.33,0.347,2.377,0.418,3.019,0.418c0.448,0,0.856-0.035,1.178-0.104l0.315-0.067v-2.394
		l-0.476,0.095c-0.788,0.156-1.993,0.082-3.038-0.189c-1.609-0.42-2.803-1.271-3.452-2.466c-0.644-1.179-0.754-2.681-0.321-4.343
		c0.738-2.831,2.582-4.454,5.058-4.454c0.539,0,1.105,0.076,1.685,0.227c1.03,0.269,1.958,0.725,2.614,1.284l0.355,0.306
		l1.264-2.095l-0.243-0.22C223.637,381.371,222.596,380.535,220.462,379.979z M220.116,381.569c-0.645-0.17-1.278-0.254-1.885-0.254
		c-2.866,0-4.989,1.84-5.827,5.05c-0.484,1.86-0.35,3.562,0.393,4.923c0.758,1.392,2.123,2.377,3.95,2.854
		c0.97,0.253,2.064,0.354,2.918,0.269v0.791c-0.207,0.023-0.443,0.037-0.698,0.037c-0.596,0-1.569-0.068-2.818-0.394
		c-4.187-1.093-6.093-4.438-4.974-8.731c0.91-3.49,3.549-5.657,6.887-5.657c0.715,0,1.454,0.099,2.199,0.292
		c1.535,0.401,2.431,0.938,2.859,1.252l-0.441,0.731C221.976,382.227,221.082,381.82,220.116,381.569z"/>
	<path fill="#FFFFFF" d="M236.892,395.98l-0.106,0.292l-0.619-0.064l-0.108-0.316c-0.192-1.421-0.493-3.009-0.976-5.147
		l-1.728-7.203l-1.809-0.188l-2.456,14.027l1.042,0.109l1.004-5.988c0.365-2.225,0.738-4.735,0.973-6.551l0.049-0.387l0.698,0.075
		l0.084,0.314c0.209,1.607,0.553,3.439,1.117,5.945l1.608,7.077l0.901,0.095l3.266-6.716c0.979-2.004,1.785-3.785,2.462-5.446
		l0.112-0.276l0.696,0.073l0.021,0.406c-0.216,1.85-0.345,4.393-0.447,6.439l-0.289,6.214l1.088,0.114l0.592-14.222l-1.811-0.188
		l-3.285,6.692C238.007,393.187,237.365,394.675,236.892,395.98z"/>
	<path fill="#FFFFFF" d="M238.254,390.813c-0.678,1.429-1.198,2.594-1.616,3.618c-0.188-1.106-0.438-2.35-0.781-3.867l-1.86-7.755
		l-3.106-0.324l-2.731,15.597l2.633,0.275l1.128-6.727c0.222-1.346,0.44-2.76,0.631-4.073c0.19,1.027,0.43,2.177,0.73,3.515
		l1.736,7.634l2.021,0.212l3.51-7.215c0.584-1.194,1.105-2.311,1.576-3.37c-0.101,1.395-0.176,2.886-0.241,4.178l-0.324,6.968
		l2.676,0.279l0.658-15.815l-3.106-0.321L238.254,390.813z M244.065,384.656l-0.592,14.221l-1.087-0.113l0.288-6.215
		c0.103-2.045,0.231-4.588,0.447-6.438l-0.021-0.407l-0.696-0.072l-0.112,0.276c-0.677,1.661-1.482,3.441-2.462,5.447l-3.266,6.715
		l-0.9-0.094l-1.609-7.079c-0.563-2.504-0.908-4.338-1.117-5.943l-0.084-0.314l-0.698-0.075l-0.049,0.386
		c-0.233,1.814-0.606,4.327-0.973,6.55l-1.004,5.988l-1.042-0.108l2.456-14.027l1.809,0.189l1.729,7.202
		c0.481,2.138,0.783,3.727,0.975,5.147l0.108,0.316l0.619,0.065l0.106-0.292c0.474-1.306,1.116-2.795,2.078-4.821l3.285-6.691
		L244.065,384.656z"/>
	<polygon fill="#FFFFFF" points="256.58,398.846 256.567,398.017 250.067,398.123 249.966,391.918 255.798,391.824 255.783,391.015 
		249.952,391.111 249.863,385.575 256.028,385.473 256.014,384.644 248.707,384.765 248.939,398.971 	"/>
	<path fill="#FFFFFF" d="M250.849,397.315l-0.074-4.614l5.832-0.096l-0.04-2.397l-5.831,0.096l-0.064-3.946l6.165-0.102l-0.04-2.419
		l-8.897,0.145l0.259,15.796l9.229-0.148l-0.039-2.42L250.849,397.315z M256.014,384.644l0.015,0.829l-6.165,0.102l0.09,5.536
		l5.832-0.096l0.014,0.809l-5.832,0.095l0.101,6.204l6.5-0.105l0.014,0.829l-7.641,0.125l-0.232-14.206L256.014,384.644z"/>
	<path fill="#FFFFFF" d="M266.104,391.82l-0.273-0.068l-0.053-0.566l0.257-0.182c1.547-0.68,2.385-2.049,2.242-3.664
		c-0.092-1.045-0.542-1.915-1.268-2.449c-0.933-0.706-2.227-0.933-4.16-0.76c-1.197,0.107-2.396,0.303-3.285,0.537l1.243,14.02
		l1.136-0.101l-0.572-6.475l2.213-0.196c0.119-0.006,0.22-0.009,0.318-0.009c1.734,0,2.704,0.849,3.348,2.927
		c0.229,0.712,0.8,2.491,1.149,3.18l1.152-0.101c-0.344-0.761-0.758-1.987-1.267-3.532
		C267.807,392.903,267.094,392.067,266.104,391.82z M263.679,391.229l-2.369,0.21l-0.544-6.148l0.279-0.107
		c0.409-0.158,1.157-0.297,1.999-0.373c2.489-0.195,3.938,0.84,4.115,2.852C267.33,389.595,265.931,391.03,263.679,391.229z"/>
	<path fill="#FFFFFF" d="M269.041,394.132c-0.44-1.358-1.104-2.29-1.977-2.78c1.416-0.9,2.155-2.379,2.005-4.083
		c-0.113-1.275-0.677-2.349-1.583-3.017c-1.096-0.828-2.528-1.106-4.706-0.915c-1.395,0.124-2.799,0.369-3.755,0.654l-0.311,0.092
		l1.371,15.464l2.72-0.24l-0.572-6.476l1.407-0.125c1.536-0.075,2.276,0.503,2.853,2.365c0.69,2.15,1.086,3.189,1.368,3.589
		l0.132,0.187l2.887-0.256l-0.367-0.556C270.169,397.518,269.665,396.026,269.041,394.132z M268.398,398.013
		c-0.349-0.688-0.92-2.468-1.148-3.18c-0.645-2.078-1.614-2.928-3.348-2.928c-0.099,0-0.199,0.003-0.318,0.009l-2.214,0.196
		l0.574,6.474l-1.138,0.103l-1.242-14.021c0.89-0.232,2.088-0.43,3.285-0.536c1.933-0.173,3.228,0.054,4.161,0.76
		c0.725,0.534,1.174,1.404,1.267,2.449c0.143,1.614-0.695,2.984-2.243,3.664l-0.255,0.182l0.052,0.566l0.274,0.068
		c0.989,0.248,1.703,1.084,2.182,2.561c0.509,1.544,0.922,2.771,1.265,3.531L268.398,398.013z"/>
	<path fill="#FFFFFF" d="M267.159,387.662c-0.178-2.012-1.627-3.047-4.116-2.852c-0.843,0.076-1.59,0.215-1.999,0.373l-0.279,0.107
		l0.545,6.148l2.368-0.21C265.931,391.03,267.33,389.595,267.159,387.662z M262.031,390.578l-0.419-4.739
		c0.324-0.083,0.834-0.176,1.497-0.236c0.171-0.013,0.337-0.019,0.499-0.019c1.705,0,2.634,0.723,2.76,2.148
		c0.133,1.507-0.924,2.542-2.759,2.705L262.031,390.578z"/>
	<path fill="#FFFFFF" d="M283.447,395.226l-0.335-0.715c-0.745,0.44-1.758,0.809-2.757,0.992c-3.718,0.676-6.519-1.36-7.227-5.209
		c-0.734-3.997,1.165-6.911,4.958-7.609c0.978-0.18,1.962-0.19,2.814-0.031l0.09-0.849c-0.27-0.054-0.68-0.109-1.23-0.109
		c-0.59,0-1.226,0.062-1.89,0.185c-4.375,0.806-6.772,4.304-5.962,8.705c0.686,3.729,3.158,5.955,6.611,5.955
		c0.515,0,1.05-0.05,1.589-0.149C281.646,396.109,282.804,395.621,283.447,395.226z"/>
	<path fill="#FFFFFF" d="M283.043,393.607c-0.665,0.488-1.749,0.915-2.832,1.113c-3.28,0.605-5.667-1.132-6.299-4.571
		c-0.656-3.565,0.958-6.064,4.319-6.683c1.042-0.191,2.094-0.167,2.914,0.059l0.451,0.124l0.256-2.43l-0.312-0.097
		c-0.269-0.083-0.855-0.222-1.78-0.222c-0.637,0-1.321,0.066-2.034,0.197c-4.767,0.877-7.48,4.838-6.601,9.631
		c0.762,4.136,3.526,6.606,7.396,6.606c0.563,0,1.146-0.055,1.732-0.162c1.91-0.353,3.285-1.001,3.937-1.491l0.257-0.194
		l-1.014-2.169L283.043,393.607z M271.909,390.585c-0.81-4.401,1.587-7.9,5.962-8.705c0.664-0.122,1.301-0.185,1.89-0.185
		c0.553,0,0.962,0.056,1.23,0.109l-0.089,0.849c-0.854-0.159-1.838-0.148-2.814,0.031c-3.793,0.698-5.693,3.612-4.959,7.608
		c0.709,3.85,3.511,5.885,7.227,5.21c1-0.184,2.012-0.552,2.758-0.992l0.335,0.715c-0.644,0.395-1.803,0.883-3.337,1.165
		c-0.539,0.1-1.073,0.149-1.588,0.149C275.067,396.541,272.595,394.314,271.909,390.585z"/>
	<polygon fill="#FFFFFF" points="295.236,392.388 295.013,391.59 288.751,393.336 287.084,387.358 292.703,385.793 292.486,385.014 
		286.866,386.581 285.379,381.247 291.319,379.59 291.098,378.791 284.058,380.754 287.874,394.443 	"/>
	<path fill="#FFFFFF" d="M289.305,392.356l-1.241-4.445l5.618-1.566l-0.644-2.311l-5.619,1.566l-1.06-3.801l5.939-1.656
		l-0.648-2.332l-8.572,2.39l4.243,15.221l8.894-2.48l-0.649-2.332L289.305,392.356z M291.098,378.791l0.222,0.8l-5.94,1.656
		l1.487,5.334l5.619-1.566l0.216,0.779l-5.617,1.566l1.667,5.978l6.262-1.747l0.223,0.8l-7.362,2.054l-3.816-13.689L291.098,378.791
		z"/>
	<path fill="#FFFFFF" d="M307.785,385.777c0.771-1.71,0.735-3.754-0.102-5.913c-0.796-2.054-2.004-3.372-3.692-4.032
		c-1.607-0.644-3.626-0.488-6.053,0.453c-1.146,0.444-2.281,0.977-3.376,1.584l5.079,13.105c0.91-0.254,1.903-0.589,2.958-0.998
		C305.228,388.958,307.021,387.505,307.785,385.777z M302.677,389.128c-0.893,0.346-1.489,0.538-1.936,0.624l-0.326,0.062
		l-4.513-11.649l0.267-0.177c0.375-0.247,1.048-0.631,2.119-1.046c3.827-1.48,6.899-0.183,8.271,3.43
		c0.771,1.987,0.825,3.764,0.162,5.278C306.052,387.177,304.692,388.347,302.677,389.128z"/>
	<path fill="#FFFFFF" d="M304.284,375.092c-1.79-0.717-4.007-0.566-6.633,0.451c-1.287,0.498-2.561,1.104-3.781,1.804l-0.296,0.169
		l5.583,14.41l0.343-0.09c1.031-0.271,2.17-0.646,3.388-1.118c2.828-1.097,4.773-2.694,5.622-4.616
		c0.86-1.906,0.831-4.162-0.085-6.525C307.557,377.334,306.162,375.826,304.284,375.092z M299.642,390.974l-5.079-13.105
		c1.095-0.608,2.229-1.142,3.376-1.584c2.428-0.942,4.445-1.097,6.053-0.453c1.688,0.66,2.896,1.979,3.692,4.032
		c0.837,2.159,0.872,4.203,0.102,5.913c-0.765,1.729-2.558,3.182-5.186,4.199C301.545,390.385,300.552,390.72,299.642,390.974z"/>
	<path fill="#FFFFFF" d="M306.562,380.373c-1.374-3.612-4.446-4.912-8.272-3.43c-1.072,0.415-1.743,0.799-2.119,1.045l-0.267,0.178
		l4.513,11.649l0.326-0.062c0.445-0.086,1.042-0.278,1.935-0.624c2.016-0.779,3.377-1.951,4.046-3.478
		C307.386,384.136,307.331,382.36,306.562,380.373z M300.912,388.896l-4.034-10.412c0.366-0.216,0.915-0.497,1.698-0.8
		c3.418-1.321,6.013-0.26,7.243,2.973c0.691,1.787,0.751,3.36,0.174,4.675c-0.581,1.326-1.793,2.354-3.604,3.056
		C301.966,388.55,301.39,388.767,300.912,388.896z"/>
	<path fill="#FFFFFF" d="M252.683,216.893c-6.615,6.526-10.886,16.747-10.886,28.225v29.155v1.052c0,0.658,0.533,1.192,1.192,1.192
		s1.192-0.534,1.192-1.192v-0.176v-30.031c0-18.347,11.453-33.272,25.531-33.272h58.901c11.897,0,22.313,16.967,24.908,33.56
		c0.404,2.585,0.624,5.161,0.624,7.662c0,0.658,0.535,1.192,1.192,1.192c0.658,0,1.192-0.534,1.192-1.192v-7.949
		c0-0.524-0.34-0.97-0.81-1.129c-2.998-17.297-13.965-34.529-27.108-34.529h-58.901C263.306,209.46,257.399,212.239,252.683,216.893
		z"/>
</g>
</svg>
