<?xml version="1.0" encoding="utf-8"?>
<!-- Generator: Adobe Illustrator 16.0.0, SVG Export Plug-In . SVG Version: 6.00 Build 0)  -->
<!DOCTYPE svg PUBLIC "-//W3C//DTD SVG 1.1 Tiny//EN" "http://www.w3.org/Graphics/SVG/1.1/DTD/svg11-tiny.dtd">
<svg version="1.1" baseProfile="tiny" id="Layer_1" xmlns="http://www.w3.org/2000/svg" xmlns:xlink="http://www.w3.org/1999/xlink"
	 x="0px" y="0px" width="418.447px" height="418.446px" viewBox="0 0 418.447 418.446" xml:space="preserve">
<g>
	<path fill="none" d="M268.314,155.203c-20.01,0-36.288-16.277-36.288-36.284s16.278-36.284,36.288-36.284
		c1.005,0,1.997,0.052,2.981,0.132c-18.738-9.235-39.809-14.434-62.072-14.434c-13.723,0-26.99,1.98-39.541,5.656
		c7.608,6.656,12.428,16.425,12.428,27.304c0,20.007-16.277,36.284-36.284,36.284c-17.381,0-31.94-12.288-35.464-28.631
		c-25.928,25.566-42.028,61.074-42.028,100.277c0,77.687,63.203,140.89,140.89,140.89c77.688,0,140.891-63.203,140.891-140.89
		c0-42.982-19.354-81.523-49.797-107.387c2.73,5.094,4.284,10.91,4.284,17.083C304.601,138.926,288.323,155.203,268.314,155.203z
		 M339.541,198.983c0.592,0.201,1.019,0.761,1.019,1.421v9.999c0,0.828-0.672,1.5-1.5,1.5s-1.5-0.672-1.5-1.5
		c0-3.146-0.277-6.387-0.786-9.639c0.182,2.797,0.286,5.616,0.286,8.458c0,31.696-11.484,60.707-30.51,83.112
		c-2.549,6.534-6.431,12.926-12.345,18.228c-0.286,0.257-0.644,0.383-1,0.383c-0.412,0-0.821-0.168-1.118-0.499
		c-0.553-0.616-0.501-1.564,0.116-2.118c2.641-2.367,4.845-4.981,6.695-7.737c-23.208,22.943-55.108,37.114-90.322,37.114
		c-33.939,0-64.832-13.166-87.833-34.662c1.443,1.75,3.096,3.521,5.001,5.309c0.604,0.567,0.634,1.517,0.067,2.12
		s-1.517,0.634-2.12,0.067c-6.395-6.002-10.173-11.804-12.407-17.307c-19.515-22.524-31.33-51.891-31.33-84.01v-10.384
		c0-30.434,16.988-56.887,37.039-56.887h63.448c12.141,0,22.889,9.051,29.479,22.946c5.934-5.854,13.363-9.35,21.424-9.35h74.096
		C321.973,155.548,335.77,177.224,339.541,198.983z"/>
	<path fill="#133D8D" d="M350.571,111.359L350.571,111.359c1.346,0,2.759-0.527,4.201-1.566c1.529-1.088,2.423-2.359,2.658-3.779
		c0.249-1.507-0.252-3.142-1.489-4.859c-0.532-0.738-0.979-1.244-1.313-1.581l-10.097,7.279c0.213,0.367,0.524,0.834,0.943,1.414
		C346.954,110.318,348.668,111.358,350.571,111.359z"/>
	<path fill="#133D8D" d="M332.411,77.163c-0.42,0.253-0.817,0.485-1.206,0.703l-3.933,2.103l2.684,2.518l1.827-4.03
		C331.989,77.998,332.2,77.571,332.411,77.163z"/>
	<path fill="#133D8D" d="M390.602,192.081c-0.297-3.184-3.28-4.318-5.974-4.318c-0.322,0-0.648,0.015-0.977,0.046
		c-3.032,0.282-6.154,2.105-5.844,5.439c0.244,2.624,2.586,4.32,5.967,4.32c0.315,0,0.635-0.015,0.958-0.045
		C387.778,197.238,390.913,195.414,390.602,192.081z"/>
	<path fill="#133D8D" d="M29.657,226.073l4.335,1.042l-0.332-3.665l-4.044,1.798c-0.459,0.204-0.901,0.384-1.33,0.549
		C28.774,225.886,29.226,225.978,29.657,226.073z"/>
	<path fill="#133D8D" d="M390.623,210.452c0.453-0.596,0.684-1.491,0.666-2.59c-0.011-0.676-0.059-1.196-0.113-1.547l-5.729,0.094
		c-0.049,0.352-0.069,0.781-0.062,1.301c0.022,1.371,0.454,3.673,3.087,3.673C389.464,211.368,390.163,211.054,390.623,210.452z"/>
	<path fill="#133D8D" d="M278.302,43.562l-2.966,3.33l3.387,1.437l0.324-4.412c0.037-0.501,0.087-0.975,0.145-1.431
		C278.883,42.872,278.589,43.227,278.302,43.562z"/>
	<path fill="#133D8D" d="M366.542,129.783c1.659-0.877,2.712-2.02,3.131-3.397c0.445-1.461,0.163-3.147-0.838-5.012
		c-0.431-0.802-0.807-1.362-1.094-1.739l-10.963,5.888c0.208,0.501,0.515,1.09,0.749,1.527
		C359.554,130.824,362.792,131.796,366.542,129.783z"/>
	<path fill="#133D8D" d="M115.36,60.517l-3.464-2.752c-0.393-0.312-0.756-0.62-1.101-0.924c0.146,0.473,0.273,0.915,0.388,1.341
		l1.082,4.326L115.36,60.517z"/>
	<path fill="#133D8D" d="M88.423,71.694l8,9.536c0.435-0.296,0.932-0.702,1.343-1.045c3.296-2.766,3.594-6.099,0.838-9.383
		c-2.472-2.983-5.553-3.173-8.701-0.532C89.206,70.854,88.733,71.337,88.423,71.694z"/>
	<path fill="#133D8D" d="M43.672,269.35l-3.417,2.809c-0.387,0.318-0.765,0.608-1.135,0.882c0.488-0.042,0.947-0.074,1.393-0.098
		l4.455-0.15L43.672,269.35z"/>
	<path fill="#133D8D" d="M177.583,36.473l-2.177-3.852c-0.248-0.437-0.469-0.859-0.674-1.271c-0.042,0.489-0.09,0.947-0.143,1.39
		l-0.621,4.415L177.583,36.473z"/>
	<path fill="#133D8D" d="M42.356,150.135c1.005,0.39,2.055,0.596,3.035,0.596c2.235,0,3.921-1.042,4.625-2.857
		c0.531-1.37,0.38-2.76-0.437-4.018c-0.786-1.211-2.155-2.242-3.855-2.9c-1.01-0.391-2.073-0.598-3.076-0.598
		c-1.309,0-3.648,0.37-4.608,2.85C36.818,146.365,39.327,148.962,42.356,150.135z"/>
	<path fill="#133D8D" d="M137.98,40.752l4.574,11.579c0.405-0.114,0.927-0.3,1.603-0.567c2.015-0.796,3.36-1.95,3.998-3.43
		c0.632-1.468,0.554-3.22-0.231-5.208c-0.692-1.785-2.126-3.91-5.032-3.91c-0.933,0-1.961,0.22-3.057,0.652
		C138.987,40.204,138.387,40.512,137.98,40.752z"/>
	<path fill="#133D8D" d="M227.135,379.808c-0.159-1.793-1.327-2.702-3.471-2.702c-0.204,0-0.413,0.008-0.628,0.024
		c-0.834,0.075-1.475,0.191-1.884,0.297l0.528,5.961l1.984-0.176C225.973,383.007,227.302,381.703,227.135,379.808z"/>
	<path fill="#133D8D" d="M48.511,126.492c-0.43-0.214-0.845-0.323-1.232-0.323c-1.271,0-2.141,1.18-2.646,2.169
		c-0.318,0.641-0.524,1.164-0.637,1.52l4.695,2.336l0.769-1.544C50.365,128.827,50.002,127.233,48.511,126.492z"/>
	<path fill="#133D8D" d="M276.984,376.79c0.726-1.654,0.651-3.633-0.22-5.88c-1.547-4.067-4.812-5.402-9.111-3.741
		c-0.984,0.382-1.675,0.734-2.136,1.006l5.075,13.099c0.6-0.162,1.324-0.434,1.857-0.64
		C274.727,379.75,276.252,378.458,276.984,376.79z"/>
	<path fill="#133D8D" d="M209.223,3C95.511,3,3,95.511,3,209.223s92.511,206.223,206.223,206.223s206.224-92.511,206.224-206.223
		S322.935,3,209.223,3z M393.61,203.516c0.242,1.318,0.377,2.749,0.401,4.251c0.037,2.23-0.448,3.941-1.444,5.084
		c-0.895,1.07-2.271,1.678-3.869,1.704l-0.135,0.001c-1.572,0-2.863-0.463-3.836-1.377c-1.308-1.188-2.053-3.134-2.093-5.475
		c-0.006-0.414-0.004-0.842,0.036-1.25l-6.653,0.111l-0.055-3.175l17.57-0.29L393.61,203.516z M385.139,200.799
		c-0.44,0.041-0.867,0.061-1.28,0.061c-4.938,0-8.402-2.936-8.825-7.479c-0.441-4.732,2.955-8.383,8.26-8.878
		c5.528-0.517,9.631,2.597,10.081,7.421C393.823,196.73,390.513,200.298,385.139,200.799z M390.874,175.681l-14.801,2.595
		l1.243,7.093l-2.783,0.487l-1.793-10.221l17.585-3.083L390.874,175.681z M389.62,169.083l-2.74,0.689l-1.69-6.716l-4.194,1.056
		l1.6,6.353l-2.717,0.683l-1.599-6.353l-4.923,1.239l1.782,7.08l-2.738,0.69l-2.559-10.159l17.312-4.358L389.62,169.083z
		 M382.87,145.982l-7.318,5.357c-1.42,1.045-2.678,1.949-3.877,2.75c1.359-0.06,2.747-0.07,3.997-0.07l9.925,0.04l1.086,3.214
		l-18.951-0.338l-0.996-2.95l15.045-11.229L382.87,145.982z M355.056,95.875c1.106,1.132,2.128,2.344,3.036,3.604
		c1.877,2.604,2.654,4.932,2.378,7.119c-0.266,2.263-1.519,4.219-3.723,5.807c-1.898,1.368-3.847,2.062-5.791,2.062
		c-0.442,0-0.885-0.038-1.316-0.111c-2.344-0.379-4.643-2.048-6.645-4.825c-0.862-1.196-1.596-2.33-2.179-3.369l-0.218-0.389
		l14.156-10.205L355.056,95.875z M345.176,83.922l-2.898,9.956c-0.392,1.34-0.8,2.582-1.236,3.75c1.071-1.04,2.173-2.037,3.4-3.122
		l5.664-4.994l2.019,2.288l-13.39,11.81l-1.971-2.233l2.953-9.936c0.47-1.585,0.912-2.938,1.35-4.125
		c-1.035,0.981-2.161,2.003-3.569,3.247l-5.776,5.095l-2.019-2.288l13.39-11.809L345.176,83.922z M336.608,75.22l-7.77,17.187
		l-2.468-2.313l2.313-5.098l-3.832-3.596l-4.903,2.668l-2.414-2.264l16.637-8.87L336.608,75.22z M314.482,57.077l-4.144,5.706
		l5.787,4.203l4.143-5.705l2.59,1.879l-10.49,14.447l-2.591-1.88l4.644-6.394l-5.787-4.203l-4.644,6.393l-2.568-1.866l10.49-14.446
		L314.482,57.077z M296.846,49.35l1.471-2.441l11.539,6.951l-1.471,2.441l-4.41-2.657l-7.735,12.844l-2.741-1.649l7.736-12.845
		L296.846,49.35z M293.345,44.381l-6.979,13.306l6.376,3.345l-1.312,2.501l-9.188-4.819l8.29-15.807L293.345,44.381z
		 M282.461,39.216l-1.366,18.809l-3.113-1.321l0.413-5.581l-4.836-2.053l-3.681,4.194l-3.047-1.293l12.555-14.06L282.461,39.216z
		 M271.679,34.849l-0.885,2.683l-6.577-2.169l-1.354,4.108l6.219,2.051l-0.875,2.659l-6.221-2.051l-1.589,4.819l6.933,2.286
		l-0.885,2.683l-9.948-3.279l5.589-16.953L271.679,34.849z M244.752,27.304l3.092,0.73l-1.623,6.863l6.962,1.645l1.621-6.863
		l3.115,0.736l-4.107,17.377l-3.114-0.736l1.817-7.691l-6.961-1.645l-1.818,7.69l-3.09-0.73L244.752,27.304z M225.61,24.642
		l1.954,5.17c0.389,1.026,0.689,1.859,0.965,2.674c0.386-0.623,0.804-1.256,1.265-1.955l3.385-5.047l3.626,0.404l-7.121,9.579
		l-0.834,7.492l-3.18-0.354l0.831-7.474l-4.493-10.89L225.61,24.642z M213.077,23.894l3.172,0.152l-0.715,15.012l7.193,0.342
		l-0.135,2.823l-10.365-0.495L213.077,23.894z M208.991,23.88l0.294,17.846l-3.175,0.052l-0.293-17.846L208.991,23.88z
		 M189.036,24.872l3.671,8.211c0.661,1.535,1.178,2.807,1.6,3.938c0.245-1.173,0.568-2.515,0.999-4.149l2.424-8.708l3.582-0.293
		l2.557,17.701l-3.119,0.254l-1.089-7.809c-0.183-1.354-0.391-2.896-0.562-4.364c-0.284,1.181-0.607,2.426-0.975,3.756l-2.393,8.725
		l-2.351,0.192l-3.511-8.105c-0.554-1.289-1.019-2.415-1.417-3.433c0.055,1.393,0.101,2.88,0.132,4.31l0.146,7.708l-3.07,0.251
		l-0.209-17.892L189.036,24.872z M172.355,27.435l3.284-0.619l9.296,16.409l-3.323,0.629l-2.753-4.875l-5.164,0.975l-0.736,5.534
		l-3.252,0.613L172.355,27.435z M166.439,28.634l0.721,2.731l-6.671,1.76l1.174,4.448l6.163-1.627l0.716,2.707l-6.165,1.627
		l1.945,7.372l-3.069,0.811l-4.554-17.258L166.439,28.634z M134.5,39.428c1.368-0.794,2.794-1.486,4.24-2.057
		c2.956-1.167,5.456-1.353,7.486-0.556c2.13,0.815,3.718,2.511,4.715,5.037c1.051,2.662,1.1,5.21,0.143,7.371
		c-0.945,2.18-3.129,3.998-6.312,5.255c-1.361,0.539-2.64,0.97-3.802,1.283l-0.431,0.116l-6.412-16.232L134.5,39.428z
		 M120.487,46.099l8.943,5.239c1.204,0.706,2.307,1.405,3.332,2.112c-0.749-1.294-1.445-2.604-2.194-4.056l-3.461-6.71l2.711-1.397
		L138,57.148l-2.646,1.364l-8.912-5.287c-1.422-0.842-2.624-1.599-3.667-2.312c0.697,1.241,1.414,2.581,2.274,4.251l3.53,6.843
		l-2.711,1.397l-8.183-15.863L120.487,46.099z M109.934,52.297l14.776,11.72l-2.844,1.829l-4.38-3.484l-4.42,2.842l1.395,5.404
		l-2.785,1.79l-4.551-18.292L109.934,52.297z M84.704,71.54c1.045-1.186,2.18-2.293,3.372-3.293c2.457-2.062,4.73-3.006,6.924-2.895
		c2.278,0.102,4.319,1.207,6.065,3.287c1.838,2.192,2.691,4.593,2.467,6.944c-0.207,2.366-1.702,4.781-4.324,6.981
		c-1.125,0.944-2.201,1.758-3.199,2.419l-0.372,0.247L84.419,71.862L84.704,71.54z M76.966,78.744L87.558,89.4l5.107-5.077
		l1.99,2.005l-7.358,7.314l-12.583-12.66L76.966,78.744z M72.165,83.768l13.237,11.973l-2.129,2.355L70.035,86.122L72.165,83.768z
		 M60.919,97.165l5.529,4.372l4.434-5.608l-5.529-4.372l1.984-2.511l14,11.071l-1.984,2.509l-6.197-4.899l-4.433,5.607l6.195,4.899
		l-1.968,2.49l-14-11.069L60.919,97.165z M35.489,142.112c1.245-3.212,3.931-5.055,7.371-5.055c1.287,0,2.62,0.264,3.964,0.785
		c2.679,1.038,4.618,2.693,5.607,4.787c0.919,1.945,0.964,4.205,0.127,6.364c-1.222,3.156-3.994,5.04-7.415,5.04
		c-1.282,0-2.608-0.262-3.942-0.779c-2.538-0.983-4.426-2.587-5.46-4.64C34.73,146.609,34.641,144.3,35.489,142.112z
		 M31.988,152.605l2.714,0.783l-1.912,6.629l4.419,1.274l1.766-6.124l2.69,0.774l-1.766,6.125l7.326,2.113l-0.882,3.049
		l-17.147-4.946L31.988,152.605z M27.035,171.459l2.781,0.494l-1.209,6.817l4.258,0.754l1.144-6.448l2.756,0.488l-1.144,6.449
		l4.997,0.886l1.275-7.187l2.782,0.494l-1.83,10.312l-17.572-3.117L27.035,171.459z M24.06,188.965
		c0.235-2.476,0.982-3.791,1.205-4.135l0.224-0.346l2.646,1.067l-0.307,0.503c-0.499,0.818-0.836,1.921-0.95,3.105
		c-0.174,1.819,0.254,3.393,1.237,4.548c1.013,1.191,2.606,1.922,4.606,2.113c3.915,0.368,6.459-1.629,6.816-5.352
		c0.117-1.225-0.01-2.519-0.33-3.377l-0.214-0.571l2.763-0.446l0.146,0.378c0.332,0.86,0.612,2.555,0.404,4.733
		c-0.472,4.924-3.783,7.983-8.641,7.983c-0.383,0-0.778-0.019-1.184-0.058c-2.708-0.259-4.949-1.371-6.479-3.217
		C24.474,194.052,23.802,191.655,24.06,188.965z M23.201,211.988l8.847-5.402c1.192-0.727,2.33-1.368,3.437-1.936
		c-1.368,0.044-2.872,0.044-4.612,0.015l-7.548-0.125l0.05-3.05l17.845,0.294l-0.049,2.976l-8.873,5.35
		c-1.415,0.855-2.651,1.557-3.773,2.139c1.454-0.03,2.965-0.025,4.822,0.006l7.699,0.126l-0.051,3.05l-17.846-0.293L23.201,211.988z
		 M23.86,224.458l17.23-7.679l0.305,3.368l-5.117,2.271l0.474,5.235l5.438,1.264l0.299,3.298l-18.328-4.429L23.86,224.458z
		 M25.206,236.243l17.638-2.733l0.487,3.136l-17.639,2.735L25.206,236.243z M27.5,248.831l14.7-3.09l-1.481-7.045l2.765-0.58
		l2.133,10.15l-17.464,3.671L27.5,248.831z M30.732,261.494l14.444-4.127l-1.977-6.922l2.715-0.775l2.85,9.975l-17.159,4.902
		L30.732,261.494z M35.674,276.056l-1.178-3.126l14.557-11.985l1.191,3.164l-4.325,3.55l1.851,4.918l5.574-0.229l1.167,3.098
		L35.674,276.056z M61.297,129.195l-1.132,2.273l-0.408,0.021c-0.598,0-1.796-0.232-4.134-0.803
		c-2.126-0.543-3.014-0.267-3.878,1.316l-0.682,1.371l6.536,3.252l-1.415,2.843l-15.699-7.812l0.104-0.395
		c0.288-1.083,0.879-2.574,1.583-3.989c1.094-2.197,2.225-3.429,3.668-3.995c1.155-0.471,2.583-0.379,3.861,0.258
		c1.712,0.852,2.701,2.408,2.762,4.273c0.984-0.518,2.243-0.594,3.782-0.222c2.046,0.483,3.801,0.884,4.533,0.884h0.808
		L61.297,129.195z M62.338,120.618c-1.756,0-3.536-0.579-5.289-1.72c-4.613-3.004-5.749-8.306-2.761-12.895
		c1.36-2.088,2.628-2.905,2.985-3.105l0.358-0.202l1.851,2.169l-0.504,0.304c-0.824,0.497-1.634,1.318-2.281,2.312
		c-2.075,3.188-1.293,6.406,2.091,8.61c3.245,2.113,6.492,1.527,8.518-1.584c0.672-1.031,1.16-2.236,1.274-3.146l0.076-0.604
		l2.654,0.885l-0.046,0.403c-0.105,0.917-0.643,2.55-1.835,4.382C67.668,119.13,65.15,120.618,62.338,120.618z M146.253,383.964
		c-0.975,0-2.003-0.201-3.058-0.597c-2.544-0.953-6.422-3.595-3.807-10.571l4.077-10.875l3.243,1.216l-4.096,10.928
		c-1.249,3.333-0.641,5.653,1.71,6.535c2.528,0.946,4.489-0.317,5.769-3.732l4.097-10.927l3.243,1.215l-4.038,10.771
		C151.522,382.917,148.478,383.963,146.253,383.964z M172.437,375.022l-0.448-0.384c-0.825-0.704-1.993-1.278-3.289-1.616
		c-0.728-0.189-1.44-0.285-2.118-0.285c-3.115,0-5.434,2.042-6.362,5.603c-0.545,2.091-0.406,3.979,0.403,5.464
		c0.817,1.501,2.319,2.573,4.343,3.101c1.315,0.343,2.831,0.437,3.822,0.238l0.598-0.119v3.012l-0.396,0.084
		c-0.405,0.086-0.918,0.131-1.482,0.131c-0.809,0-2.124-0.092-3.797-0.526c-5.775-1.507-8.512-6.297-6.973-12.204
		c1.265-4.852,4.956-7.864,9.631-7.864c0.984,0,2,0.134,3.019,0.4c2.685,0.7,3.996,1.751,4.333,2.056l0.306,0.276L172.437,375.022z
		 M199.292,394.934l-3.366-0.352l0.407-8.764c0.082-1.626,0.177-3.501,0.304-5.256c-0.592,1.333-1.249,2.737-1.983,4.24
		l-4.415,9.075l-2.542-0.265l-2.184-9.604c-0.378-1.684-0.68-3.129-0.919-4.422c-0.24,1.653-0.515,3.432-0.794,5.125l-1.418,8.461
		l-3.312-0.346l3.436-19.62l3.907,0.407l2.341,9.756c0.43,1.909,0.747,3.474,0.983,4.865c0.525-1.288,1.18-2.754,2.033-4.551
		l4.442-9.05l3.907,0.405L199.292,394.934z M204.229,394.962l-0.326-19.871l11.192-0.183l0.051,3.044l-7.756,0.127l0.081,4.964
		l7.336-0.12l0.05,3.016l-7.336,0.12l0.094,5.805l8.176-0.134l0.049,3.044L204.229,394.962z M229.177,393.792l-0.165-0.235
		c-0.354-0.502-0.853-1.81-1.721-4.514c-0.725-2.342-1.657-3.069-3.589-2.975l-1.771,0.157l0.722,8.145l-3.423,0.304l-1.724-19.453
		l0.391-0.117c1.204-0.359,2.969-0.667,4.723-0.822c2.739-0.241,4.542,0.109,5.92,1.151c1.141,0.84,1.85,2.188,1.991,3.794
		c0.189,2.144-0.74,4.004-2.521,5.137c1.099,0.617,1.933,1.789,2.486,3.497c0.785,2.383,1.42,4.26,1.849,4.91l0.461,0.699
		L229.177,393.792z M249.555,389.81c-0.817,0.616-2.548,1.433-4.95,1.876c-0.738,0.135-1.471,0.204-2.18,0.204
		c-4.867,0-8.345-3.107-9.303-8.311c-1.108-6.03,2.307-11.012,8.303-12.116c0.896-0.164,1.757-0.248,2.559-0.248
		c1.164,0,1.902,0.175,2.239,0.279l0.392,0.121l-0.321,3.057l-0.568-0.156c-1.031-0.283-2.355-0.314-3.666-0.073
		c-4.228,0.777-6.259,3.921-5.434,8.406c0.795,4.328,3.798,6.513,7.924,5.751c1.362-0.25,2.728-0.787,3.563-1.401l0.491-0.361
		l1.275,2.729L249.555,389.81z M253.495,389.483l-5.338-19.147l10.783-3.007l0.817,2.934l-7.473,2.084l1.334,4.782l7.068-1.971
		l0.81,2.906l-7.067,1.971l1.56,5.592l7.877-2.197l0.817,2.934L253.495,389.483z M280.15,377.757
		c-1.068,2.419-3.516,4.428-7.074,5.807c-1.53,0.594-2.964,1.067-4.26,1.407l-0.432,0.113l-7.024-18.127l0.374-0.213
		c1.535-0.879,3.136-1.642,4.756-2.269c3.303-1.28,6.092-1.47,8.343-0.567c2.363,0.922,4.117,2.82,5.209,5.641
		C281.194,372.521,281.231,375.359,280.15,377.757z M209.223,353.113c-79.341,0-143.89-64.549-143.89-143.89
		c0-40.798,17.07-77.682,44.439-103.892c-0.147-1.327-0.23-2.672-0.23-4.038c0-20.007,16.277-36.284,36.284-36.284
		c7.813,0,15.051,2.49,20.979,6.708c13.415-4.147,27.66-6.384,42.419-6.384c27.005,0,52.292,7.484,73.908,20.477
		c3.549,1.595,6.801,3.735,9.637,6.327c36.507,26.124,60.346,68.872,60.346,117.086
		C353.114,288.564,288.565,353.113,209.223,353.113z M354.904,127.976c-0.7-1.305-1.277-2.524-1.717-3.625l-0.165-0.415
		l15.371-8.254l0.258,0.344c0.945,1.262,1.799,2.598,2.536,3.97c1.517,2.825,1.982,5.235,1.422,7.369
		c-0.562,2.208-2.061,3.981-4.452,5.266c-1.671,0.898-3.333,1.353-4.94,1.353c-0.811,0-1.605-0.119-2.36-0.353
		C358.583,132.947,356.524,130.991,354.904,127.976z M377.032,131.74l3.989,9.277l-2.596,1.116l-2.734-6.361l-3.973,1.707
		l2.587,6.017l-2.573,1.106l-2.586-6.017l-4.662,2.004l2.883,6.706l-2.595,1.117l-4.138-9.623L377.032,131.74z M379.33,281.657
		l-2.661-1.018l1.839-4.81l-14.008-5.355l1.143-2.988l14.008,5.355l1.83-4.786l2.661,1.019L379.33,281.657z M387.822,256.614
		l-9.944,2.937c-1.339,0.395-2.604,0.721-3.822,0.984c1.459,0.341,2.891,0.729,4.461,1.178l7.264,2.068l-0.836,2.934l-17.17-4.892
		l0.815-2.863l9.957-2.881c1.589-0.461,2.966-0.818,4.198-1.091c-1.388-0.343-2.854-0.737-4.658-1.252l-7.407-2.109l0.836-2.934
		l17.17,4.892L387.822,256.614z M389.506,249.885l-2.775-0.536l1.314-6.801l-4.247-0.821l-1.243,6.433l-2.75-0.532l1.243-6.432
		l-4.983-0.963l-1.386,7.169l-2.774-0.537l1.988-10.286l17.529,3.388L389.506,249.885z M393.474,222.584l-8.728,2.183
		c-1.622,0.382-2.963,0.669-4.154,0.887c1.116,0.447,2.38,0.999,3.909,1.707l8.152,3.907l-0.339,3.577l-17.873-0.571l0.294-3.113
		l7.879,0.288c1.36,0.057,2.916,0.12,4.394,0.209c-1.106-0.483-2.275-1.018-3.525-1.613l-8.175-3.881l0.221-2.347l8.595-2.042
		c1.365-0.321,2.556-0.583,3.627-0.797c-1.377-0.188-2.849-0.403-4.266-0.622l-7.616-1.2l0.29-3.067l17.653,2.918L393.474,222.584z"
		/>
	<path fill="#FFFFFF" d="M169.682,73.989c12.551-3.676,25.818-5.656,39.541-5.656c22.264,0,43.334,5.199,62.072,14.434
		c4.186,0.342,8.17,1.396,11.836,3.043c-21.616-12.993-46.903-20.477-73.908-20.477c-14.759,0-29.004,2.237-42.419,6.384
		C167.802,72.427,168.763,73.185,169.682,73.989z"/>
	<path fill="#FFFFFF" d="M209.223,0C93.857,0,0,93.857,0,209.223s93.857,209.223,209.223,209.223s209.224-93.856,209.224-209.223
		S324.589,0,209.223,0z M209.223,415.446C95.511,415.446,3,322.935,3,209.223S95.511,3,209.223,3s206.224,92.511,206.224,206.223
		S322.935,415.446,209.223,415.446z"/>
	<path fill="#FFFFFF" d="M292.768,92.137c3.033,2.771,5.593,6.05,7.549,9.699c30.443,25.864,49.797,64.405,49.797,107.387
		c0,77.687-63.203,140.89-140.891,140.89c-77.687,0-140.89-63.203-140.89-140.89c0-39.203,16.1-74.711,42.028-100.277
		c-0.255-1.185-0.453-2.391-0.589-3.615c-27.369,26.21-44.439,63.094-44.439,103.892c0,79.341,64.549,143.89,143.89,143.89
		c79.342,0,143.891-64.549,143.891-143.89C353.114,161.009,329.275,118.261,292.768,92.137z"/>
	<path fill="#FFFFFF" d="M47.089,273.606l-2.357-6.266l4.325-3.55l-0.446-1.186l-12.925,10.642l0.673,1.786l16.726-0.543
		l-0.419-1.113L47.089,273.606z M40.556,273.942c-0.919,0.048-1.912,0.136-3.113,0.276l-0.392,0.045l-0.267-0.731l0.478-0.394
		c0.757-0.531,1.541-1.08,2.357-1.752l4.497-3.696l2.278,6.056L40.556,273.942z"/>
	<path fill="#FFFFFF" d="M47.771,272.577l-1.851-4.918l4.325-3.55l-1.191-3.164L34.497,272.93l1.178,3.126l18.837-0.611
		l-1.167-3.098L47.771,272.577z M36.358,275.033l-0.673-1.786l12.925-10.642l0.446,1.186l-4.325,3.55l2.357,6.266l5.575-0.229
		l0.419,1.113L36.358,275.033z"/>
	<path fill="#FFFFFF" d="M39.619,271.386c-0.816,0.672-1.6,1.221-2.357,1.752l-0.478,0.394l0.267,0.731l0.392-0.045
		c1.201-0.141,2.193-0.229,3.113-0.276l5.839-0.196l-2.278-6.056L39.619,271.386z M39.12,273.041
		c0.37-0.273,0.748-0.563,1.135-0.882l3.417-2.809l1.296,3.442l-4.455,0.15C40.067,272.966,39.608,272.999,39.12,273.041z"/>
	<polygon fill="#FFFFFF" points="47.528,258.957 45.228,250.906 44.436,251.132 46.413,258.054 31.968,262.181 32.292,263.31 	"/>
	<path fill="#FFFFFF" d="M45.915,249.669l-2.715,0.775l1.977,6.922l-14.444,4.127l0.873,3.053l17.159-4.902L45.915,249.669z
		 M46.413,258.054l-1.977-6.922l0.792-0.227l2.3,8.051l-15.236,4.354l-0.323-1.129L46.413,258.054z"/>
	<polygon fill="#FFFFFF" points="44.433,247.493 42.711,239.299 41.904,239.469 43.385,246.514 28.685,249.604 28.926,250.753 	"/>
	<path fill="#FFFFFF" d="M43.484,238.116l-2.765,0.58l1.481,7.045l-14.7,3.09l0.653,3.106l17.464-3.671L43.484,238.116z
		 M43.385,246.514l-1.481-7.045l0.807-0.17l1.722,8.193l-15.507,3.261l-0.241-1.149L43.385,246.514z"/>
	
		<rect x="33.681" y="228.52" transform="matrix(0.1537 0.9881 -0.9881 0.1537 262.6335 166.2322)" fill="#FFFFFF" width="1.175" height="15.849"/>
	<path fill="#FFFFFF" d="M42.844,233.509l-17.638,2.733l0.486,3.138l17.639-2.735L42.844,233.509z M42.009,234.65l0.181,1.161
		l-15.663,2.429l-0.18-1.161L42.009,234.65z"/>
	<path fill="#FFFFFF" d="M41.368,230.915l-0.107-1.187l-5.438-1.264l-0.604-6.669l5.117-2.271l-0.115-1.263l-15.3,6.819l0.173,1.901
		L41.368,230.915z M26.406,225.417c0.892-0.316,1.813-0.643,2.804-1.084l5.32-2.364l0.584,6.444l-5.682-1.366
		c-0.881-0.194-1.861-0.374-3.076-0.563l-0.383-0.06l-0.076-0.775L26.406,225.417z"/>
	<path fill="#FFFFFF" d="M42.191,228.917l-5.438-1.264l-0.474-5.235l5.117-2.271l-0.305-3.368l-17.23,7.679l0.302,3.329
		l18.328,4.429L42.191,228.917z M40.221,218.261l0.115,1.263l-5.117,2.271l0.604,6.669l5.438,1.264l0.107,1.187l-16.274-3.933
		l-0.173-1.901L40.221,218.261z"/>
	<path fill="#FFFFFF" d="M26.357,226.484c1.214,0.189,2.195,0.369,3.076,0.563l5.682,1.366l-0.584-6.444l-5.32,2.364
		c-0.991,0.441-1.913,0.768-2.804,1.084l-0.507,0.231l0.076,0.775L26.357,226.484z M33.661,223.45l0.332,3.665l-4.335-1.042
		c-0.432-0.095-0.883-0.187-1.371-0.276c0.429-0.165,0.871-0.345,1.33-0.549L33.661,223.45z"/>
	<path fill="#FFFFFF" d="M26.409,213.316l-0.388,0.016l-0.239-0.793l0.379-0.256c1.584-0.706,3.371-1.668,5.62-3.027l8.399-5.065
		l0.023-1.422l-15.845-0.261l-0.017,1.05l6.548,0.108c2.735,0.044,4.81,0.015,6.884-0.135l0.344-0.025l0.361,0.774l-0.442,0.258
		c-1.741,0.772-3.529,1.722-5.466,2.902l-8.377,5.115l-0.026,1.6l15.846,0.262l0.018-1.05l-6.699-0.11
		C30.568,213.208,28.551,213.223,26.409,213.316z"/>
	<path fill="#FFFFFF" d="M41.046,212.381l-7.699-0.126c-1.857-0.031-3.368-0.036-4.822-0.006c1.122-0.582,2.358-1.283,3.773-2.139
		l8.873-5.35l0.049-2.976l-17.845-0.294l-0.05,3.05l7.548,0.125c1.741,0.029,3.244,0.029,4.612-0.015
		c-1.106,0.568-2.244,1.209-3.437,1.936l-8.847,5.402l-0.052,3.15l17.846,0.293L41.046,212.381z M40.012,214.416l-15.846-0.262
		l0.026-1.6l8.377-5.115c1.937-1.181,3.725-2.13,5.466-2.902l0.442-0.258l-0.361-0.774l-0.344,0.025
		c-2.074,0.15-4.149,0.179-6.884,0.135l-6.548-0.108l0.017-1.05l15.845,0.261l-0.023,1.422l-8.399,5.065
		c-2.25,1.359-4.036,2.321-5.62,3.027l-0.379,0.256l0.239,0.793l0.388-0.016c2.143-0.093,4.159-0.107,6.921-0.061l6.699,0.11
		L40.012,214.416z"/>
	<path fill="#FFFFFF" d="M32.576,198.118c4.933,0.471,8.282-2.301,8.734-7.025c0.163-1.704,0.002-3.079-0.219-3.896l-0.77,0.125
		c0.237,0.937,0.318,2.124,0.21,3.245c-0.378,3.945-2.96,6.3-6.908,6.3c-0.324,0-0.657-0.016-0.999-0.049
		c-2.264-0.216-4.087-1.067-5.272-2.46c-1.162-1.367-1.671-3.196-1.47-5.292c0.106-1.103,0.39-2.152,0.812-3.017l-0.791-0.319
		c-0.272,0.542-0.685,1.614-0.849,3.331c-0.231,2.419,0.362,4.562,1.717,6.197C28.129,196.896,30.136,197.884,32.576,198.118z"/>
	<path fill="#FFFFFF" d="M32.481,199.113c0.406,0.039,0.801,0.058,1.184,0.058c4.858,0,8.169-3.059,8.641-7.983
		c0.208-2.178-0.072-3.873-0.404-4.733l-0.146-0.378l-2.763,0.446l0.214,0.571c0.32,0.858,0.447,2.152,0.33,3.377
		c-0.357,3.722-2.901,5.72-6.816,5.352c-2-0.191-3.593-0.922-4.606-2.113c-0.983-1.156-1.411-2.729-1.237-4.548
		c0.114-1.185,0.452-2.287,0.95-3.105l0.307-0.503l-2.646-1.067l-0.224,0.346c-0.223,0.344-0.97,1.66-1.205,4.135
		c-0.258,2.69,0.414,5.086,1.942,6.93C27.532,197.742,29.772,198.854,32.481,199.113z M25.055,189.061
		c0.164-1.717,0.577-2.789,0.849-3.331l0.791,0.319c-0.421,0.864-0.706,1.914-0.812,3.017c-0.201,2.095,0.308,3.925,1.47,5.292
		c1.185,1.394,3.008,2.244,5.272,2.46c0.341,0.033,0.674,0.049,0.999,0.049c3.948,0,6.53-2.355,6.908-6.3
		c0.107-1.121,0.026-2.308-0.21-3.245l0.77-0.125c0.222,0.817,0.382,2.192,0.219,3.896c-0.453,4.724-3.801,7.497-8.734,7.025
		c-2.44-0.233-4.447-1.222-5.805-2.86C25.417,193.623,24.823,191.48,25.055,189.061z"/>
	<polygon fill="#FFFFFF" points="42.703,174.872 41.428,182.059 34.462,180.825 35.606,174.376 34.819,174.236 33.675,180.684 
		27.448,179.581 28.657,172.763 27.845,172.618 26.432,180.593 42.035,183.36 43.516,175.017 	"/>
	<path fill="#FFFFFF" d="M44.675,174.207l-2.782-0.494l-1.275,7.187l-4.997-0.886l1.144-6.449l-2.756-0.488l-1.144,6.448
		l-4.258-0.754l1.209-6.817l-2.781-0.494l-1.763,9.943l17.572,3.117L44.675,174.207z M26.432,180.593l1.414-7.975l0.812,0.145
		l-1.209,6.818l6.227,1.103l1.144-6.448l0.788,0.14l-1.144,6.449l6.965,1.234l1.275-7.187l0.813,0.145l-1.48,8.344L26.432,180.593z"
		/>
	<polygon fill="#FFFFFF" points="40.427,156.626 39.659,156.405 37.893,162.53 31.552,160.701 33.464,154.072 32.672,153.844 
		30.434,161.601 45.661,165.993 45.987,164.864 38.661,162.751 	"/>
	<path fill="#FFFFFF" d="M47.225,164.181l-7.326-2.113l1.766-6.125l-2.69-0.774l-1.766,6.124l-4.419-1.274l1.912-6.629l-2.714-0.783
		l-2.792,9.679l17.147,4.946L47.225,164.181z M45.661,165.993l-15.227-4.392l2.238-7.757l0.792,0.229l-1.912,6.629l6.341,1.829
		l1.766-6.125l0.768,0.221l-1.766,6.125l7.326,2.113L45.661,165.993z"/>
	<path fill="#FFFFFF" d="M36.634,148.164c0.921,1.828,2.625,3.265,4.929,4.157c1.218,0.472,2.423,0.711,3.581,0.711
		c2.992,0,5.416-1.645,6.482-4.401c0.737-1.901,0.702-3.881-0.099-5.576c-0.878-1.857-2.629-3.338-5.064-4.281
		c-1.229-0.476-2.441-0.718-3.603-0.718c-3.004,0-5.351,1.61-6.438,4.416C35.677,144.394,35.752,146.416,36.634,148.164z
		 M37.108,142.846c0.859-2.217,2.878-3.488,5.541-3.488c1.125,0,2.313,0.23,3.437,0.666c1.894,0.734,3.433,1.901,4.333,3.288
		c0.999,1.539,1.182,3.242,0.53,4.924c-0.861,2.222-2.887,3.496-5.558,3.496c-1.103,0-2.277-0.229-3.396-0.663
		C38.502,149.715,35.636,146.648,37.108,142.846z"/>
	<path fill="#FFFFFF" d="M41.202,153.254c1.334,0.517,2.66,0.779,3.942,0.779c3.421,0,6.193-1.884,7.415-5.04
		c0.837-2.159,0.792-4.419-0.127-6.364c-0.99-2.094-2.929-3.749-5.607-4.787c-1.344-0.521-2.678-0.785-3.964-0.785
		c-3.439,0-6.126,1.842-7.371,5.055c-0.848,2.188-0.758,4.498,0.252,6.502C36.775,150.667,38.664,152.271,41.202,153.254z
		 M42.859,138.057c1.162,0,2.375,0.242,3.603,0.718c2.435,0.943,4.187,2.424,5.064,4.281c0.801,1.694,0.836,3.675,0.099,5.576
		c-1.067,2.756-3.49,4.401-6.482,4.401c-1.158,0-2.362-0.239-3.581-0.711c-2.303-0.892-4.008-2.33-4.929-4.157
		c-0.882-1.749-0.957-3.77-0.213-5.691C37.509,139.667,39.855,138.057,42.859,138.057z"/>
	<path fill="#FFFFFF" d="M41.995,151.068c1.119,0.434,2.293,0.663,3.396,0.663c2.67,0,4.696-1.274,5.558-3.496
		c0.652-1.682,0.469-3.385-0.53-4.924c-0.9-1.387-2.438-2.554-4.333-3.288c-1.124-0.436-2.312-0.666-3.437-0.666
		c-2.663,0-4.682,1.271-5.541,3.488C35.636,146.648,38.502,149.715,41.995,151.068z M38.041,143.208
		c0.96-2.479,3.299-2.85,4.608-2.85c1.002,0,2.066,0.207,3.076,0.598c1.7,0.658,3.069,1.688,3.855,2.9
		c0.817,1.258,0.968,2.648,0.437,4.018c-0.704,1.815-2.39,2.857-4.625,2.857c-0.98,0-2.03-0.206-3.035-0.596
		C39.327,148.962,36.818,146.365,38.041,143.208z"/>
	<path fill="#FFFFFF" d="M56.013,128.562c-1.672-0.405-2.875-0.22-3.682,0.572l-0.257,0.252l-0.637-0.325l-0.019-0.386
		c0.254-1.856-0.555-3.442-2.163-4.242c-1.023-0.51-2.138-0.593-3.044-0.225c-1.2,0.471-2.168,1.553-3.143,3.511
		c-0.593,1.192-1.101,2.433-1.399,3.41l14.065,6.999l0.524-1.052l-6.536-3.252l1.136-2.284c0.792-1.451,1.772-2.09,3.189-2.09
		c0.521,0,1.116,0.087,1.818,0.267c1.229,0.3,2.892,0.69,3.676,0.762l0.531-1.068C59.104,129.284,57.731,128.968,56.013,128.562z
		 M50.354,131.095l-1.215,2.44l-6.291-3.13l0.068-0.37c0.09-0.489,0.397-1.291,0.822-2.146c1.263-2.471,3.174-3.311,5.217-2.292
		C50.938,126.582,51.5,128.792,50.354,131.095z"/>
	<path fill="#FFFFFF" d="M56.246,127.59c-1.54-0.372-2.798-0.296-3.782,0.222c-0.061-1.865-1.049-3.422-2.762-4.273
		c-1.278-0.638-2.706-0.729-3.861-0.258c-1.443,0.566-2.574,1.798-3.668,3.995c-0.703,1.415-1.294,2.906-1.583,3.989l-0.104,0.395
		l15.699,7.812l1.415-2.843l-6.536-3.252l0.682-1.371c0.864-1.583,1.752-1.859,3.878-1.316c2.338,0.57,3.536,0.803,4.134,0.803
		l0.408-0.021l1.132-2.273l0.289-0.722h-0.808C60.046,128.474,58.292,128.073,56.246,127.59z M55.865,129.717
		c-0.703-0.179-1.297-0.267-1.818-0.267c-1.417,0-2.397,0.64-3.189,2.09l-1.136,2.284l6.536,3.252l-0.524,1.052l-14.065-6.999
		c0.299-0.977,0.807-2.218,1.399-3.41c0.975-1.958,1.943-3.041,3.143-3.511c0.906-0.369,2.021-0.285,3.044,0.225
		c1.608,0.8,2.417,2.386,2.163,4.242l0.019,0.386l0.637,0.325l0.257-0.252c0.807-0.792,2.009-0.978,3.682-0.572
		c1.718,0.406,3.091,0.721,4.06,0.849l-0.531,1.068C58.757,130.408,57.095,130.017,55.865,129.717z"/>
	<path fill="#FFFFFF" d="M48.956,125.596c-2.043-1.018-3.955-0.178-5.217,2.292c-0.425,0.855-0.732,1.657-0.822,2.146l-0.068,0.37
		l6.291,3.13l1.215-2.44C51.5,128.792,50.938,126.582,48.956,125.596z M43.995,129.858c0.113-0.356,0.319-0.879,0.637-1.52
		c0.506-0.99,1.376-2.169,2.646-2.169c0.388,0,0.802,0.108,1.232,0.323c1.491,0.742,1.854,2.335,0.948,4.158l-0.769,1.544
		L43.995,129.858z"/>
	<path fill="#FFFFFF" d="M68.59,115.882c0.933-1.433,1.429-2.727,1.612-3.554l-0.74-0.247c-0.225,0.941-0.704,2.03-1.318,2.973
		c-1.409,2.166-3.325,3.311-5.539,3.311c-1.433,0-2.901-0.483-4.363-1.435c-3.851-2.508-4.764-6.337-2.383-9.994
		c0.603-0.926,1.34-1.725,2.116-2.297l-0.553-0.648c-0.491,0.354-1.353,1.11-2.295,2.559c-2.708,4.16-1.716,8.786,2.469,11.511
		c1.587,1.034,3.183,1.558,4.743,1.558C64.801,119.618,67.021,118.291,68.59,115.882z"/>
	<path fill="#FFFFFF" d="M69.428,116.428c1.193-1.832,1.73-3.464,1.835-4.382l0.046-0.403l-2.654-0.885l-0.076,0.604
		c-0.114,0.91-0.602,2.115-1.274,3.146c-2.026,3.111-5.273,3.697-8.518,1.584c-3.384-2.204-4.166-5.423-2.091-8.61
		c0.647-0.994,1.457-1.815,2.281-2.312l0.504-0.304l-1.851-2.169l-0.358,0.202c-0.356,0.2-1.625,1.017-2.985,3.105
		c-2.988,4.589-1.852,9.891,2.761,12.895c1.753,1.141,3.532,1.72,5.289,1.72C65.15,120.618,67.668,119.13,69.428,116.428z
		 M57.596,118.06c-4.186-2.725-5.178-7.351-2.469-11.511c0.943-1.449,1.804-2.205,2.295-2.559l0.553,0.648
		c-0.776,0.573-1.514,1.371-2.116,2.297c-2.381,3.656-1.468,7.486,2.383,9.994c1.462,0.952,2.93,1.435,4.363,1.435
		c2.214,0,4.13-1.145,5.539-3.311c0.615-0.943,1.093-2.032,1.318-2.973l0.74,0.247c-0.183,0.828-0.679,2.122-1.612,3.554
		c-1.569,2.409-3.789,3.736-6.251,3.736C60.779,119.618,59.183,119.094,57.596,118.06z"/>
	<polygon fill="#FFFFFF" points="67.319,103.499 72.993,96.323 79.189,101.222 79.933,100.281 67.501,90.451 66.758,91.393 
		72.287,95.765 66.612,102.941 61.083,98.569 60.354,99.491 72.787,109.319 73.514,108.398 	"/>
	<path fill="#FFFFFF" d="M74.918,108.234l-6.195-4.899l4.433-5.607l6.197,4.899l1.984-2.509l-14-11.071l-1.984,2.511l5.529,4.372
		l-4.434,5.608l-5.529-4.372l-1.969,2.49l14,11.069L74.918,108.234z M60.354,99.491l0.729-0.922l5.529,4.372l5.674-7.176
		l-5.529-4.372l0.744-0.941l12.432,9.83l-0.744,0.941l-6.197-4.899l-5.673,7.176l6.195,4.899l-0.728,0.921L60.354,99.491z"/>
	
		<rect x="77.13" y="83.007" transform="matrix(0.6707 -0.7417 0.7417 0.6707 -41.8545 87.5921)" fill="#FFFFFF" width="1.175" height="15.85"/>
	<path fill="#FFFFFF" d="M85.402,95.741L72.165,83.768l-2.13,2.354l13.238,11.974L85.402,95.741z M71.447,86.052l0.788-0.872
		L83.99,95.812l-0.789,0.872L71.447,86.052z"/>
	<polygon fill="#FFFFFF" points="93.242,86.324 92.661,85.739 87.554,90.814 76.962,80.158 76.129,80.986 87.302,92.229 	"/>
	<path fill="#FFFFFF" d="M94.656,86.329l-1.99-2.005L87.558,89.4L76.966,78.744l-2.251,2.238l12.583,12.66L94.656,86.329z
		 M76.962,80.158l10.592,10.656l5.106-5.076l0.581,0.585l-5.94,5.905L76.129,80.986L76.962,80.158z"/>
	<path fill="#FFFFFF" d="M85.74,71.88L95.825,83.9c0.862-0.593,1.781-1.299,2.739-2.103c2.415-2.025,3.788-4.206,3.971-6.306
		c0.199-2.083-0.575-4.229-2.237-6.211c-1.58-1.882-3.329-2.84-5.347-2.93c-0.103-0.005-0.202-0.008-0.301-0.008
		c-1.852,0-3.792,0.873-5.932,2.669C87.672,69.89,86.672,70.853,85.74,71.88z M89.26,69.503c3.555-2.982,7.319-2.716,10.112,0.657
		c3.122,3.721,2.771,7.655-0.964,10.79c-0.831,0.696-1.398,1.118-1.84,1.37l-0.362,0.207L87.131,71.71l0.247-0.319
		C87.688,70.99,88.267,70.336,89.26,69.503z"/>
	<path fill="#FFFFFF" d="M96.008,84.983c0.998-0.662,2.074-1.476,3.199-2.419c2.622-2.2,4.118-4.615,4.324-6.981
		c0.225-2.351-0.628-4.752-2.467-6.944c-1.746-2.08-3.787-3.185-6.065-3.287c-2.193-0.111-4.467,0.832-6.924,2.895
		c-1.192,1-2.327,2.108-3.372,3.293l-0.285,0.322L95.636,85.23L96.008,84.983z M94.65,66.343c0.1,0,0.198,0.002,0.301,0.008
		c2.018,0.09,3.767,1.048,5.347,2.93c1.662,1.982,2.436,4.128,2.237,6.211c-0.184,2.1-1.557,4.28-3.971,6.306
		c-0.958,0.804-1.877,1.51-2.739,2.103L85.74,71.88c0.932-1.027,1.932-1.991,2.978-2.868C90.858,67.216,92.799,66.343,94.65,66.343z
		"/>
	<path fill="#FFFFFF" d="M96.206,82.526l0.362-0.207c0.441-0.252,1.009-0.674,1.84-1.37c3.735-3.135,4.086-7.068,0.964-10.79
		c-2.792-3.373-6.557-3.64-10.112-0.657c-0.993,0.833-1.572,1.486-1.883,1.888l-0.247,0.319L96.206,82.526z M98.604,70.801
		c2.756,3.285,2.458,6.617-0.838,9.383c-0.411,0.344-0.908,0.75-1.343,1.045l-8-9.536c0.311-0.357,0.783-0.839,1.48-1.425
		C93.051,67.628,96.132,67.817,98.604,70.801z"/>
	<path fill="#FFFFFF" d="M113.311,70.157l-1.395-5.404l5.631-3.62l4.38,3.484l1.066-0.685l-13.12-10.406l-1.605,1.032l4.041,16.244
		L113.311,70.157z M110.216,58.433c-0.236-0.87-0.53-1.822-0.923-2.986l-0.125-0.371l0.656-0.419l0.45,0.353
		c0.688,0.64,1.401,1.302,2.244,1.972l4.558,3.622l-5.443,3.5L110.216,58.433z"/>
	<path fill="#FFFFFF" d="M114.46,70.607l-1.395-5.404l4.42-2.842l4.38,3.484l2.844-1.829l-14.776-11.72l-2.809,1.808l4.551,18.292
		L114.46,70.607z M109.873,53.525l13.12,10.406l-1.066,0.685l-4.38-3.484l-5.631,3.62l1.395,5.404l-1.001,0.644l-4.041-16.244
		L109.873,53.525z"/>
	<path fill="#FFFFFF" d="M112.518,56.981c-0.843-0.669-1.556-1.332-2.244-1.972l-0.45-0.353l-0.656,0.419l0.125,0.371
		c0.393,1.164,0.687,2.116,0.923,2.986l1.417,5.67l5.443-3.5L112.518,56.981z M110.795,56.84c0.345,0.304,0.708,0.612,1.101,0.924
		l3.464,2.752l-3.095,1.99l-1.082-4.326C111.068,57.755,110.941,57.313,110.795,56.84z"/>
	<path fill="#FFFFFF" d="M127.233,61.577l-3.071-5.955c-1.295-2.512-2.259-4.271-3.327-6.07l-0.193-0.326l0.574-0.6l0.411,0.218
		c1.372,1.062,3.064,2.181,5.327,3.521l8.437,5.005l1.264-0.652l-7.265-14.085l-0.933,0.481l3.002,5.822
		c1.126,2.183,2.131,4.038,3.374,6l0.179,0.283l-0.495,0.701l-0.445-0.276c-1.507-1.17-3.19-2.296-5.146-3.443l-8.469-4.961
		l-1.421,0.733l7.266,14.085L127.233,61.577z"/>
	<path fill="#FFFFFF" d="M128.581,62.007l-3.53-6.843c-0.861-1.67-1.577-3.01-2.274-4.251c1.043,0.713,2.245,1.47,3.667,2.312
		l8.912,5.287L138,57.148l-8.182-15.863l-2.711,1.397l3.461,6.71c0.749,1.452,1.446,2.762,2.194,4.056
		c-1.025-0.707-2.128-1.406-3.332-2.112l-8.943-5.239l-2.8,1.443l8.183,15.863L128.581,62.007z M120.456,47.239l8.469,4.961
		c1.955,1.146,3.638,2.272,5.146,3.443l0.445,0.276l0.495-0.701l-0.179-0.283c-1.243-1.962-2.248-3.818-3.374-6l-3.002-5.822
		l0.933-0.481l7.265,14.085l-1.264,0.652l-8.437-5.005c-2.263-1.339-3.955-2.458-5.327-3.521l-0.411-0.218l-0.574,0.6l0.193,0.326
		c1.067,1.8,2.031,3.559,3.327,6.07l3.071,5.955l-0.933,0.481l-7.266-14.085L120.456,47.239z"/>
	<path fill="#FFFFFF" d="M141.141,54.675c1.009-0.291,2.105-0.669,3.264-1.127c2.932-1.158,4.925-2.792,5.765-4.727
		c0.848-1.913,0.792-4.195-0.157-6.602c-0.903-2.286-2.26-3.749-4.147-4.472c-1.801-0.706-4.05-0.516-6.758,0.553
		c-1.268,0.501-2.522,1.099-3.732,1.779L141.141,54.675z M139.467,38.938c4.318-1.704,7.808-0.254,9.388,3.823
		c0.885,2.24,0.958,4.249,0.218,5.968c-0.747,1.734-2.277,3.068-4.548,3.964c-0.982,0.39-1.675,0.618-2.178,0.717l-0.409,0.082
		l-5.188-13.134l0.334-0.224C137.504,39.853,138.258,39.417,139.467,38.938z"/>
	<path fill="#FFFFFF" d="M140.971,55.761c1.162-0.313,2.441-0.745,3.802-1.283c3.184-1.257,5.367-3.075,6.312-5.255
		c0.957-2.16,0.908-4.709-0.143-7.371c-0.998-2.526-2.585-4.221-4.715-5.037c-2.031-0.797-4.531-0.611-7.486,0.556
		c-1.446,0.571-2.872,1.263-4.24,2.057l-0.372,0.216l6.412,16.232L140.971,55.761z M145.866,37.748
		c1.887,0.723,3.244,2.186,4.147,4.472c0.95,2.407,1.005,4.688,0.157,6.602c-0.839,1.935-2.833,3.569-5.765,4.727
		c-1.159,0.458-2.255,0.837-3.264,1.127l-5.766-14.595c1.21-0.68,2.464-1.278,3.732-1.779
		C141.816,37.232,144.065,37.042,145.866,37.748z"/>
	<path fill="#FFFFFF" d="M141.938,53.493l0.409-0.082c0.503-0.1,1.195-0.328,2.178-0.717c2.271-0.896,3.802-2.23,4.548-3.964
		c0.74-1.719,0.667-3.729-0.218-5.968c-1.58-4.078-5.07-5.527-9.388-3.823c-1.209,0.479-1.963,0.915-2.383,1.197l-0.334,0.224
		L141.938,53.493z M147.924,43.125c0.785,1.988,0.863,3.741,0.231,5.208c-0.638,1.48-1.982,2.634-3.998,3.43
		c-0.676,0.268-1.198,0.453-1.603,0.567l-4.574-11.579c0.407-0.241,1.007-0.549,1.855-0.885c1.095-0.432,2.124-0.652,3.057-0.652
		C145.798,39.216,147.231,41.34,147.924,43.125z"/>
	<polygon fill="#FFFFFF" points="163.1,46.94 161.155,39.568 167.319,37.941 167.115,37.168 160.951,38.795 159.267,32.413 
		165.938,30.653 165.727,29.856 157.921,31.916 161.965,47.24 	"/>
	<path fill="#FFFFFF" d="M164.322,47.652l-1.945-7.372l6.165-1.627l-0.716-2.707l-6.163,1.627l-1.174-4.448l6.671-1.76l-0.721-2.731
		l-9.74,2.57l4.554,17.258L164.322,47.652z M165.727,29.856l0.21,0.797l-6.67,1.76l1.684,6.382l6.164-1.627l0.204,0.773
		l-6.164,1.627l1.945,7.372l-1.135,0.3l-4.044-15.324L165.727,29.856z"/>
	<path fill="#FFFFFF" d="M179.378,37.864l2.753,4.874l1.246-0.235l-8.255-14.571l-1.876,0.353l-2.351,16.576l1.17-0.221l0.736-5.534
		L179.378,37.864z M173.597,32.61c0.11-0.91,0.194-1.902,0.265-3.115l0.023-0.393l0.766-0.138l0.311,0.549
		c0.391,0.835,0.795,1.698,1.315,2.615l2.865,5.068l-6.358,1.2L173.597,32.61z"/>
	<path fill="#FFFFFF" d="M173.696,39.954l5.164-0.975l2.753,4.875l3.323-0.629l-9.296-16.409l-3.284,0.619l-2.647,18.667
		l3.252-0.613L173.696,39.954z M170.895,44.86l2.351-16.576l1.876-0.353l8.255,14.571l-1.246,0.235l-2.753-4.874l-6.578,1.241
		l-0.736,5.534L170.895,44.86z"/>
	<path fill="#FFFFFF" d="M176.276,32.128c-0.52-0.917-0.924-1.78-1.315-2.615l-0.311-0.549l-0.766,0.138l-0.023,0.393
		c-0.071,1.212-0.155,2.205-0.265,3.115l-0.814,5.786l6.358-1.2L176.276,32.128z M174.732,31.35
		c0.206,0.412,0.426,0.833,0.674,1.271l2.177,3.852l-3.616,0.682l0.621-4.415C174.642,32.297,174.689,31.839,174.732,31.35z"/>
	<path fill="#FFFFFF" d="M188.412,25.925l-1.949,0.159l0.186,15.887l1.065-0.087l-0.129-6.768c-0.057-2.59-0.161-5.37-0.28-7.433
		l-0.028-0.489l0.881-0.069l0.172,0.371c0.562,1.729,1.321,3.68,2.459,6.328l3.225,7.447l0.939-0.077l2.208-8.051
		c0.668-2.418,1.188-4.55,1.591-6.52l0.076-0.374l0.878-0.057l0.11,0.492c0.145,2.074,0.527,4.907,0.834,7.184l0.96,6.885
		l1.117-0.091l-2.271-15.717l-1.95,0.159l-2.236,8.031c-0.642,2.438-1.042,4.213-1.296,5.748l-0.064,0.386l-0.781,0.062
		l-0.198-0.367c-0.499-1.509-1.159-3.199-2.14-5.478L188.412,25.925z"/>
	<path fill="#FFFFFF" d="M188.732,42.804l-0.146-7.708c-0.031-1.43-0.077-2.917-0.132-4.31c0.397,1.018,0.863,2.145,1.417,3.433
		l3.511,8.105l2.351-0.192l2.393-8.725c0.367-1.33,0.69-2.575,0.975-3.756c0.17,1.469,0.378,3.01,0.562,4.364l1.089,7.809
		l3.119-0.254l-2.557-17.701l-3.582,0.293l-2.424,8.708c-0.431,1.634-0.754,2.976-0.999,4.149c-0.422-1.131-0.939-2.403-1.6-3.938
		l-3.671-8.211l-3.583,0.292l0.209,17.892L188.732,42.804z M194.129,39.33l0.781-0.062l0.064-0.386
		c0.254-1.535,0.655-3.31,1.296-5.748l2.236-8.031l1.95-0.159l2.271,15.717l-1.117,0.091l-0.96-6.885
		c-0.308-2.277-0.69-5.11-0.834-7.184l-0.11-0.492l-0.878,0.057l-0.076,0.374c-0.403,1.97-0.923,4.102-1.591,6.52l-2.208,8.051
		l-0.939,0.077l-3.225-7.447c-1.138-2.647-1.896-4.599-2.459-6.328l-0.172-0.371l-0.881,0.069l0.028,0.489
		c0.119,2.063,0.224,4.842,0.28,7.433l0.129,6.768l-1.065,0.087l-0.186-15.887l1.949-0.159l3.379,7.56
		c0.981,2.279,1.641,3.969,2.14,5.478L194.129,39.33z"/>
	
		<rect x="199.627" y="32.242" transform="matrix(-0.0164 -0.9999 0.9999 -0.0164 178.1345 240.8915)" fill="#FFFFFF" width="15.848" height="1.175"/>
	<path fill="#FFFFFF" d="M209.285,41.726l-0.294-17.846l-3.174,0.053l0.293,17.846L209.285,41.726z M207.094,40.762l-0.26-15.846
		l1.174-0.02l0.261,15.846L207.094,40.762z"/>
	<polygon fill="#FFFFFF" points="215.202,24.997 214.028,24.941 213.274,40.777 221.641,41.176 221.68,40.351 214.487,40.009 	"/>
	<path fill="#FFFFFF" d="M222.727,39.4l-7.193-0.342l0.715-15.012l-3.172-0.152l-0.85,17.834l10.365,0.495L222.727,39.4z
		 M221.641,41.176l-8.367-0.399l0.754-15.836l1.174,0.056l-0.715,15.012l7.193,0.342L221.641,41.176z"/>
	<path fill="#FFFFFF" d="M226.774,41.721l1.192,0.133l0.752-6.767l6.244-8.398l-1.292-0.144l-3.042,4.537
		c-0.674,1.02-1.255,1.901-1.767,2.798l-0.166,0.291l-0.647-0.083l-0.147-0.31c-0.365-1.144-0.734-2.19-1.272-3.613l-1.738-4.597
		l-1.315-0.146l3.947,9.564L226.774,41.721z"/>
	<path fill="#FFFFFF" d="M225.669,42.605l3.18,0.354l0.834-7.492l7.121-9.579l-3.626-0.404l-3.385,5.047
		c-0.461,0.698-0.879,1.332-1.265,1.955c-0.275-0.814-0.576-1.648-0.965-2.674l-1.954-5.17l-3.603-0.4l4.493,10.89L225.669,42.605z
		 M224.891,25.568l1.738,4.597c0.538,1.423,0.907,2.47,1.272,3.613l0.147,0.31l0.647,0.083l0.166-0.291
		c0.512-0.897,1.093-1.778,1.767-2.798l3.042-4.537l1.292,0.144l-6.244,8.398l-0.752,6.767l-1.192-0.133l0.749-6.734l-3.947-9.564
		L224.891,25.568z"/>
	<polygon fill="#FFFFFF" points="253.718,38.622 251.901,46.312 253.069,46.589 256.716,31.158 255.548,30.882 253.927,37.745 
		245.018,35.64 246.641,28.777 245.497,28.507 241.849,43.937 242.994,44.207 244.812,36.517 	"/>
	<path fill="#FFFFFF" d="M245.554,37.72l6.961,1.645l-1.817,7.691l3.114,0.736l4.107-17.377l-3.115-0.736l-1.621,6.863l-6.962-1.645
		l1.623-6.863l-3.092-0.73l-4.106,17.376l3.09,0.73L245.554,37.72z M241.849,43.937l3.647-15.43l1.145,0.27l-1.623,6.863
		l8.909,2.105l1.621-6.863l1.168,0.276l-3.647,15.431l-1.168-0.276l1.817-7.691l-8.906-2.105l-1.818,7.69L241.849,43.937z"/>
	<polygon fill="#FFFFFF" points="265.809,50.654 266.067,49.871 259.134,47.585 261.35,40.866 267.571,42.917 267.821,42.158 
		261.6,40.107 263.581,34.1 270.158,36.269 270.416,35.485 262.723,32.948 257.761,48.001 	"/>
	<path fill="#FFFFFF" d="M266.446,51.917l0.885-2.683l-6.933-2.286l1.589-4.819l6.221,2.051l0.875-2.659l-6.219-2.051l1.354-4.108
		l6.577,2.169l0.885-2.683l-9.593-3.163l-5.589,16.953L266.446,51.917z M270.416,35.485l-0.258,0.783l-6.577-2.169l-1.98,6.007
		l6.221,2.051l-0.25,0.759l-6.221-2.051l-2.216,6.719l6.933,2.286l-0.258,0.783l-8.048-2.653l4.962-15.053L270.416,35.485z"/>
	<path fill="#FFFFFF" d="M269.603,52.061l3.681-4.194l6.162,2.616l-0.413,5.581l1.166,0.495l1.214-16.701l-1.757-0.746
		l-11.148,12.484L269.603,52.061z M277.549,42.904c0.588-0.685,1.208-1.464,1.947-2.443l0.233-0.309l0.765,0.317l-0.086,0.567
		c-0.14,0.926-0.285,1.883-0.363,2.954l-0.428,5.804l-5.955-2.527L277.549,42.904z"/>
	<path fill="#FFFFFF" d="M269.878,53.264l3.681-4.194l4.836,2.053l-0.413,5.581l3.113,1.321l1.366-18.809l-3.075-1.304
		l-12.555,14.06L269.878,53.264z M281.413,39.857l-1.214,16.701l-1.166-0.495l0.413-5.581l-6.162-2.616l-3.681,4.194l-1.096-0.465
		l11.148-12.484L281.413,39.857z"/>
	<path fill="#FFFFFF" d="M280.045,43.99c0.078-1.071,0.224-2.028,0.363-2.954l0.086-0.567l-0.765-0.317l-0.233,0.309
		c-0.739,0.979-1.359,1.758-1.947,2.443l-3.887,4.364l5.955,2.527L280.045,43.99z M278.723,48.329l-3.387-1.437l2.966-3.33
		c0.287-0.335,0.581-0.69,0.89-1.076c-0.058,0.456-0.107,0.93-0.145,1.431L278.723,48.329z"/>
	<polygon fill="#FFFFFF" points="291.009,62.183 291.393,61.453 285.017,58.107 291.996,44.802 290.955,44.256 283.592,58.292 	"/>
	<path fill="#FFFFFF" d="M291.431,63.533l1.312-2.501l-6.376-3.345l6.979-13.306l-2.812-1.475l-8.29,15.807L291.431,63.533z
		 M291.996,44.802l-6.979,13.306l6.376,3.345l-0.384,0.73l-7.417-3.891l7.362-14.037L291.996,44.802z"/>
	<polygon fill="#FFFFFF" points="302.608,51.653 294.872,64.498 295.898,65.116 303.635,52.271 308.045,54.928 308.483,54.201 
		298.657,48.282 298.219,49.009 	"/>
	<path fill="#FFFFFF" d="M296.24,66.488l7.735-12.844l4.41,2.657l1.471-2.441l-11.539-6.951l-1.471,2.441l4.389,2.644l-7.736,12.845
		L296.24,66.488z M308.483,54.201l-0.438,0.727l-4.41-2.657l-7.737,12.845l-1.026-0.618l7.736-12.845l-4.389-2.644l0.438-0.727
		L308.483,54.201z"/>
	<polygon fill="#FFFFFF" points="303.769,70.127 308.413,63.734 315.817,69.111 311.173,75.505 312.145,76.211 321.461,63.382 
		320.49,62.677 316.346,68.382 308.942,63.005 313.085,57.299 312.134,56.608 302.818,69.436 	"/>
	<path fill="#FFFFFF" d="M303.99,71.523l4.644-6.393l5.787,4.203l-4.644,6.394l2.591,1.88l10.49-14.447l-2.59-1.879l-4.143,5.705
		l-5.787-4.203l4.144-5.706l-2.57-1.865l-10.49,14.446L303.99,71.523z M313.085,57.299l-4.144,5.706l7.404,5.377l4.144-5.705
		l0.972,0.705l-9.316,12.829l-0.972-0.706l4.644-6.394l-7.404-5.377l-4.644,6.393l-0.951-0.691l9.316-12.828L313.085,57.299z"/>
	<path fill="#FFFFFF" d="M334.009,74.153l-14.771,7.876l0.867,0.814l4.903-2.668l4.883,4.58l-2.313,5.098l0.925,0.867l6.9-15.261
		L334.009,74.153z M332.694,78.868l-2.404,5.302l-4.719-4.427l5.154-2.755c0.802-0.449,1.653-0.966,2.67-1.622l0.325-0.21
		l0.61,0.562l-0.277,0.505C333.601,77.042,333.134,77.891,332.694,78.868z"/>
	<path fill="#FFFFFF" d="M319.949,84.067l4.903-2.668l3.832,3.596l-2.313,5.098l2.468,2.313l7.77-17.187l-2.437-2.286l-16.637,8.87
		L319.949,84.067z M327.578,89.854l2.313-5.098l-4.883-4.58l-4.903,2.668l-0.867-0.814l14.771-7.876l1.394,1.307l-6.9,15.261
		L327.578,89.854z"/>
	<path fill="#FFFFFF" d="M333.72,75.156l-0.325,0.21c-1.017,0.656-1.868,1.173-2.67,1.622l-5.154,2.755l4.719,4.427l2.404-5.302
		c0.44-0.977,0.907-1.825,1.359-2.646l0.277-0.505L333.72,75.156z M327.272,79.968l3.933-2.103c0.389-0.218,0.786-0.449,1.206-0.703
		c-0.211,0.408-0.422,0.835-0.628,1.292l-1.827,4.03L327.272,79.968z"/>
	<path fill="#FFFFFF" d="M343.004,82.971l-11.89,10.487l0.694,0.788l5.026-4.434c2.117-1.869,3.588-3.233,5.076-4.71l0.273-0.271
		l0.715,0.419l-0.109,0.447c-0.695,1.591-1.367,3.506-2.114,6.027l-2.795,9.405l0.941,1.068l11.89-10.487l-0.694-0.788l-4.914,4.333
		c-1.848,1.631-3.405,3.062-4.998,4.739l-0.234,0.247l-0.793-0.321l0.155-0.492c0.768-1.748,1.449-3.655,2.083-5.831l2.746-9.427
		L343.004,82.971z"/>
	<path fill="#FFFFFF" d="M331.721,95.657l5.776-5.095c1.408-1.244,2.534-2.266,3.569-3.247c-0.438,1.187-0.88,2.539-1.35,4.125
		l-2.953,9.936l1.971,2.233l13.39-11.81l-2.019-2.288l-5.664,4.994c-1.228,1.084-2.329,2.082-3.4,3.122
		c0.437-1.167,0.845-2.409,1.236-3.75l2.898-9.956l-2.084-2.362l-13.39,11.809L331.721,95.657z M339.234,99.428l-0.155,0.492
		l0.793,0.321l0.234-0.247c1.593-1.678,3.15-3.108,4.998-4.739l4.914-4.333l0.694,0.788l-11.89,10.487l-0.941-1.068l2.795-9.405
		c0.747-2.521,1.419-4.436,2.114-6.027l0.109-0.447l-0.715-0.419l-0.273,0.271c-1.488,1.477-2.959,2.841-5.076,4.71l-5.026,4.434
		l-0.694-0.788l11.89-10.487l1.059,1.2l-2.746,9.427C340.683,95.773,340.001,97.68,339.234,99.428z"/>
	<path fill="#FFFFFF" d="M349.804,113.369c2.09,0.357,4.25-0.256,6.359-1.775c1.994-1.438,3.078-3.111,3.313-5.116
		c0.244-1.929-0.475-4.025-2.195-6.414c-0.798-1.105-1.685-2.174-2.643-3.18l-12.729,9.175c0.525,0.9,1.162,1.869,1.896,2.887
		C345.65,111.502,347.724,113.032,349.804,113.369z M343.253,106.54l11.454-8.257l0.3,0.27c0.378,0.34,0.987,0.966,1.744,2.016
		c1.399,1.942,1.96,3.829,1.665,5.607c-0.28,1.693-1.311,3.183-3.062,4.429c-1.613,1.163-3.223,1.753-4.782,1.753h-0.001
		c-2.211,0-4.254-1.213-5.907-3.508c-0.618-0.854-1.009-1.469-1.23-1.934L343.253,106.54z"/>
	<path fill="#FFFFFF" d="M340.817,106.161c0.583,1.039,1.316,2.173,2.179,3.369c2.002,2.777,4.301,4.446,6.645,4.825
		c0.432,0.074,0.874,0.111,1.316,0.111c1.944,0,3.893-0.694,5.791-2.062c2.204-1.588,3.457-3.544,3.723-5.807
		c0.276-2.187-0.501-4.516-2.378-7.119c-0.908-1.26-1.93-2.472-3.036-3.604l-0.301-0.308l-14.156,10.205L340.817,106.161z
		 M354.639,96.883c0.958,1.006,1.845,2.075,2.643,3.18c1.721,2.388,2.439,4.485,2.195,6.414c-0.235,2.005-1.319,3.679-3.313,5.116
		c-2.109,1.52-4.27,2.133-6.359,1.775c-2.08-0.337-4.154-1.867-5.998-4.424c-0.733-1.018-1.37-1.987-1.896-2.887L354.639,96.883z"/>
	<path fill="#FFFFFF" d="M350.571,112.359L350.571,112.359c1.561,0,3.17-0.591,4.783-1.753c1.752-1.246,2.782-2.736,3.062-4.429
		c0.295-1.779-0.266-3.666-1.665-5.607c-0.757-1.05-1.366-1.676-1.744-2.016l-0.3-0.27l-11.454,8.257l0.18,0.377
		c0.222,0.465,0.612,1.08,1.23,1.934C346.317,111.146,348.36,112.358,350.571,112.359z M354.627,99.573
		c0.334,0.337,0.781,0.843,1.313,1.581c1.237,1.718,1.738,3.353,1.489,4.859c-0.235,1.42-1.129,2.691-2.658,3.779
		c-1.442,1.04-2.855,1.566-4.2,1.566h-0.001c-1.902,0-3.617-1.041-5.097-3.094c-0.419-0.58-0.73-1.046-0.943-1.414L354.627,99.573z"
		/>
	<path fill="#FFFFFF" d="M361.149,132.675c2.003,0.622,4.259,0.298,6.535-0.925c2.164-1.163,3.459-2.679,3.957-4.636
		c0.493-1.881,0.057-4.054-1.335-6.646c-0.646-1.203-1.387-2.378-2.201-3.498l-13.819,7.422c0.4,0.956,0.904,2,1.499,3.109
		C357.276,130.279,359.131,132.068,361.149,132.675z M355.553,125.046l12.435-6.679l0.262,0.306c0.33,0.386,0.853,1.085,1.466,2.228
		c1.132,2.108,1.439,4.051,0.914,5.776c-0.5,1.641-1.718,2.983-3.618,3.988c-1.437,0.772-2.831,1.164-4.14,1.164
		c-2.56,0-4.712-1.489-6.226-4.306c-0.511-0.953-0.809-1.594-0.965-2.08L355.553,125.046z"/>
	<path fill="#FFFFFF" d="M363.216,133.984c1.607,0,3.27-0.455,4.94-1.353c2.392-1.285,3.89-3.058,4.452-5.266
		c0.561-2.134,0.095-4.544-1.422-7.369c-0.737-1.372-1.591-2.708-2.536-3.97l-0.258-0.344l-15.371,8.254l0.165,0.415
		c0.439,1.101,1.017,2.32,1.717,3.625c1.62,3.015,3.68,4.971,5.952,5.656C361.611,133.866,362.406,133.984,363.216,133.984z
		 M368.105,116.972c0.814,1.12,1.555,2.294,2.201,3.498c1.392,2.592,1.828,4.764,1.335,6.646c-0.498,1.957-1.793,3.473-3.957,4.636
		c-2.276,1.223-4.532,1.546-6.535,0.925c-2.018-0.607-3.873-2.396-5.364-5.172c-0.595-1.11-1.099-2.154-1.499-3.109L368.105,116.972
		z"/>
	<path fill="#FFFFFF" d="M362.872,131.829c1.309,0,2.703-0.392,4.14-1.164c1.9-1.005,3.118-2.347,3.618-3.988
		c0.525-1.725,0.218-3.668-0.914-5.776c-0.613-1.143-1.136-1.842-1.466-2.228l-0.262-0.306l-12.435,6.679l0.128,0.397
		c0.156,0.486,0.454,1.127,0.965,2.08C358.16,130.34,360.312,131.829,362.872,131.829z M367.741,119.635
		c0.287,0.376,0.663,0.937,1.094,1.739c1.001,1.865,1.283,3.551,0.838,5.012c-0.419,1.377-1.472,2.52-3.131,3.397
		c-3.749,2.013-6.987,1.041-9.015-2.733c-0.234-0.437-0.541-1.026-0.749-1.527L367.741,119.635z"/>
	<polygon fill="#FFFFFF" points="366.053,146.772 363.169,140.066 369.669,137.272 372.255,143.289 372.991,142.973 
		370.404,136.956 376.214,134.459 378.949,140.82 379.707,140.494 376.508,133.054 361.949,139.312 365.295,147.098 	"/>
	<path fill="#FFFFFF" d="M367.367,147.295l-2.883-6.706l4.662-2.004l2.586,6.017l2.573-1.106l-2.587-6.017l3.973-1.707l2.734,6.361
		l2.596-1.116l-3.989-9.277l-16.397,7.049l4.138,9.623L367.367,147.295z M376.508,133.054l3.198,7.44l-0.758,0.326l-2.734-6.361
		l-5.811,2.497l2.587,6.017l-0.735,0.316l-2.586-6.017l-6.5,2.794l2.884,6.706l-0.758,0.326l-3.347-7.785L376.508,133.054z"/>
	<path fill="#FFFFFF" d="M381.274,144.382l-13.359,9.97l0.539,1.596l16.826,0.3l-0.402-1.191l-9.206-0.037
		c-1.802,0-3.895,0.022-5.749,0.184l-0.396,0.035l-0.243-0.753l0.32-0.254c1.649-1.011,3.335-2.208,5.357-3.696l6.728-4.925
		L381.274,144.382z"/>
	<path fill="#FFFFFF" d="M367.731,156.935l18.951,0.338l-1.086-3.214l-9.925-0.04c-1.25,0-2.638,0.011-3.997,0.07
		c1.199-0.8,2.457-1.705,3.877-2.75l7.318-5.357l-1.09-3.226l-15.045,11.229L367.731,156.935z M369.603,154.229l-0.32,0.254
		l0.243,0.753l0.396-0.035c1.854-0.162,3.947-0.184,5.749-0.184l9.206,0.037l0.402,1.191l-16.826-0.3l-0.539-1.596l13.359-9.97
		l0.414,1.226l-6.728,4.925C372.938,152.021,371.252,153.219,369.603,154.229z"/>
	<polygon fill="#FFFFFF" points="371.056,164.371 373.125,172.59 373.925,172.389 372.142,165.309 379.004,163.582 380.604,169.935 
		381.379,169.74 379.78,163.387 385.914,161.843 387.606,168.559 388.405,168.358 386.427,160.501 	"/>
	<path fill="#FFFFFF" d="M372.4,173.804l2.738-0.69l-1.782-7.08l4.923-1.239l1.599,6.353l2.717-0.683l-1.6-6.353l4.194-1.056
		l1.69,6.716l2.74-0.689l-2.466-9.796l-17.312,4.358L372.4,173.804z M387.606,168.559l-1.692-6.716l-6.134,1.544l1.6,6.353
		l-0.775,0.195l-1.6-6.353l-6.862,1.727l1.783,7.08l-0.801,0.202l-2.068-8.219l15.371-3.87l1.978,7.856L387.606,168.559z"/>
	<polygon fill="#FFFFFF" points="373.898,176.448 375.345,184.699 376.158,184.556 374.915,177.463 389.715,174.868 389.512,173.71 
			"/>
	<path fill="#FFFFFF" d="M374.533,185.856l2.783-0.487l-1.243-7.093l14.801-2.595l-0.549-3.128l-17.585,3.083L374.533,185.856z
		 M374.915,177.463l1.243,7.093l-0.812,0.143l-1.447-8.251l15.614-2.738l0.203,1.158L374.915,177.463z"/>
	<path fill="#FFFFFF" d="M392.378,192.016c-0.366-3.929-3.542-6.569-7.9-6.569c-0.355,0-0.72,0.017-1.092,0.052
		c-4.793,0.447-7.749,3.578-7.356,7.79c0.409,4.403,3.871,6.997,9.016,6.516C389.825,199.357,392.771,196.228,392.378,192.016z
		 M384.827,198.518c-0.355,0.033-0.706,0.049-1.052,0.049c-3.935,0-6.667-2.052-6.963-5.227c-0.357-3.84,3.124-6.19,6.747-6.528
		c0.359-0.033,0.716-0.05,1.069-0.05c3.938,0,6.674,2.051,6.97,5.226C391.956,195.827,388.461,198.179,384.827,198.518z"/>
	<path fill="#FFFFFF" d="M383.293,184.502c-5.305,0.496-8.701,4.146-8.26,8.878c0.423,4.543,3.887,7.479,8.825,7.479
		c0.413,0,0.84-0.02,1.28-0.061c5.374-0.501,8.684-4.069,8.235-8.876C392.924,187.099,388.822,183.985,383.293,184.502z
		 M376.03,193.288c-0.393-4.212,2.563-7.342,7.356-7.79c0.372-0.035,0.736-0.052,1.092-0.052c4.358,0,7.534,2.64,7.9,6.569
		c0.393,4.212-2.554,7.342-7.333,7.788C379.901,200.284,376.439,197.691,376.03,193.288z"/>
	<path fill="#FFFFFF" d="M391.598,191.988c-0.296-3.174-3.032-5.226-6.97-5.226c-0.354,0-0.71,0.017-1.069,0.05
		c-3.623,0.338-7.104,2.688-6.747,6.528c0.296,3.175,3.028,5.227,6.963,5.227c0.346,0,0.696-0.017,1.052-0.049
		C388.461,198.179,391.956,195.827,391.598,191.988z M377.808,193.248c-0.311-3.334,2.812-5.157,5.844-5.439
		c0.328-0.031,0.654-0.046,0.977-0.046c2.693,0,5.677,1.134,5.974,4.318c0.311,3.333-2.824,5.158-5.869,5.441
		c-0.323,0.03-0.643,0.045-0.958,0.045C380.394,197.567,378.052,195.872,377.808,193.248z"/>
	<path fill="#FFFFFF" d="M393.011,207.784c-0.021-1.291-0.126-2.522-0.313-3.67l-15.718,0.26l0.02,1.175l6.89-0.115l-0.146,0.625
		c-0.11,0.472-0.118,1.063-0.109,1.631c0.035,2.061,0.664,3.75,1.771,4.756c0.787,0.739,1.848,1.111,3.157,1.111l0.118-0.001
		c1.304-0.021,2.413-0.502,3.125-1.353C392.641,211.244,393.044,209.759,393.011,207.784z M388.561,212.382L388.561,212.382
		c-2.601,0-4.128-1.741-4.177-4.657c-0.012-0.82,0.039-1.433,0.161-1.929l0.092-0.375l7.317-0.121l0.105,0.369
		c0.13,0.455,0.213,1.247,0.229,2.175c0.021,1.345-0.271,2.426-0.871,3.212C390.772,211.904,389.785,212.363,388.561,212.382z"/>
	<path fill="#FFFFFF" d="M376.017,206.565l6.653-0.111c-0.04,0.408-0.042,0.836-0.036,1.25c0.04,2.341,0.785,4.287,2.093,5.475
		c0.973,0.914,2.264,1.377,3.836,1.377l0.135-0.001c1.598-0.026,2.975-0.634,3.869-1.704c0.996-1.143,1.481-2.854,1.444-5.084
		c-0.024-1.502-0.159-2.933-0.401-4.251l-0.077-0.417l-17.57,0.29L376.017,206.565z M388.563,213.556
		c-1.31,0-2.37-0.372-3.157-1.111c-1.107-1.006-1.736-2.695-1.771-4.756c-0.009-0.568-0.001-1.159,0.109-1.631l0.146-0.625
		l-6.89,0.115l-0.02-1.175l15.718-0.26c0.188,1.148,0.293,2.38,0.313,3.67c0.033,1.976-0.37,3.46-1.205,4.419
		c-0.712,0.851-1.821,1.331-3.125,1.353L388.563,213.556z"/>
	<path fill="#FFFFFF" d="M392.06,205.67l-0.105-0.369l-7.317,0.121l-0.092,0.375c-0.122,0.496-0.173,1.109-0.161,1.929
		c0.049,2.916,1.576,4.657,4.176,4.657h0.001c1.224-0.02,2.211-0.479,2.856-1.325c0.6-0.786,0.893-1.867,0.871-3.212
		C392.273,206.917,392.19,206.125,392.06,205.67z M385.384,207.71c-0.008-0.52,0.013-0.95,0.062-1.301l5.729-0.094
		c0.055,0.351,0.103,0.872,0.113,1.547c0.018,1.099-0.213,1.994-0.666,2.59c-0.46,0.603-1.158,0.916-2.151,0.932
		C385.838,211.383,385.407,209.081,385.384,207.71z"/>
	<path fill="#FFFFFF" d="M391.005,220.39l0.478,0.056l-0.069,0.88l-0.401,0.105c-1.798,0.251-3.852,0.657-6.659,1.316l-7.896,1.876
		l-0.088,0.937l7.544,3.581c2.283,1.087,4.291,1.972,6.14,2.703l0.342,0.136l-0.067,0.881l-0.519,0.021
		c-2.071-0.222-4.933-0.34-7.23-0.434l-6.936-0.255l-0.104,1.115l15.871,0.507l0.185-1.948l-7.518-3.602
		c-2.278-1.055-3.956-1.758-5.433-2.279l-0.372-0.131l0.081-0.78l0.394-0.131c1.584-0.229,3.362-0.584,5.766-1.149l8.033-2.01
		l0.184-1.945l-15.675-2.59l-0.101,1.063l6.687,1.054C386.213,219.766,388.968,220.148,391.005,220.39z"/>
	<path fill="#FFFFFF" d="M375.869,219.156l7.616,1.2c1.417,0.219,2.889,0.434,4.266,0.622c-1.071,0.214-2.262,0.476-3.627,0.797
		l-8.595,2.042l-0.221,2.347l8.175,3.881c1.25,0.596,2.419,1.13,3.525,1.613c-1.478-0.089-3.033-0.152-4.394-0.209l-7.879-0.288
		l-0.294,3.113l17.873,0.571l0.339-3.577l-8.152-3.907c-1.529-0.708-2.793-1.26-3.909-1.707c1.191-0.218,2.532-0.505,4.154-0.887
		l8.728-2.183l0.338-3.578l-17.653-2.918L375.869,219.156z M377.053,217.25l15.675,2.59l-0.184,1.945l-8.033,2.01
		c-2.403,0.565-4.182,0.92-5.766,1.149l-0.394,0.131l-0.081,0.78l0.372,0.131c1.477,0.521,3.154,1.225,5.433,2.279l7.518,3.602
		l-0.185,1.948l-15.871-0.507l0.104-1.115l6.936,0.255c2.298,0.094,5.159,0.212,7.23,0.434l0.519-0.021l0.067-0.881l-0.342-0.136
		c-1.849-0.731-3.856-1.616-6.14-2.703l-7.544-3.581l0.088-0.937l7.896-1.876c2.808-0.659,4.861-1.065,6.659-1.316l0.401-0.105
		l0.069-0.88l-0.478-0.056c-2.037-0.242-4.792-0.624-7.366-1.022l-6.687-1.054L377.053,217.25z"/>
	<polygon fill="#FFFFFF" points="373.886,246.23 375.272,239.061 382.22,240.403 380.977,246.836 381.762,246.988 383.005,240.555 
		389.217,241.755 387.903,248.556 388.713,248.713 390.25,240.759 374.686,237.75 373.077,246.074 	"/>
	<path fill="#FFFFFF" d="M371.905,246.865l2.774,0.537l1.386-7.169l4.983,0.963l-1.243,6.432l2.75,0.532l1.243-6.433l4.247,0.821
		l-1.314,6.801l2.775,0.536l1.916-9.919l-17.529-3.388L371.905,246.865z M390.25,240.759l-1.537,7.954l-0.811-0.157l1.314-6.801
		l-6.212-1.2l-1.243,6.433l-0.785-0.151l1.243-6.434l-6.948-1.342l-1.386,7.169l-0.81-0.156l1.609-8.323L390.25,240.759z"/>
	<path fill="#FFFFFF" d="M385.064,254.503l0.372,0.083l0.041,0.828l-0.438,0.15c-1.71,0.272-3.685,0.741-6.214,1.475l-9.425,2.727
		l-0.39,1.369l15.246,4.343l0.287-1.01l-6.301-1.795c-2.357-0.672-4.396-1.209-6.686-1.646l-0.333-0.063l-0.162-0.841l0.5-0.137
		c1.887-0.298,3.86-0.754,6.032-1.395l9.417-2.78l0.438-1.539l-15.246-4.343l-0.287,1.01l6.444,1.836
		C381.067,253.545,383.009,254.046,385.064,254.503z"/>
	<path fill="#FFFFFF" d="M370.679,251.626l7.407,2.109c1.804,0.515,3.271,0.909,4.658,1.252c-1.232,0.272-2.609,0.63-4.198,1.091
		l-9.957,2.881l-0.815,2.863l17.17,4.892l0.836-2.934l-7.264-2.068c-1.57-0.448-3.002-0.837-4.461-1.178
		c1.218-0.264,2.483-0.59,3.822-0.984l9.944-2.937l0.863-3.029l-17.17-4.892L370.679,251.626z M372.203,249.929l15.246,4.343
		l-0.438,1.539l-9.417,2.78c-2.172,0.641-4.146,1.097-6.032,1.395l-0.5,0.137l0.162,0.841l0.333,0.063
		c2.289,0.438,4.328,0.975,6.686,1.646l6.301,1.795l-0.287,1.01l-15.246-4.343l0.39-1.369l9.425-2.727
		c2.529-0.733,4.504-1.202,6.214-1.475l0.438-0.15l-0.041-0.828l-0.372-0.083c-2.055-0.457-3.997-0.958-6.704-1.729l-6.444-1.836
		L372.203,249.929z"/>
	<polygon fill="#FFFFFF" points="366.218,268.777 365.791,269.898 379.798,275.253 377.959,280.063 378.753,280.366 382.85,269.65 
		382.056,269.346 380.226,274.132 	"/>
	<path fill="#FFFFFF" d="M379.65,272.841l-14.008-5.355l-1.143,2.988l14.008,5.355l-1.839,4.81l2.661,1.018l4.812-12.583
		l-2.661-1.019L379.65,272.841z M382.85,269.65l-4.097,10.716l-0.794-0.303l1.839-4.81l-14.008-5.355l0.428-1.121l14.008,5.355
		l1.83-4.786L382.85,269.65z"/>
	<path fill="#2F8691" d="M145.826,134.578c18.353,0,33.284-14.931,33.284-33.284s-14.931-33.284-33.284-33.284
		c-18.353,0-33.284,14.931-33.284,33.284S127.473,134.578,145.826,134.578z"/>
	<path fill="#FFFFFF" d="M110.361,108.946c3.524,16.344,18.083,28.631,35.464,28.631c20.007,0,36.284-16.277,36.284-36.284
		c0-10.879-4.819-20.648-12.428-27.304c-0.919-0.805-1.88-1.562-2.878-2.272c-5.928-4.217-13.166-6.708-20.979-6.708
		c-20.007,0-36.284,16.277-36.284,36.284c0,1.365,0.083,2.711,0.23,4.038C109.908,106.556,110.106,107.761,110.361,108.946z
		 M112.542,101.293c0-18.353,14.931-33.284,33.284-33.284c18.353,0,33.284,14.931,33.284,33.284s-14.931,33.284-33.284,33.284
		C127.473,134.578,112.542,119.646,112.542,101.293z"/>
	<path fill="#2F8691" d="M268.314,85.635c-18.355,0-33.288,14.931-33.288,33.284s14.933,33.284,33.288,33.284
		c18.354,0,33.287-14.931,33.287-33.284S286.668,85.635,268.314,85.635z"/>
	<path fill="#FFFFFF" d="M271.295,82.767c-0.984-0.08-1.977-0.132-2.981-0.132c-20.01,0-36.288,16.277-36.288,36.284
		s16.278,36.284,36.288,36.284c20.009,0,36.287-16.277,36.287-36.284c0-6.173-1.554-11.989-4.284-17.083
		c-1.956-3.649-4.516-6.928-7.549-9.699c-2.836-2.592-6.088-4.732-9.637-6.327C279.465,84.164,275.481,83.109,271.295,82.767z
		 M301.601,118.919c0,18.353-14.933,33.284-33.287,33.284c-18.355,0-33.288-14.931-33.288-33.284s14.933-33.284,33.288-33.284
		C286.668,85.635,301.601,100.566,301.601,118.919z"/>
	<path fill="#2F8691" d="M305.44,158.548h-74.096c-17.71,0-32.118,18.777-32.118,41.857v37.777c3.736,1.709,6.879,4.499,9.008,7.979
		v-0.938c0-11.304,9.196-20.5,20.5-20.5h62.182c11.304,0,20.5,9.196,20.5,20.5v14.719c0,6.912,0,19.913-4.867,32.395
		c19.025-22.405,30.51-51.416,30.51-83.112c0-2.843-0.104-5.661-0.286-8.458C333.51,179.892,320.406,158.548,305.44,158.548z
		 M259.825,221.503c-15.601,0-28.293-12.692-28.293-28.293c0-15.602,12.692-28.294,28.293-28.294
		c15.602,0,28.294,12.692,28.294,28.294C288.119,208.811,275.426,221.503,259.825,221.503z"/>
	<path fill="#2F8691" d="M108.052,256.829c0-11.304,9.196-20.5,20.5-20.5h62.182c1.902,0,3.743,0.265,5.492,0.751v-36.675
		c0-14.438,5.374-27.297,13.694-35.507c-6.591-13.895-17.338-22.946-29.479-22.946h-63.448c-20.051,0-37.039,26.453-37.039,56.887
		v10.384c0,32.119,11.815,61.485,31.33,84.01c-3.229-7.953-3.231-15.282-3.231-21.686V256.829z M158.986,176.345
		c15.603,0,28.297,12.692,28.297,28.293c0,15.602-12.694,28.294-28.297,28.294c-15.603,0-28.296-12.692-28.296-28.294
		C130.69,189.038,143.383,176.345,158.986,176.345z"/>
	<path fill="#2F8691" d="M308.417,245.222c0-9.649-7.851-17.5-17.5-17.5h-62.182c-9.65,0-17.5,7.851-17.5,17.5v11.606
		c0,0.828-0.671,1.5-1.5,1.5s-1.5-0.672-1.5-1.5c0-9.649-7.851-17.5-17.5-17.5h-62.182c-9.649,0-17.5,7.851-17.5,17.5v14.719
		c0,8.925,0.005,19.749,9.69,31.496c23.001,21.496,53.894,34.662,87.833,34.662c35.214,0,67.114-14.171,90.322-37.114
		c9.512-14.167,9.519-32.171,9.519-40.65V245.222z"/>
	<path fill="#2F8691" d="M259.825,167.917c-13.946,0-25.293,11.347-25.293,25.294c0,13.947,11.347,25.293,25.293,25.293
		c13.947,0,25.294-11.346,25.294-25.293C285.119,179.263,273.772,167.917,259.825,167.917z"/>
	<path fill="#FFFFFF" d="M259.825,164.917c-15.601,0-28.293,12.692-28.293,28.294c0,15.601,12.692,28.293,28.293,28.293
		c15.602,0,28.294-12.692,28.294-28.293C288.119,177.609,275.426,164.917,259.825,164.917z M259.825,218.503
		c-13.946,0-25.293-11.346-25.293-25.293c0-13.947,11.347-25.294,25.293-25.294c13.947,0,25.294,11.347,25.294,25.294
		C285.119,207.157,273.772,218.503,259.825,218.503z"/>
	<path fill="#2F8691" d="M158.986,229.932c13.949,0,25.297-11.347,25.297-25.294c0-13.947-11.348-25.293-25.297-25.293
		c-13.948,0-25.296,11.346-25.296,25.293C133.69,218.585,145.038,229.932,158.986,229.932z"/>
	<path fill="#FFFFFF" d="M158.986,232.932c15.603,0,28.297-12.692,28.297-28.294c0-15.601-12.694-28.293-28.297-28.293
		c-15.603,0-28.296,12.692-28.296,28.293C130.69,220.24,143.383,232.932,158.986,232.932z M158.986,179.345
		c13.949,0,25.297,11.346,25.297,25.293c0,13.947-11.348,25.294-25.297,25.294c-13.948,0-25.296-11.347-25.296-25.294
		C133.69,190.691,145.038,179.345,158.986,179.345z"/>
	<path fill="#FFFFFF" d="M311.417,245.222c0-11.304-9.196-20.5-20.5-20.5h-62.182c-11.304,0-20.5,9.196-20.5,20.5v0.938
		c-2.129-3.479-5.272-6.27-9.008-7.979v0.222c0,0.828-0.671,1.5-1.5,1.5s-1.5-0.672-1.5-1.5v-1.324
		c-1.749-0.486-3.59-0.751-5.492-0.751h-62.182c-11.304,0-20.5,9.196-20.5,20.5v14.719c0,6.403,0.002,13.732,3.231,21.686
		c2.234,5.503,6.012,11.305,12.407,17.307c0.604,0.566,1.553,0.536,2.12-0.067s0.537-1.553-0.067-2.12
		c-1.905-1.788-3.559-3.559-5.001-5.309c-9.685-11.747-9.69-22.571-9.69-31.496v-14.719c0-9.649,7.851-17.5,17.5-17.5h62.182
		c9.649,0,17.5,7.851,17.5,17.5c0,0.828,0.671,1.5,1.5,1.5s1.5-0.672,1.5-1.5v-11.606c0-9.649,7.851-17.5,17.5-17.5h62.182
		c9.649,0,17.5,7.851,17.5,17.5v14.719c0,8.479-0.007,26.483-9.519,40.65c-1.851,2.756-4.055,5.37-6.695,7.737
		c-0.617,0.554-0.669,1.502-0.116,2.118c0.297,0.331,0.706,0.499,1.118,0.499c0.356,0,0.714-0.126,1-0.383
		c5.914-5.302,9.796-11.693,12.345-18.228c4.867-12.481,4.867-25.482,4.867-32.395V245.222z"/>
	<path fill="#FFFFFF" d="M156.143,367.742l-1.371-0.514l-3.745,9.991c-1.452,3.874-3.601,4.688-5.147,4.688
		c-0.61,0-1.252-0.125-1.909-0.371c-1.377-0.516-4.359-2.312-2.295-7.822l3.746-9.99l-1.371-0.515l-3.725,9.939
		c-1.736,4.633-0.623,7.843,3.221,9.284c3.962,1.483,7.177-0.232,8.91-4.856L156.143,367.742z"/>
	<path fill="#FFFFFF" d="M154.187,365.941l-4.097,10.927c-1.279,3.415-3.24,4.679-5.769,3.732c-2.351-0.882-2.958-3.202-1.71-6.535
		l4.096-10.928l-3.243-1.216l-4.077,10.875c-2.615,6.977,1.263,9.618,3.807,10.571c1.055,0.396,2.083,0.597,3.058,0.597
		c2.225-0.001,5.269-1.048,7.139-6.037l4.038-10.771L154.187,365.941z M143.545,382.432c-3.844-1.441-4.958-4.651-3.221-9.284
		l3.725-9.939l1.371,0.515l-3.746,9.99c-2.064,5.511,0.918,7.307,2.295,7.822c0.656,0.246,1.298,0.371,1.909,0.371
		c1.547,0,3.695-0.813,5.147-4.688l3.745-9.991l1.371,0.514l-3.687,9.834C150.723,382.2,147.507,383.916,143.545,382.432z"/>
	<path fill="#FFFFFF" d="M169.135,371.022c-0.937-0.244-1.868-0.367-2.767-0.367c-4.199,0-7.518,2.727-8.663,7.116
		c-1.408,5.401,0.99,9.61,6.257,10.984c1.571,0.408,2.795,0.494,3.545,0.494c0.32,0,0.618-0.016,0.879-0.046v-0.994
		c-1.076,0.107-2.453-0.021-3.672-0.339c-2.297-0.599-4.016-1.839-4.969-3.589c-0.933-1.712-1.103-3.854-0.493-6.194
		c1.052-4.036,3.724-6.351,7.33-6.351c0.763,0,1.56,0.106,2.37,0.318c1.217,0.316,2.34,0.828,3.225,1.462l0.556-0.921
		C172.192,372.2,171.065,371.526,169.135,371.022z"/>
	<path fill="#FFFFFF" d="M169.387,370.055c-1.019-0.267-2.035-0.4-3.019-0.4c-4.675,0-8.366,3.013-9.631,7.864
		c-1.54,5.907,1.197,10.697,6.973,12.204c1.673,0.435,2.989,0.526,3.797,0.526c0.564,0,1.077-0.045,1.482-0.131l0.396-0.084v-3.012
		l-0.598,0.119c-0.992,0.198-2.507,0.104-3.822-0.238c-2.024-0.527-3.526-1.6-4.343-3.101c-0.809-1.484-0.948-3.373-0.403-5.464
		c0.928-3.561,3.247-5.603,6.362-5.603c0.678,0,1.39,0.096,2.118,0.285c1.296,0.338,2.464,0.912,3.289,1.616l0.448,0.384
		l1.589-2.635l-0.306-0.276C173.382,371.806,172.072,370.755,169.387,370.055z M168.952,372.055c-0.81-0.212-1.607-0.318-2.37-0.318
		c-3.606,0-6.277,2.314-7.33,6.351c-0.61,2.341-0.44,4.482,0.493,6.194c0.953,1.75,2.671,2.99,4.969,3.589
		c1.22,0.318,2.597,0.446,3.672,0.339v0.994c-0.261,0.03-0.559,0.046-0.879,0.046c-0.75,0-1.975-0.086-3.545-0.494
		c-5.267-1.374-7.665-5.583-6.257-10.984c1.145-4.39,4.464-7.116,8.663-7.116c0.899,0,1.83,0.123,2.767,0.367
		c1.931,0.504,3.057,1.178,3.597,1.574l-0.556,0.921C171.292,372.883,170.168,372.372,168.952,372.055z"/>
	<path fill="#FFFFFF" d="M190.055,390.185l-0.133,0.367l-0.779-0.082l-0.136-0.397c-0.242-1.788-0.621-3.786-1.227-6.476
		l-2.174-9.061l-2.275-0.237l-3.09,17.646l1.311,0.137l1.263-7.533c0.46-2.798,0.929-5.957,1.223-8.241l0.062-0.485l0.878,0.094
		l0.106,0.396c0.263,2.021,0.696,4.326,1.405,7.478l2.024,8.904l1.133,0.118l4.109-8.447c1.232-2.522,2.245-4.763,3.096-6.852
		l0.142-0.348l0.876,0.092l0.025,0.511c-0.271,2.327-0.433,5.527-0.562,8.1l-0.363,7.818l1.368,0.143l0.744-17.89l-2.278-0.237
		l-4.132,8.418C191.459,386.67,190.652,388.543,190.055,390.185z"/>
	<path fill="#FFFFFF" d="M191.77,383.685c-0.853,1.797-1.508,3.263-2.033,4.551c-0.236-1.392-0.553-2.956-0.983-4.865l-2.341-9.756
		l-3.907-0.407l-3.436,19.62l3.312,0.346l1.418-8.461c0.279-1.693,0.554-3.472,0.794-5.125c0.239,1.293,0.541,2.738,0.919,4.422
		l2.184,9.604l2.542,0.265l4.415-9.075c0.734-1.503,1.391-2.907,1.983-4.24c-0.127,1.755-0.222,3.63-0.304,5.256l-0.407,8.764
		l3.366,0.352l0.827-19.894l-3.907-0.405L191.77,383.685z M199.08,375.939l-0.744,17.89l-1.368-0.143l0.363-7.818
		c0.129-2.572,0.291-5.772,0.562-8.1l-0.025-0.511l-0.876-0.092l-0.142,0.348c-0.851,2.089-1.864,4.329-3.096,6.852l-4.109,8.447
		l-1.133-0.118l-2.024-8.904c-0.709-3.151-1.143-5.457-1.405-7.478l-0.106-0.396l-0.878-0.094l-0.062,0.485
		c-0.293,2.284-0.762,5.443-1.223,8.241l-1.263,7.533l-1.311-0.137l3.09-17.646l2.275,0.237l2.174,9.061
		c0.606,2.689,0.985,4.688,1.227,6.476l0.136,0.397l0.779,0.082l0.133-0.367c0.597-1.642,1.405-3.515,2.615-6.065l4.132-8.418
		L199.08,375.939z"/>
	<polygon fill="#FFFFFF" points="214.823,393.79 214.807,392.746 206.63,392.879 206.503,385.075 213.839,384.955 213.822,383.939 
		206.486,384.059 206.374,377.095 214.129,376.968 214.111,375.924 204.919,376.076 205.212,393.947 	"/>
	<path fill="#FFFFFF" d="M207.614,391.864l-0.094-5.805l7.336-0.12l-0.05-3.016l-7.336,0.12l-0.081-4.964l7.756-0.127l-0.051-3.044
		l-11.192,0.183l0.326,19.871l11.61-0.188l-0.049-3.044L207.614,391.864z M214.111,375.924l0.018,1.044l-7.755,0.127l0.113,6.964
		l7.336-0.12l0.017,1.016l-7.336,0.12l0.127,7.805l8.176-0.134l0.017,1.044l-9.611,0.157l-0.292-17.871L214.111,375.924z"/>
	<path fill="#FFFFFF" d="M226.804,384.951l-0.344-0.086l-0.066-0.712l0.322-0.229c1.946-0.855,3-2.578,2.821-4.609
		c-0.116-1.315-0.682-2.409-1.594-3.081c-1.174-0.888-2.802-1.174-5.234-0.956c-1.506,0.134-3.014,0.381-4.133,0.675l1.563,17.638
		l1.431-0.128l-0.722-8.145l2.785-0.246c0.149-0.008,0.276-0.012,0.4-0.012c2.182,0,3.402,1.067,4.211,3.683
		c0.288,0.895,1.007,3.133,1.446,4l1.449-0.128c-0.432-0.956-0.952-2.499-1.592-4.443
		C228.947,386.314,228.049,385.262,226.804,384.951z M223.753,384.208l-2.98,0.264l-0.685-7.734l0.352-0.136
		c0.515-0.198,1.455-0.373,2.514-0.468c3.132-0.247,4.954,1.056,5.178,3.586C228.346,382.153,226.586,383.957,223.753,384.208z"/>
	<path fill="#FFFFFF" d="M230.499,387.86c-0.554-1.708-1.388-2.88-2.486-3.497c1.78-1.133,2.71-2.993,2.521-5.137
		c-0.142-1.605-0.851-2.954-1.991-3.794c-1.378-1.042-3.181-1.393-5.92-1.151c-1.754,0.155-3.52,0.463-4.723,0.822l-0.391,0.117
		l1.724,19.453l3.423-0.304l-0.722-8.145l1.771-0.157c1.932-0.095,2.864,0.633,3.589,2.975c0.868,2.704,1.366,4.012,1.721,4.514
		l0.165,0.235l3.631-0.322l-0.461-0.699C231.918,392.12,231.284,390.243,230.499,387.86z M229.691,392.742
		c-0.439-0.867-1.158-3.105-1.446-4c-0.81-2.615-2.03-3.683-4.211-3.683c-0.124,0-0.25,0.004-0.4,0.012l-2.785,0.246l0.722,8.145
		l-1.431,0.128l-1.563-17.638c1.119-0.294,2.627-0.541,4.133-0.675c2.432-0.218,4.06,0.068,5.234,0.956
		c0.912,0.672,1.478,1.766,1.594,3.081c0.18,2.031-0.875,3.754-2.821,4.609l-0.322,0.229l0.066,0.712l0.344,0.086
		c1.246,0.312,2.143,1.363,2.745,3.22c0.64,1.944,1.16,3.487,1.592,4.443L229.691,392.742z"/>
	<path fill="#FFFFFF" d="M228.131,379.72c-0.224-2.53-2.046-3.833-5.178-3.586c-1.06,0.095-2,0.27-2.514,0.468l-0.352,0.136
		l0.685,7.734l2.98-0.264C226.586,383.957,228.346,382.153,228.131,379.72z M221.681,383.388l-0.528-5.961
		c0.409-0.105,1.049-0.222,1.884-0.297c0.215-0.017,0.424-0.024,0.628-0.024c2.144,0,3.312,0.909,3.471,2.702
		c0.167,1.895-1.163,3.199-3.47,3.404L221.681,383.388z"/>
	<path fill="#FFFFFF" d="M248.621,389.236l-0.421-0.9c-0.938,0.555-2.211,1.018-3.469,1.249c-4.675,0.85-8.199-1.712-9.09-6.554
		c-0.924-5.026,1.466-8.693,6.237-9.572c1.23-0.225,2.468-0.239,3.541-0.038l0.112-1.068c-0.338-0.067-0.854-0.137-1.548-0.137
		c-0.741,0-1.541,0.078-2.377,0.232c-5.504,1.013-8.519,5.414-7.5,10.95c0.863,4.691,3.973,7.492,8.318,7.492
		c0.648,0,1.32-0.063,1.998-0.188C246.354,390.346,247.812,389.733,248.621,389.236z"/>
	<path fill="#FFFFFF" d="M248.113,387.199c-0.836,0.614-2.201,1.151-3.563,1.401c-4.126,0.762-7.129-1.423-7.924-5.751
		c-0.825-4.485,1.206-7.629,5.434-8.406c1.311-0.241,2.635-0.21,3.666,0.073l0.568,0.156l0.321-3.057l-0.392-0.121
		c-0.337-0.104-1.075-0.279-2.239-0.279c-0.802,0-1.663,0.084-2.559,0.248c-5.996,1.104-9.411,6.086-8.303,12.116
		c0.958,5.203,4.436,8.311,9.303,8.311c0.709,0,1.441-0.069,2.18-0.204c2.402-0.443,4.133-1.26,4.95-1.876l0.324-0.244l-1.275-2.729
		L248.113,387.199z M234.107,383.398c-1.019-5.536,1.996-9.938,7.5-10.95c0.836-0.154,1.636-0.232,2.377-0.232
		c0.694,0,1.21,0.069,1.548,0.137l-0.112,1.068c-1.073-0.201-2.311-0.187-3.541,0.038c-4.771,0.879-7.161,4.546-6.237,9.572
		c0.891,4.842,4.415,7.403,9.09,6.554c1.258-0.231,2.53-0.694,3.469-1.249l0.421,0.9c-0.809,0.497-2.267,1.11-4.197,1.466
		c-0.678,0.125-1.35,0.188-1.998,0.188C238.08,390.89,234.97,388.089,234.107,383.398z"/>
	<polygon fill="#FFFFFF" points="263.451,385.667 263.17,384.662 255.293,386.859 253.197,379.339 260.264,377.369 259.992,376.39 
		252.923,378.361 251.052,371.651 258.525,369.567 258.245,368.561 249.389,371.031 254.19,388.25 	"/>
	<path fill="#FFFFFF" d="M255.989,385.626l-1.56-5.592l7.067-1.971l-0.81-2.906l-7.068,1.971l-1.334-4.782l7.473-2.084l-0.817-2.934
		l-10.783,3.007l5.338,19.147l11.188-3.12l-0.817-2.934L255.989,385.626z M258.245,368.561l0.28,1.006l-7.473,2.084l1.871,6.71
		l7.068-1.971l0.272,0.979l-7.067,1.971l2.097,7.52l7.877-2.197l0.28,1.006l-9.261,2.583l-4.801-17.22L258.245,368.561z"/>
	<path fill="#FFFFFF" d="M279.237,377.349c0.97-2.151,0.926-4.722-0.127-7.438c-1.001-2.584-2.521-4.243-4.645-5.072
		c-2.023-0.81-4.561-0.615-7.614,0.569c-1.443,0.559-2.87,1.229-4.246,1.993l6.388,16.486c1.145-0.319,2.395-0.74,3.722-1.255
		C276.021,381.351,278.276,379.524,279.237,377.349z M272.811,381.565c-1.123,0.436-1.873,0.677-2.434,0.785l-0.41,0.079
		l-5.678-14.655l0.336-0.222c0.472-0.312,1.317-0.793,2.666-1.315c4.813-1.864,8.679-0.23,10.406,4.314
		c0.969,2.5,1.037,4.734,0.202,6.64C277.058,379.111,275.346,380.583,272.811,381.565z"/>
	<path fill="#FFFFFF" d="M274.833,363.909c-2.251-0.902-5.04-0.713-8.343,0.567c-1.62,0.627-3.221,1.39-4.756,2.269l-0.374,0.213
		l7.024,18.127l0.432-0.113c1.296-0.34,2.729-0.813,4.26-1.407c3.559-1.379,6.006-3.388,7.074-5.807
		c1.081-2.398,1.044-5.236-0.108-8.208C278.95,366.729,277.196,364.831,274.833,363.909z M268.993,383.887l-6.388-16.486
		c1.376-0.765,2.803-1.435,4.246-1.993c3.054-1.185,5.591-1.379,7.614-0.569c2.124,0.829,3.644,2.488,4.645,5.072
		c1.053,2.717,1.097,5.287,0.127,7.438c-0.961,2.175-3.216,4.002-6.522,5.283C271.387,383.147,270.137,383.568,268.993,383.887z"/>
	<path fill="#FFFFFF" d="M277.698,370.551c-1.728-4.545-5.593-6.179-10.406-4.314c-1.349,0.522-2.194,1.003-2.666,1.315
		l-0.336,0.222l5.678,14.655l0.41-0.079c0.561-0.108,1.311-0.35,2.434-0.785c2.535-0.981,4.247-2.454,5.089-4.374
		C278.735,375.286,278.667,373.051,277.698,370.551z M270.592,381.273l-5.075-13.099c0.461-0.271,1.151-0.624,2.136-1.006
		c4.3-1.661,7.564-0.326,9.111,3.741c0.871,2.247,0.945,4.226,0.22,5.88c-0.731,1.668-2.257,2.961-4.534,3.844
		C271.917,380.839,271.192,381.111,270.592,381.273z"/>
	<path fill="#FFFFFF" d="M209.92,164.898c-8.321,8.21-13.694,21.068-13.694,35.507v36.675v1.324c0,0.828,0.671,1.5,1.5,1.5
		s1.5-0.672,1.5-1.5v-0.222v-37.777c0-23.08,14.408-41.857,32.118-41.857h74.096c14.966,0,28.07,21.344,31.333,42.217
		c0.509,3.252,0.786,6.493,0.786,9.639c0,0.828,0.672,1.5,1.5,1.5s1.5-0.672,1.5-1.5v-9.999c0-0.66-0.427-1.221-1.019-1.421
		c-3.771-21.759-17.567-43.436-34.101-43.436h-74.096C223.284,155.548,215.854,159.043,209.92,164.898z"/>
</g>
</svg>
