<?xml version="1.0" encoding="utf-8"?>
<!-- Generator: Adobe Illustrator 16.0.4, SVG Export Plug-In . SVG Version: 6.00 Build 0)  -->
<!DOCTYPE svg PUBLIC "-//W3C//DTD SVG 1.1//EN" "http://www.w3.org/Graphics/SVG/1.1/DTD/svg11.dtd">
<svg version="1.1" id="Layer_1" xmlns="http://www.w3.org/2000/svg" xmlns:xlink="http://www.w3.org/1999/xlink" x="0px" y="0px"
	 width="59.245px" height="39.521px" viewBox="0 0 59.245 39.521" enable-background="new 0 0 59.245 39.521" xml:space="preserve">
<path fill-rule="evenodd" clip-rule="evenodd" fill="#BED738" d="M15.094,22.327l2.57-3.505c0.379-0.557,0.387-0.851,1.269-0.709
	l0.002,10.472l2.328-0.003c0.026-0.537,0.236-2.248,0.454-2.568l1.216,3.751l1.107,3.557l3.354,0.011l1.389-4.293l0.989-3.017
	c0.318,0.458,0.565,2.944,0.691,3.65l0.543,3.655l5.555,0.002c0.008-0.071-0.082-0.939-0.209-1.842
	c-0.606-0.531-1.104-1.144-1.369-1.815c-0.928-0.984-1.298-3.802-1.041-5.417c0.149-0.94,0.435-1.796,0.807-2.541
	c-0.376-2.276-0.718-4.213-0.793-4.384l-5.877-0.038l-2.316,8.271c-0.232-0.338-2.147-7.902-2.244-8.255l-8.504-0.023
	C15.265,17.821,15.183,21.557,15.094,22.327L15.094,22.327z M18.936,33.308l-0.029-2.975l2.109,0.005l-0.432,2.98L18.936,33.308z"/>
<path fill-rule="evenodd" clip-rule="evenodd" fill="#00AEEF" d="M9.514,27.754l0.003,2.303l5.576-7.729
	c0.089-0.77,0.171-4.506-0.079-5.041l-5.5-0.006l-0.011,5.388l-3.483-0.001l-0.029-5.375L0.424,17.28L0.408,28.642l0.013,4.68
	l5.553,0.009l0.038-5.583L9.514,27.754L9.514,27.754z M9.528,33.309l0.011-2.965l7.089,0.037l-0.013,2.897L9.528,33.309z"/>
<path fill-rule="evenodd" clip-rule="evenodd" fill="#EC008C" d="M46.966,27.542l-0.051-0.168c-2.727,2.29-6.432,1.001-6.336-2.1
	c0.043-1.431,1.155-2.641,2.389-2.898c2.092-0.436,3.05,0.748,3.978,1.326l0.012-5.882c-4.171-1.134-6.905-0.954-9.944,1.989
	c-1.021,0.99-1.874,2.546-2.177,4.447c-0.257,1.616,0.114,4.433,1.041,5.417c0.659,1.666,2.735,2.966,4.401,3.573
	c0.953,0.348,2.357,0.54,3.461,0.434c0.773-0.074,2.618-0.323,3.192-0.7L46.966,27.542z"/>
<path fill-rule="evenodd" clip-rule="evenodd" fill="#BED738" d="M14.987,25.613c0.21,0.228,0.09-0.083,0.146,0.382l-0.051,2.598
	l1.559-0.017l0.018-5.216c-0.258,0.241-0.569,0.75-0.808,1.091L14.987,25.613z"/>
<path fill-rule="evenodd" clip-rule="evenodd" fill="#00AEEF" d="M15.083,28.593l0.051-2.598c-0.057-0.465,0.063-0.154-0.146-0.382
	c-0.31,0.509-0.66,0.945-1.008,1.466c-0.339,0.508-0.751,0.971-1.027,1.517L15.083,28.593z"/>
<g>
	<path fill-rule="evenodd" clip-rule="evenodd" fill="#00AEEF" d="M53.129,33.653l0.198-0.061c0.146-0.03-0.012-0.003,0.144-0.021
		l1.921-0.271c0.521-0.251,0.273-0.832-0.341-1.073c-0.481-0.189-0.729-0.169-0.828-0.77c-0.161-0.971-0.026-2.133-0.022-3.138
		c1.109-0.327,1.299,0.653,1.371-1.033c0.041-0.98,0.334-1.737,0.635-2.645c0.446-1.345,0.779-1.957,0.694-3.646
		c-0.092-1.826-0.803-3.351-2.047-4.489c-0.231-0.211-0.445-0.256-0.41-0.656c0.033-0.377,0.265-0.405,0.306-0.779
		c-0.167-0.146-0.235-0.142-0.431-0.292c-0.041-0.672,0.86-3.462,1.086-4.355c0.368-1.462-0.067-2.321,0.998-3.099
		c0.347-0.253,0.639-0.146,0.754-0.573c-0.538-0.397-0.848,0.173-1.479,0.053c-0.171-0.494-0.203-1.838-0.956-1.463
		c-0.118,0.542,0.252,0.208,0.275,0.947c-0.525-0.125-0.493-0.349-0.743-0.403C53.94,5.82,54.102,5.88,54.03,5.95
		c-0.348,0.388,0.393,0.519,0.554,0.72c-0.234,0.15-0.479-0.06-0.879,0.074c-0.048,0.631,0.398,0.18,0.798,0.559
		c0.27,0.255,0.261,0.761,0.139,1.141c-0.543,1.677-1.651,3.968-2.279,5.83l-0.568-0.176c0.048-0.761,0.572-0.839,0.596-1.517
		l-1.035-0.704c-0.179-0.19-0.181-0.067-0.434-0.225c0.064-0.286,0.106-0.204,0.011-0.472c-0.385-0.167-0.43,0.062-0.872,0.143
		c-0.201-0.023-0.611-0.601-1.384-0.87c0.135-0.245,0.102-0.084,0.316-0.271l-0.323-0.229c-0.119-0.061-0.238-0.132-0.354-0.174
		c-1.396-0.512-3.225,2.681-3.319,3.568c-0.155,1.465,1.058,3.069,2.62,3.495c0.465,0.126,0.637,0.014,0.932,0.064
		c0.459,0.079,0.181,0.329,0.098,0.57c0.743,0.014,0.219-0.288,0.913-0.546c0.38-0.141,0.76-0.362,1.157-0.444
		c-0.13,0.935-0.9,1.415-1.364,2.056c-0.7,0.967-0.7,2.017-0.952,2.309c-0.314,0.365-1.339,0.348-1.148,0.822
		c0.018,0.011,0.043,0.021,0.057,0.025l0.182,0.047c0.346,0.025,0.357-0.173,0.647-0.185c0.084,0.518-0.562,0.276-0.522,0.717
		c0.136,0.262,0.345,0.337,0.6,0.135c0.23-0.184,0.093-0.358,0.39-0.404c0.32,0.484-0.488,0.104-0.298,0.894
		c0.92,0.183,0.61-0.676,1.073-0.916c0.271,0.176,0.055,0.117,0.228,0.447c0.992,0.133,0.086-0.95,0.083-1.356
		c-0.011-1.234,1.487-2.425,2.357-1.308c0.535,0.688,0.235,2.738-0.351,3.622c-0.458,0.689-0.362,0.893-0.339,1.853
		c0.071,2.901,0.064,3.089,1.38,3.016l-0.086,2.174l-0.267,0.243c-0.759,0.62-0.192,1.447,0.291,2.068
		c-1.125-0.045-4.54-0.151-5.23,0.433c0.496,0.559,2.084,0.204,2.764,0.477H53.129z"/>
	<path fill-rule="evenodd" clip-rule="evenodd" fill="#FED11F" d="M55.539,0l0.003,1.819c-0.395,0.367-1.124,0.703-1.436,1.061
		c0.33,0.254,1.37,0.33,1.653,0.594c0.129,0.121,0.515,1.466,0.565,1.698c0.238-0.184,0.376-0.436,0.56-0.696
		c0.146-0.208,0.415-0.553,0.51-0.775l1.851,0.022c-0.185-0.386-0.869-1.131-0.991-1.381c-0.152-0.311,0.388-1.386,0.482-1.824
		c-0.448,0.087-1.47,0.616-1.803,0.493C56.838,0.974,55.685,0.097,55.601,0H55.539z"/>
</g>
<path fill-rule="evenodd" clip-rule="evenodd" d="M2.526,37.497c-0.013-1.088-0.1-1.883-0.261-2.384
	c-0.013-0.043-0.009-0.084,0.013-0.124c0.021-0.041,0.052-0.067,0.092-0.08s0.081-0.009,0.121,0.013
	c0.041,0.021,0.067,0.051,0.08,0.089c0.162,0.515,0.253,1.312,0.274,2.391l0.127-0.045c0.042-0.013,0.083-0.009,0.121,0.01
	c0.038,0.02,0.065,0.05,0.08,0.093c0.015,0.042,0.013,0.083-0.006,0.121s-0.05,0.065-0.092,0.083
	c-0.077,0.025-0.153,0.049-0.229,0.07c0,0.28-0.009,0.519-0.026,0.714c-0.013,0.14-0.04,0.329-0.083,0.567
	c-0.051,0.275-0.081,0.454-0.089,0.535c-0.004,0.043-0.024,0.077-0.061,0.105c-0.036,0.027-0.076,0.039-0.118,0.035
	c-0.042-0.005-0.077-0.025-0.105-0.062c-0.027-0.035-0.039-0.075-0.035-0.117c0.009-0.09,0.041-0.274,0.096-0.555
	c0.042-0.226,0.068-0.404,0.077-0.535c0.013-0.166,0.021-0.366,0.025-0.6c-0.633,0.157-1.239,0.204-1.817,0.141
	c0.009,0.519,0.043,1.032,0.102,1.542c0.004,0.043-0.007,0.082-0.035,0.118c-0.027,0.036-0.062,0.057-0.105,0.061
	s-0.082-0.008-0.118-0.035c-0.036-0.027-0.057-0.062-0.061-0.105c-0.063-0.539-0.1-1.081-0.108-1.625
	C0.295,37.9,0.208,37.882,0.123,37.86c-0.042-0.008-0.075-0.032-0.099-0.069c-0.023-0.039-0.03-0.079-0.019-0.122
	c0.011-0.042,0.035-0.075,0.073-0.099s0.079-0.028,0.121-0.016l0.185,0.038c0.009-0.799,0.075-1.617,0.198-2.454
	c0.009-0.043,0.031-0.076,0.067-0.102c0.037-0.026,0.076-0.035,0.118-0.029c0.042,0.007,0.076,0.027,0.102,0.064
	c0.025,0.035,0.036,0.075,0.032,0.117c-0.127,0.833-0.193,1.651-0.198,2.454C1.281,37.712,1.889,37.663,2.526,37.497z"/>
<path fill-rule="evenodd" clip-rule="evenodd" d="M6.007,35.311c-0.242-0.013-0.574-0.013-0.995,0
	c-0.238,0.005-0.429,0.016-0.574,0.032c-0.072,0.009-0.13,0.017-0.172,0.025l-0.013,0.108l-0.032,0.452
	c-0.038,0.48-0.057,0.728-0.057,0.74c-0.013,0.145-0.02,0.322-0.02,0.535c0.03,0.009,0.166,0.009,0.408,0s0.378-0.013,0.408-0.013
	s0.167-0.008,0.411-0.022c0.244-0.015,0.381-0.024,0.411-0.028c0.047-0.005,0.086,0.008,0.118,0.038
	c0.032,0.029,0.05,0.066,0.054,0.111c0.004,0.045-0.008,0.083-0.038,0.115c-0.03,0.031-0.066,0.05-0.108,0.054
	c-0.034,0-0.171,0.009-0.411,0.025S5.02,37.51,4.983,37.51s-0.175,0.005-0.417,0.013c-0.242,0.009-0.382,0.009-0.421,0v0.3
	c-0.013,0.591,0.054,0.988,0.198,1.192c0.179,0.246,0.546,0.346,1.103,0.299c0.098-0.008,0.198-0.025,0.303-0.051
	c0.104-0.025,0.221-0.059,0.351-0.099c0.129-0.04,0.239-0.071,0.328-0.093c0.042-0.013,0.083-0.007,0.121,0.017
	c0.039,0.023,0.063,0.056,0.073,0.099c0.011,0.042,0.004,0.083-0.019,0.121s-0.056,0.062-0.099,0.07
	c-0.063,0.017-0.164,0.047-0.3,0.089c-0.136,0.043-0.266,0.079-0.389,0.108c-0.124,0.03-0.238,0.049-0.344,0.058
	c-0.676,0.055-1.137-0.09-1.383-0.434c-0.11-0.153-0.184-0.342-0.22-0.567s-0.05-0.499-0.042-0.822v-0.325
	c-0.051-0.034-0.074-0.083-0.07-0.146c0.004-0.051,0.027-0.091,0.07-0.121c0-0.229,0.006-0.421,0.019-0.573
	c0-0.014,0.019-0.258,0.058-0.733l0.032-0.459l0.013-0.146c0.004-0.021,0.006-0.036,0.006-0.045v-0.013v-0.006v-0.014
	c0.004-0.004,0.006-0.008,0.006-0.013c0.008-0.021,0.019-0.04,0.032-0.058c0.034-0.042,0.096-0.074,0.185-0.095
	c0.06-0.013,0.136-0.025,0.229-0.038c0.153-0.014,0.353-0.023,0.599-0.032c0.429-0.013,0.767-0.013,1.013,0
	c0.047,0.004,0.084,0.022,0.112,0.054c0.027,0.032,0.041,0.07,0.039,0.115c-0.002,0.045-0.02,0.08-0.051,0.108
	C6.086,35.297,6.049,35.311,6.007,35.311z"/>
<path fill-rule="evenodd" clip-rule="evenodd" d="M7.715,35.113c0.021,0.365,0.031,0.844,0.029,1.435
	c-0.002,0.59-0.001,1.068,0.003,1.434c0,0.021-0.001,0.062-0.003,0.125c-0.002,0.062-0.004,0.141-0.006,0.238
	c-0.002,0.098-0.003,0.186-0.003,0.262v0.369c0.004,0.047,0.006,0.083,0.006,0.108c0.004,0.005,0.021,0.013,0.048,0.025
	c0.028,0.014,0.063,0.027,0.105,0.042s0.089,0.026,0.14,0.035c0.166,0.021,0.387,0.023,0.663,0.007
	c0.438-0.026,0.827-0.075,1.167-0.147c0.042-0.013,0.082-0.006,0.118,0.02s0.06,0.06,0.07,0.102c0.01,0.043,0.003,0.082-0.022,0.118
	s-0.06,0.059-0.102,0.067c-0.357,0.076-0.761,0.129-1.211,0.159c-0.293,0.017-0.534,0.013-0.721-0.013
	c-0.268-0.03-0.442-0.106-0.522-0.229c-0.017-0.021-0.03-0.047-0.038-0.076c-0.004-0.018-0.006-0.039-0.006-0.064
	c-0.004-0.034-0.009-0.081-0.013-0.14V38.6c0-0.071,0.001-0.157,0.003-0.255c0.002-0.098,0.004-0.176,0.006-0.235
	s0.003-0.098,0.003-0.115c-0.004-0.199-0.004-0.678,0-1.434c0-0.744-0.011-1.222-0.032-1.435c-0.004-0.043,0.008-0.08,0.038-0.111
	c0.03-0.032,0.067-0.05,0.111-0.055c0.045-0.004,0.083,0.009,0.115,0.038C7.692,35.028,7.711,35.066,7.715,35.113z"/>
<path fill-rule="evenodd" clip-rule="evenodd" d="M11.297,35.228c-0.004,0.005-0.006,0.009-0.006,0.014
	c-0.017,0.029-0.032,0.069-0.045,0.12c-0.03,0.103-0.057,0.238-0.083,0.408c-0.021,0.119-0.042,0.266-0.061,0.44
	c-0.02,0.174-0.029,0.266-0.029,0.273c-0.017,0.094-0.029,0.2-0.035,0.319s-0.01,0.208-0.01,0.268v0.351v0.293v0.134
	c0.272,0.034,0.542,0.018,0.81-0.051c0.268-0.068,0.491-0.177,0.669-0.325c0.408-0.336,0.48-0.777,0.217-1.326
	c-0.132-0.268-0.308-0.479-0.529-0.634c-0.221-0.155-0.476-0.245-0.765-0.271c-0.013,0-0.036-0.003-0.07-0.007
	c-0.021-0.004-0.039-0.007-0.051-0.007H11.297L11.297,35.228z M10.94,39.512c-0.153-0.587-0.229-1.186-0.229-1.798v-0.242v-0.268
	c0-0.063,0.001-0.145,0.003-0.242c0.002-0.098,0.007-0.189,0.013-0.274c0.007-0.085,0.016-0.17,0.029-0.255
	c0-0.004,0.011-0.094,0.032-0.268c0.021-0.174,0.04-0.323,0.057-0.446c0.03-0.183,0.062-0.329,0.096-0.439
	c0.017-0.072,0.038-0.132,0.063-0.179c0.034-0.072,0.075-0.121,0.122-0.146c0.059-0.034,0.127-0.049,0.204-0.045
	c0.021,0,0.047,0.002,0.077,0.007c0.025,0.004,0.042,0.006,0.051,0.006c0.349,0.03,0.655,0.14,0.921,0.328
	c0.266,0.189,0.475,0.441,0.628,0.756c0.119,0.238,0.182,0.466,0.188,0.686c0.006,0.219-0.033,0.412-0.118,0.579
	c-0.085,0.168-0.206,0.318-0.363,0.45c-0.212,0.174-0.467,0.3-0.765,0.379c-0.297,0.078-0.599,0.104-0.905,0.073
	c0.03,0.425,0.098,0.846,0.204,1.262c0.013,0.043,0.008,0.083-0.016,0.121c-0.023,0.039-0.057,0.063-0.099,0.073
	c-0.042,0.012-0.083,0.005-0.121-0.019C10.972,39.587,10.949,39.554,10.94,39.512z"/>
<path fill-rule="evenodd" clip-rule="evenodd" d="M17.978,38.109c-0.017-1.008-0.077-1.87-0.179-2.588l-0.255,0.299l-0.72,0.861
	c-0.276,0.34-0.482,0.618-0.618,0.835c-0.081,0.123-0.136,0.225-0.166,0.306c-0.021,0.047-0.032,0.081-0.032,0.103
	c0.013,0.008,0.03,0.017,0.051,0.025c0.064,0.029,0.155,0.053,0.274,0.069c0.217,0.039,0.512,0.064,0.886,0.077
	C17.457,38.104,17.709,38.109,17.978,38.109L17.978,38.109z M17.754,35.075c0.025-0.051,0.066-0.083,0.121-0.096
	c0.042-0.004,0.082,0.006,0.118,0.031c0.037,0.026,0.059,0.06,0.067,0.103c0.136,0.82,0.215,1.816,0.236,2.989
	c0.196-0.004,0.357-0.011,0.484-0.019c0.043-0.005,0.08,0.008,0.112,0.038c0.032,0.029,0.05,0.066,0.054,0.111
	s-0.008,0.083-0.038,0.114c-0.03,0.032-0.068,0.051-0.115,0.055c-0.123,0.009-0.289,0.015-0.498,0.02
	c0.004,0.25,0.007,0.609,0.007,1.077c0,0.042-0.016,0.079-0.048,0.111s-0.069,0.048-0.111,0.048c-0.043,0-0.08-0.016-0.112-0.048
	s-0.048-0.069-0.048-0.111c0-0.464-0.002-0.82-0.006-1.071c-0.264,0-0.519-0.004-0.765-0.013c-0.391-0.013-0.701-0.038-0.931-0.076
	c-0.144-0.025-0.259-0.058-0.344-0.096c-0.127-0.051-0.206-0.121-0.236-0.211c-0.03-0.085-0.017-0.195,0.039-0.331
	c0.038-0.094,0.104-0.213,0.197-0.357c0.149-0.233,0.361-0.522,0.638-0.866l0.727-0.861C17.578,35.29,17.729,35.109,17.754,35.075z"
	/>
<path fill-rule="evenodd" clip-rule="evenodd" d="M21.687,39.581c-0.119-0.441-0.167-1.038-0.143-1.79
	c0.023-0.753,0.101-1.337,0.232-1.754c0.115-0.353,0.27-0.603,0.465-0.752c0.136-0.102,0.28-0.138,0.434-0.108
	c0.157,0.03,0.31,0.132,0.459,0.306c0.263,0.311,0.455,0.728,0.573,1.25c0.094-0.506,0.247-0.899,0.459-1.18
	c0.106-0.145,0.245-0.256,0.415-0.334c0.17-0.079,0.352-0.107,0.545-0.087c0.193,0.021,0.362,0.103,0.507,0.243
	c0.191,0.19,0.34,0.546,0.446,1.064c0.063,0.322,0.106,0.788,0.127,1.396c0.017,0.472,0,1.021-0.051,1.645
	c-0.004,0.043-0.023,0.079-0.057,0.108c-0.034,0.03-0.072,0.043-0.115,0.038c-0.042-0.004-0.079-0.023-0.108-0.058
	c-0.03-0.033-0.042-0.071-0.038-0.114c0.051-0.612,0.068-1.147,0.051-1.606c-0.021-0.578-0.063-1.026-0.127-1.345
	c-0.094-0.459-0.212-0.759-0.357-0.899c-0.136-0.131-0.304-0.18-0.503-0.146c-0.2,0.03-0.359,0.126-0.478,0.287
	c-0.039,0.051-0.074,0.108-0.108,0.172c-0.034,0.064-0.064,0.122-0.089,0.176c-0.025,0.053-0.051,0.122-0.077,0.207l-0.063,0.191
	c-0.013,0.047-0.027,0.12-0.044,0.22s-0.03,0.17-0.039,0.21c-0.008,0.041-0.019,0.118-0.032,0.233
	c-0.013,0.114-0.021,0.186-0.026,0.213c-0.004,0.028-0.013,0.104-0.025,0.229c-0.013,0.126-0.019,0.197-0.019,0.214
	c-0.008,0.085-0.019,0.21-0.032,0.376c0.004,0.009,0.009,0.063,0.013,0.166l0.019,0.255c0.004,0.119,0.009,0.212,0.013,0.28v0.103
	c0,0.017-0.002,0.031-0.006,0.044l-0.013,0.051c-0.038,0.072-0.096,0.103-0.172,0.09c-0.055-0.013-0.1-0.045-0.133-0.096
	c-0.013-0.025-0.023-0.053-0.032-0.083c-0.008-0.042-0.015-0.098-0.019-0.166c-0.004-0.105-0.002-0.251,0.006-0.434
	c0-0.063,0.002-0.133,0.006-0.21v-0.032c-0.008-0.246-0.022-0.467-0.042-0.662c-0.019-0.196-0.051-0.409-0.095-0.641
	c-0.045-0.231-0.109-0.445-0.195-0.641c-0.089-0.2-0.197-0.374-0.325-0.523c-0.098-0.114-0.189-0.18-0.274-0.197
	c-0.06-0.013-0.121,0.005-0.185,0.051c-0.141,0.106-0.257,0.307-0.351,0.6c-0.124,0.387-0.197,0.939-0.22,1.66
	s0.021,1.284,0.131,1.692c0.013,0.043,0.008,0.083-0.013,0.121c-0.021,0.038-0.053,0.064-0.096,0.077s-0.083,0.008-0.121-0.013
	C21.726,39.656,21.7,39.624,21.687,39.581z"/>
<path fill-rule="evenodd" clip-rule="evenodd" d="M27.322,35.075c0,0.238,0.022,0.521,0.067,0.851
	c0.044,0.329,0.114,0.635,0.207,0.915c0.238,0.714,0.578,1.016,1.02,0.905c0.298-0.077,0.544-0.438,0.74-1.084
	c0.14-0.48,0.225-0.992,0.255-1.536c0.004-0.047,0.022-0.084,0.054-0.111c0.032-0.028,0.07-0.041,0.115-0.038
	c0.045,0.002,0.081,0.019,0.108,0.051s0.042,0.068,0.042,0.111c-0.03,0.561-0.122,1.099-0.274,1.612
	c-0.23,0.766-0.551,1.199-0.963,1.301c-0.042,0.013-0.083,0.021-0.121,0.025c0.021,0.697,0.032,1.164,0.032,1.402
	c0,0.043-0.016,0.08-0.047,0.111c-0.032,0.032-0.069,0.048-0.112,0.048s-0.08-0.016-0.111-0.048
	c-0.032-0.031-0.048-0.068-0.048-0.111c0-0.229-0.011-0.699-0.032-1.408c-0.417-0.09-0.737-0.466-0.963-1.129
	c-0.098-0.302-0.17-0.626-0.217-0.972c-0.046-0.347-0.07-0.645-0.07-0.896c0-0.043,0.016-0.08,0.048-0.111
	c0.032-0.032,0.069-0.048,0.111-0.048s0.08,0.016,0.112,0.048C27.306,34.995,27.322,35.032,27.322,35.075z"/>
<path fill-rule="evenodd" clip-rule="evenodd" d="M34.519,36.114c-0.017-0.217-0.06-0.385-0.128-0.504
	c-0.067-0.119-0.147-0.193-0.238-0.223c-0.092-0.03-0.2-0.018-0.325,0.038c-0.126,0.055-0.256,0.161-0.393,0.318
	c-0.25,0.289-0.432,0.648-0.545,1.077c-0.112,0.43-0.149,0.854-0.111,1.275c0.038,0.42,0.173,0.728,0.405,0.921
	c0.231,0.193,0.498,0.272,0.8,0.239c0.301-0.034,0.57-0.17,0.806-0.408c0.236-0.238,0.369-0.544,0.398-0.918
	c0.005-0.043,0.023-0.078,0.058-0.108c0.034-0.029,0.072-0.042,0.114-0.038c0.043,0.004,0.079,0.023,0.108,0.057
	c0.03,0.034,0.043,0.073,0.038,0.115c-0.038,0.45-0.201,0.822-0.49,1.115c-0.289,0.294-0.622,0.461-1.001,0.504
	c-0.25,0.03-0.486-0.002-0.707-0.096c-0.217-0.094-0.404-0.257-0.562-0.49c-0.157-0.234-0.253-0.523-0.286-0.867
	c-0.043-0.455-0.003-0.918,0.121-1.39c0.123-0.468,0.327-0.865,0.611-1.192c0.17-0.195,0.347-0.333,0.529-0.414
	s0.359-0.094,0.529-0.038c0.17,0.055,0.305,0.171,0.404,0.348c0.101,0.176,0.16,0.394,0.182,0.653
	c0.004,0.042-0.008,0.08-0.038,0.114s-0.065,0.054-0.108,0.058c-0.042,0.004-0.081-0.009-0.114-0.038
	C34.542,36.192,34.522,36.156,34.519,36.114z"/>
<path fill-rule="evenodd" clip-rule="evenodd" d="M38.445,37.497c-0.013-1.088-0.101-1.883-0.262-2.384
	c-0.013-0.043-0.009-0.084,0.013-0.124c0.021-0.041,0.052-0.067,0.093-0.08c0.04-0.013,0.08-0.009,0.121,0.013
	c0.04,0.021,0.066,0.051,0.079,0.089c0.162,0.515,0.253,1.312,0.274,2.391l0.128-0.045c0.042-0.013,0.082-0.009,0.121,0.01
	c0.038,0.02,0.064,0.05,0.079,0.093c0.015,0.042,0.013,0.083-0.006,0.121c-0.02,0.038-0.051,0.065-0.093,0.083
	c-0.076,0.025-0.153,0.049-0.229,0.07c0,0.28-0.009,0.519-0.025,0.714c-0.013,0.14-0.04,0.329-0.083,0.567
	c-0.051,0.275-0.081,0.454-0.089,0.535c-0.005,0.043-0.024,0.077-0.061,0.105c-0.036,0.027-0.076,0.039-0.118,0.035
	c-0.043-0.005-0.077-0.025-0.105-0.062c-0.027-0.035-0.039-0.075-0.035-0.117c0.009-0.09,0.041-0.274,0.096-0.555
	c0.043-0.226,0.068-0.404,0.077-0.535c0.013-0.166,0.021-0.366,0.025-0.6c-0.634,0.157-1.239,0.204-1.817,0.141
	c0.009,0.519,0.043,1.032,0.103,1.542c0.004,0.043-0.008,0.082-0.035,0.118s-0.062,0.057-0.105,0.061
	c-0.042,0.004-0.082-0.008-0.118-0.035c-0.035-0.027-0.056-0.062-0.061-0.105c-0.063-0.539-0.1-1.081-0.108-1.625
	c-0.089-0.018-0.176-0.036-0.261-0.058c-0.043-0.008-0.075-0.032-0.099-0.069c-0.023-0.039-0.03-0.079-0.02-0.122
	c0.011-0.042,0.035-0.075,0.073-0.099s0.079-0.028,0.121-0.016l0.185,0.038c0.009-0.799,0.074-1.617,0.198-2.454
	c0.008-0.043,0.03-0.076,0.066-0.102c0.036-0.026,0.075-0.035,0.118-0.029c0.043,0.007,0.076,0.027,0.103,0.064
	c0.025,0.035,0.035,0.075,0.031,0.117c-0.127,0.833-0.193,1.651-0.197,2.454C37.2,37.712,37.808,37.663,38.445,37.497z"/>
<path fill-rule="evenodd" clip-rule="evenodd" d="M39.535,39.174c0.263,0.051,0.544,0.076,0.841,0.076
	c0-1.729-0.031-3.021-0.096-3.875c-0.263,0.008-0.524,0.035-0.783,0.082c-0.043,0.005-0.082-0.006-0.118-0.031
	s-0.058-0.06-0.063-0.103c-0.007-0.042,0.003-0.082,0.028-0.117c0.025-0.036,0.06-0.059,0.102-0.067
	c0.311-0.051,0.623-0.078,0.938-0.083c0.009-0.004,0.019-0.006,0.031-0.006c0.021,0,0.043,0.002,0.064,0.006
	c0.349,0.005,0.741,0.04,1.179,0.108c0.043,0.009,0.077,0.031,0.103,0.067s0.035,0.075,0.028,0.117
	c-0.006,0.043-0.027,0.077-0.063,0.103s-0.075,0.036-0.118,0.031c-0.369-0.059-0.705-0.093-1.007-0.102
	c0.063,0.854,0.096,2.14,0.096,3.856c0.365-0.029,0.741-0.096,1.128-0.197c0.038-0.013,0.077-0.008,0.114,0.016
	c0.039,0.023,0.064,0.056,0.077,0.096s0.008,0.08-0.017,0.118c-0.022,0.038-0.056,0.063-0.098,0.076
	c-0.897,0.242-1.707,0.287-2.429,0.134c-0.043-0.009-0.077-0.03-0.103-0.067c-0.025-0.035-0.033-0.075-0.022-0.117
	c0.011-0.043,0.034-0.076,0.07-0.102C39.453,39.167,39.492,39.161,39.535,39.174z"/>
<path fill-rule="evenodd" clip-rule="evenodd" d="M43.104,35.113c0.021,0.365,0.031,0.844,0.028,1.435
	c-0.002,0.59,0,1.068,0.004,1.434c0,0.021-0.001,0.062-0.004,0.125c-0.002,0.062-0.004,0.141-0.006,0.238s-0.003,0.186-0.003,0.262
	v0.369c0.004,0.047,0.006,0.083,0.006,0.108c0.005,0.005,0.021,0.013,0.048,0.025c0.027,0.014,0.062,0.027,0.105,0.042
	s0.089,0.026,0.14,0.035c0.166,0.021,0.388,0.023,0.663,0.007c0.438-0.026,0.827-0.075,1.167-0.147
	c0.042-0.013,0.082-0.006,0.118,0.02s0.059,0.06,0.069,0.102c0.011,0.043,0.004,0.082-0.021,0.118
	c-0.026,0.036-0.06,0.059-0.103,0.067c-0.356,0.076-0.761,0.129-1.211,0.159c-0.293,0.017-0.533,0.013-0.721-0.013
	c-0.268-0.03-0.441-0.106-0.522-0.229c-0.017-0.021-0.029-0.047-0.038-0.076c-0.004-0.018-0.007-0.039-0.007-0.064
	c-0.004-0.034-0.008-0.081-0.013-0.14V38.6c0-0.071,0.001-0.157,0.004-0.255c0.002-0.098,0.004-0.176,0.006-0.235
	s0.003-0.098,0.003-0.115c-0.004-0.199-0.004-0.678,0-1.434c0-0.744-0.01-1.222-0.031-1.435c-0.005-0.043,0.009-0.08,0.038-0.111
	c0.03-0.032,0.067-0.05,0.111-0.055c0.045-0.004,0.083,0.009,0.115,0.038C43.082,35.028,43.101,35.066,43.104,35.113z"/>
<path fill-rule="evenodd" clip-rule="evenodd" d="M46.451,35.413v0.031c-0.004,0.081-0.009,0.196-0.013,0.345
	c0,0.072,0.001,0.152,0.003,0.239s0.003,0.164,0.003,0.232v0.108c0,0.318,0.016,0.794,0.045,1.428
	c0.03,0.633,0.045,1.109,0.045,1.428c0,0.017-0.005,0.036-0.013,0.058c0.025-0.017,0.053-0.028,0.083-0.032
	c0.484-0.038,0.902-0.15,1.255-0.338c0.357-0.191,0.61-0.429,0.759-0.714c0.072-0.136,0.117-0.28,0.134-0.434
	c0.018-0.157,0.005-0.323-0.038-0.497c-0.042-0.174-0.124-0.357-0.245-0.552c-0.121-0.193-0.279-0.385-0.475-0.576
	c-0.222-0.221-0.464-0.398-0.728-0.532c-0.263-0.134-0.526-0.199-0.79-0.194H46.451L46.451,35.413z M46.215,39.225
	c0-0.318-0.015-0.795-0.044-1.428c-0.03-0.634-0.045-1.109-0.045-1.428v-0.108c0-0.068-0.001-0.146-0.003-0.232
	s-0.004-0.169-0.004-0.246c0.005-0.148,0.009-0.268,0.013-0.356c0.005-0.056,0.009-0.1,0.013-0.134c0-0.025,0.005-0.047,0.014-0.064
	c0.008-0.033,0.023-0.063,0.044-0.089c0.056-0.051,0.128-0.07,0.217-0.058c0.025,0.005,0.043,0.009,0.051,0.014h0.007
	c0.314-0.005,0.623,0.069,0.924,0.223c0.303,0.152,0.576,0.351,0.822,0.593c0.281,0.28,0.493,0.566,0.638,0.857
	s0.217,0.566,0.217,0.825c0,0.26-0.06,0.51-0.179,0.752c-0.178,0.345-0.468,0.624-0.87,0.839c-0.401,0.214-0.867,0.343-1.398,0.385
	c-0.043,0.005-0.081-0.008-0.115-0.038c-0.033-0.029-0.053-0.065-0.058-0.108c0-0.025,0.005-0.049,0.013-0.069
	c-0.029,0.021-0.061,0.031-0.095,0.031c-0.043,0-0.08-0.016-0.112-0.048C46.231,39.305,46.215,39.267,46.215,39.225z"/>
</svg>
